<svg width="36" height="36" viewBox="0 0 36 36" fill="none" xmlns="http://www.w3.org/2000/svg">
<g clip-path="url(#clip0)">
<path d="M9.29055 15.9796H3.48657V17.1418H9.29055V15.9796Z" fill="white"/>
<path d="M12.1961 19.4662H3.48657V20.6284H12.1961V19.4662Z" fill="white"/>
<path d="M24.3922 22.9529H3.48657V24.1151H24.3922V22.9529Z" fill="white"/>
<path d="M6.97321 26.4324H3.48657V27.5946H6.97321V26.4324Z" fill="white"/>
<path d="M12.7772 26.4324H9.29053V27.5946H12.7772V26.4324Z" fill="white"/>
<path d="M18.5885 26.4324H15.1018V27.5946H18.5885V26.4324Z" fill="white"/>
<path d="M23.8112 15.3984C23.386 15.3984 22.9962 15.5189 22.6561 15.7173C22.3018 15.5118 21.9049 15.3984 21.4868 15.3984C20.2041 15.3984 19.1624 16.4402 19.1624 17.7229C19.1624 19.0056 20.2041 20.0473 21.4868 20.0473C21.9049 20.0473 22.3018 19.9339 22.6561 19.7284C22.9962 19.9268 23.386 20.0473 23.8112 20.0473C25.0939 20.0473 26.1356 19.0056 26.1356 17.7229C26.1356 16.4402 25.0939 15.3984 23.8112 15.3984ZM21.7844 18.8426C21.6852 18.8709 21.586 18.8851 21.4868 18.8851C20.849 18.8851 20.3246 18.3607 20.3246 17.7229C20.3246 17.0851 20.849 16.5607 21.4868 16.5607C21.586 16.5607 21.6923 16.5819 21.7844 16.6032C21.6002 16.9362 21.4868 17.3118 21.4868 17.7229C21.4868 18.1339 21.6002 18.5095 21.7844 18.8426ZM23.8112 18.8851C23.1734 18.8851 22.649 18.3607 22.649 17.7229C22.649 17.0851 23.1734 16.5607 23.8112 16.5607C24.449 16.5607 24.9734 17.0851 24.9734 17.7229C24.9734 18.3607 24.449 18.8851 23.8112 18.8851Z" fill="white"/>
<path d="M34.7885 12.7126L10.4245 5.01649C10.2544 4.9598 8.89377 4.51334 8.2418 6.15036L6.23627 12.4929H1.74332C0.779534 12.5 0 13.2795 0 14.2362V29.3379C0 30.3017 0.779534 31.0813 1.74332 31.0813H27.2978C27.9073 31.0813 28.4388 30.7695 28.7506 30.2946C28.7506 30.2946 29.5372 30.5143 29.7144 30.5143C30.4798 30.5143 31.1459 30.0254 31.3727 29.2954L35.9223 14.8953C36.0641 14.4559 36.1633 13.0811 34.7885 12.7126ZM8.64573 8.71573L20.6151 12.4929H12.8977L7.94415 10.9268L8.64573 8.71573ZM7.59691 12.0394L9.04967 12.5H7.45517L7.59691 12.0394ZM27.879 29.3379H27.8719C27.8719 29.6568 27.6097 29.9191 27.2908 29.9191H1.74332C1.42442 29.9191 1.16221 29.6568 1.16221 29.3379V14.2362C1.16221 13.9173 1.42442 13.6551 1.74332 13.6551H27.2978C27.6167 13.6551 27.879 13.9173 27.879 14.2362V29.3379ZM30.2672 28.9482C30.175 29.2458 29.8349 29.423 29.5372 29.3238L29.0341 29.1679V18.8142L33.0664 20.0898L30.2672 28.9482ZM33.4136 18.9772L29.0341 17.5953V15.1575L34.1152 16.7591L33.4136 18.9772ZM34.8168 14.5481L34.4696 15.6536L29.0057 13.9315C28.8569 13.1166 28.1482 12.5 27.2978 12.5H24.4703L8.99298 7.61021L9.34023 6.50469C9.43236 6.20705 9.76543 6.02988 10.0702 6.1291L34.4341 13.8181C34.9231 13.9457 34.8593 14.3992 34.8168 14.5481Z" fill="white"/>
</g>
<defs>
<clipPath id="clip0">
<rect width="36" height="36" fill="white"/>
</clipPath>
</defs>
</svg>
