<svg width="32" height="33" viewBox="0 0 32 33" fill="none" xmlns="http://www.w3.org/2000/svg">
<path d="M21.3721 21.1637C20.6139 21.1637 19.9971 20.6131 19.9971 19.9364C19.9971 19.2597 20.6139 18.7091 21.3721 18.7091C22.1303 18.7091 22.7471 19.2597 22.7471 19.9364C22.7471 20.2923 23.0269 20.581 23.3721 20.581C23.7172 20.581 23.9971 20.2923 23.9971 19.9364C23.9971 18.7553 23.1437 17.7622 21.9971 17.4927V17.1575C21.9971 16.8016 21.7172 16.5129 21.3721 16.5129C21.0269 16.5129 20.7471 16.8016 20.7471 17.1575V17.4927C19.6004 17.7622 18.7471 18.7553 18.7471 19.9364C18.7471 21.3239 19.9246 22.4527 21.3721 22.4527C22.1303 22.4527 22.7471 23.0033 22.7471 23.6801C22.7471 24.3568 22.1303 24.9074 21.3721 24.9074C20.6139 24.9074 19.9971 24.3568 19.9971 23.6801C19.9971 23.3241 19.7172 23.0355 19.3721 23.0355C19.0269 23.0355 18.7471 23.3241 18.7471 23.6801C18.7471 24.8612 19.6004 25.8542 20.7471 26.1238V26.4022C20.7471 26.7581 21.0269 27.0468 21.3721 27.0468C21.7172 27.0468 21.9971 26.7581 21.9971 26.4022V26.1238C23.1437 25.8542 23.9971 24.8612 23.9971 23.6801C23.9971 22.2925 22.8195 21.1637 21.3721 21.1637Z" fill="white"/>
<path d="M28.2175 17.3298C27.401 16.0179 26.2508 14.9681 24.8911 14.294C24.5799 14.1397 24.2065 14.2748 24.057 14.5957C23.9074 14.9165 24.0384 15.3016 24.3495 15.4558C26.7189 16.6304 28.2498 19.1401 28.2498 21.8496C28.2498 23.009 27.9727 24.1588 27.4485 25.1748C27.2864 25.489 27.402 25.8793 27.7067 26.0465C27.8002 26.0978 27.9007 26.1222 27.9997 26.1222C28.2233 26.1222 28.4397 25.9981 28.552 25.7803C29.1721 24.5786 29.4998 23.2194 29.4998 21.8496C29.4998 20.2409 29.0564 18.6779 28.2175 17.3298Z" fill="white"/>
<path d="M22.3543 13.4708L22.3123 13.4707C21.9671 13.4707 21.6873 13.7593 21.6873 14.1152C21.6873 14.4712 21.9671 14.7598 22.3123 14.7598L22.3484 14.7598C22.3494 14.7598 22.3504 14.7598 22.3514 14.7598C22.6953 14.7598 22.9748 14.4733 22.9764 14.1183C22.9779 13.7624 22.6994 13.4724 22.3543 13.4708Z" fill="white"/>
<path d="M18.4005 28.2434C16.0312 27.0687 14.5002 24.559 14.5002 21.8496C14.5002 20.6902 14.7774 19.5404 15.3016 18.5244C15.4637 18.2102 15.3481 17.8199 15.0434 17.6527C14.7387 17.4855 14.3601 17.6047 14.1981 17.9189C13.578 19.1207 13.2502 20.4798 13.2502 21.8496C13.2502 23.4583 13.6937 25.0212 14.5326 26.3694C15.3491 27.6813 16.4993 28.7311 17.859 29.4052C17.9463 29.4485 18.0385 29.469 18.1294 29.469C18.3621 29.469 18.5855 29.3343 18.6931 29.1036C18.8425 28.7827 18.7117 28.3976 18.4005 28.2434Z" fill="white"/>
<path d="M20.4377 28.9395L20.4015 28.9393C20.0548 28.9387 19.7753 29.2248 19.7737 29.5808C19.7721 29.9368 20.0507 30.2267 20.3958 30.2284L20.4377 30.2285C20.7828 30.2285 21.0627 29.9399 21.0627 29.584C21.0627 29.2281 20.7828 28.9395 20.4377 28.9395Z" fill="white"/>
<path d="M24.213 11.2901C24.137 11.1032 24.0438 10.927 23.9353 10.7637H25.5625C27.1477 10.7637 28.4374 9.4336 28.4374 7.79881C28.4374 6.16403 27.1477 4.83398 25.5625 4.83398H20.5575C20.8756 4.35689 21.0625 3.77972 21.0625 3.1582C21.0625 1.52341 19.7727 0.193359 18.1875 0.193359H2.87499C1.28975 0.193359 0 1.52341 0 3.1582C0 4.79298 1.28975 6.12304 2.87499 6.12304H7.87998C7.5618 6.60012 7.37499 7.17729 7.37499 7.79881C7.37499 8.42033 7.56174 8.99751 7.87998 9.47459H6.24999C4.66474 9.47459 3.37499 10.8046 3.37499 12.4394C3.37499 13.3783 3.80087 14.2161 4.46343 14.7597C3.80087 15.3033 3.37499 16.1412 3.37499 17.08C3.37499 18.0189 3.80087 18.8568 4.46343 19.4004C3.80087 19.944 3.37499 20.7818 3.37499 21.7207C3.37499 22.6595 3.80087 23.4974 4.46343 24.041C3.80087 24.5846 3.37499 25.4224 3.37499 26.3613C3.37499 27.9961 4.66474 29.3261 6.24999 29.3261H13.6156C15.556 31.4664 18.3163 32.8066 21.375 32.8066C27.2336 32.8066 32 27.8913 32 21.8496C32 16.8212 28.6981 12.5737 24.213 11.2901ZM25.5625 6.12304C26.4585 6.12304 27.1874 6.87482 27.1874 7.79881C27.1874 8.72281 26.4585 9.47459 25.5625 9.47459H21.5625H10.25C9.35392 9.47459 8.62498 8.72281 8.62498 7.79881C8.62498 6.87482 9.35392 6.12304 10.25 6.12304H25.5625ZM2.87499 4.83398C1.97893 4.83398 1.25 4.0822 1.25 3.1582C1.25 2.2342 1.97893 1.48242 2.87499 1.48242H18.1875C19.0835 1.48242 19.8125 2.2342 19.8125 3.1582C19.8125 4.0822 19.0835 4.83398 18.1875 4.83398H2.87499ZM6.24999 10.7637H21.5625C21.8142 10.7637 22.0553 10.824 22.2715 10.932C21.9759 10.9064 21.677 10.8926 21.375 10.8926C18.441 10.8926 15.781 12.1255 13.8563 14.1152H6.24999C5.35399 14.1152 4.62499 13.3634 4.62499 12.4394C4.62499 11.5154 5.35399 10.7637 6.24999 10.7637ZM6.24999 15.4043H12.7884C12.0789 16.4067 11.5304 17.5373 11.182 18.7558H6.24999C5.35393 18.7558 4.62499 18.0041 4.62499 17.08C4.62499 16.156 5.35393 15.4043 6.24999 15.4043ZM6.24999 20.0449H10.895C10.8002 20.6322 10.75 21.2349 10.75 21.8496C10.75 22.3747 10.7869 22.8909 10.8564 23.3964H6.24999C5.35393 23.3964 4.62499 22.6447 4.62499 21.7207C4.62499 20.7966 5.35393 20.0449 6.24999 20.0449ZM6.24999 28.0371C5.35393 28.0371 4.62499 27.2853 4.62499 26.3613C4.62499 25.4372 5.35393 24.6855 6.24999 24.6855H11.1116C11.427 25.8981 11.9393 27.0281 12.6112 28.0371H6.24999ZM21.375 31.5176C16.2057 31.5176 12 27.1805 12 21.8496C12 16.5187 16.2057 12.1817 21.375 12.1817C26.5444 12.1817 30.75 16.5187 30.75 21.8496C30.75 27.1805 26.5444 31.5176 21.375 31.5176Z" fill="white"/>
</svg>
