<svg width="301" height="301" viewBox="0 0 301 301" fill="none" xmlns="http://www.w3.org/2000/svg">
<path d="M277.484 131.688H253.969V56.4376C253.967 55.5088 253.692 54.601 253.179 53.8273L227.744 15.7038C226.465 13.763 224.723 12.1711 222.676 11.0717C220.628 9.9723 218.339 9.39996 216.015 9.40631H47.3605C45.0396 9.39947 42.7534 9.96969 40.7075 11.0657C38.6617 12.1617 36.9204 13.749 35.6403 15.685L10.1964 53.8273C9.68251 54.601 9.40772 55.5088 9.40625 56.4376V249.266C9.40625 253.008 10.8928 256.596 13.5388 259.242C16.1848 261.888 19.7736 263.375 23.5156 263.375H169.312V277.484C169.312 281.226 170.799 284.815 173.445 287.461C176.091 290.107 179.68 291.594 183.422 291.594H277.484C281.226 291.594 284.815 290.107 287.461 287.461C290.107 284.815 291.594 281.226 291.594 277.484V145.797C291.594 142.055 290.107 138.466 287.461 135.82C284.815 133.174 281.226 131.688 277.484 131.688V131.688ZM253.969 141.094H263.375V153.256L261.997 151.878C261.115 150.996 259.919 150.501 258.672 150.501C257.425 150.501 256.229 150.996 255.347 151.878L253.969 153.256V141.094ZM103.469 89.3594H18.8125V61.1407H103.469V89.3594ZM112.875 61.1407H150.5V121.9L134.627 109.202C133.793 108.534 132.756 108.17 131.688 108.17C130.619 108.17 129.582 108.534 128.748 109.202L112.875 121.9V61.1407ZM159.906 61.1407H244.562V89.3594H159.906V61.1407ZM43.4804 20.8819C43.9051 20.2426 44.482 19.7187 45.1592 19.3575C45.8365 18.9963 46.5929 18.809 47.3605 18.8126H216.015C216.786 18.81 217.546 18.9996 218.226 19.3641C218.906 19.7287 219.484 20.2568 219.909 20.9007L240.475 51.7344H22.8995L43.4804 20.8819ZM23.5156 253.969C22.2683 253.969 21.072 253.473 20.19 252.591C19.308 251.709 18.8125 250.513 18.8125 249.266V98.7657H103.469V131.688C103.468 132.574 103.718 133.442 104.19 134.192C104.662 134.943 105.336 135.544 106.135 135.928C106.933 136.312 107.824 136.463 108.705 136.362C109.585 136.262 110.42 135.915 111.111 135.361L131.688 118.895L152.264 135.356C152.955 135.91 153.789 136.257 154.669 136.357C155.549 136.458 156.44 136.308 157.238 135.925C158.037 135.541 158.711 134.94 159.183 134.191C159.655 133.441 159.906 132.573 159.906 131.688V98.7657H244.562V131.688H183.422C179.68 131.688 176.091 133.174 173.445 135.82C170.799 138.466 169.312 142.055 169.312 145.797V253.969H23.5156ZM282.188 277.484C282.188 278.732 281.692 279.928 280.81 280.81C279.928 281.692 278.732 282.187 277.484 282.187H183.422C182.175 282.187 180.978 281.692 180.096 280.81C179.214 279.928 178.719 278.732 178.719 277.484V145.797C178.719 144.55 179.214 143.353 180.096 142.471C180.978 141.589 182.175 141.094 183.422 141.094H244.562V164.609C244.563 165.539 244.839 166.449 245.355 167.222C245.872 167.995 246.607 168.598 247.466 168.954C248.325 169.309 249.271 169.403 250.183 169.221C251.095 169.04 251.933 168.592 252.591 167.935L258.672 161.853L264.753 167.935C265.635 168.817 266.831 169.312 268.078 169.313C268.696 169.315 269.309 169.193 269.879 168.955C270.739 168.599 271.473 167.996 271.989 167.222C272.506 166.449 272.781 165.54 272.781 164.609V141.094H277.484C278.732 141.094 279.928 141.589 280.81 142.471C281.692 143.353 282.188 144.55 282.188 145.797V277.484Z" fill="#FF8300"/>
<path d="M202.235 195.584L196.154 189.503L189.504 196.153L198.91 205.559C199.792 206.441 200.988 206.936 202.235 206.936C203.482 206.936 204.678 206.441 205.56 205.559L224.373 186.747L217.723 180.097L202.235 195.584Z" fill="#FF8300"/>
<path d="M202.235 247.318L196.154 241.237L189.504 247.888L198.91 257.294C199.792 258.175 200.988 258.671 202.235 258.671C203.482 258.671 204.678 258.175 205.56 257.294L224.373 238.481L217.723 231.831L202.235 247.318Z" fill="#FF8300"/>
<path d="M235.156 197.531H272.781V206.938H235.156V197.531Z" fill="#FF8300"/>
<path d="M235.156 249.266H272.781V258.672H235.156V249.266Z" fill="#FF8300"/>
<path d="M235.156 230.453H272.781V239.859H235.156V230.453Z" fill="#FF8300"/>
</svg>
