<svg width="95" height="97" viewBox="0 0 95 97" fill="none" xmlns="http://www.w3.org/2000/svg">
<path fill-rule="evenodd" clip-rule="evenodd" d="M0.568115 4.33537C0.568115 2.12884 2.35686 0.340088 4.5634 0.340088H49.1907C61.1659 0.340088 72.5583 4.51669 80.9713 12.827C89.4125 21.165 94.5583 33.37 94.5583 48.8577C94.5583 62.4135 90.5393 73.4205 83.7679 81.5108C77.0087 89.5864 67.7049 94.5176 57.5467 96.2712H57.5463C54.735 96.7563 51.8567 97.0001 48.9448 97.0001C46.7383 97.0001 44.9496 95.2113 44.9496 93.0048C44.9496 90.7983 46.7383 89.0095 48.9448 89.0095C51.411 89.0095 53.8343 88.8031 56.1874 88.3971C64.6666 86.9333 72.2109 82.8691 77.6404 76.3822C83.0575 69.91 86.5678 60.7874 86.5678 48.8577C86.5678 35.2063 82.0765 25.1501 75.356 18.5118C68.6074 11.8457 59.3136 8.33065 49.1907 8.33065H8.55868V89.0095H26.383C28.5896 89.0095 30.3783 90.7983 30.3783 93.0048C30.3783 95.2113 28.5896 97.0001 26.383 97.0001H4.5634C2.35686 97.0001 0.568115 95.2113 0.568115 93.0048V4.33537Z" fill="#FF8300"/>
<path d="M47.2963 23.5122H47.3822L47.4682 23.5131L47.5544 23.5139L47.6405 23.5155L47.7263 23.5171L47.812 23.5188L47.898 23.5212L47.9837 23.5237L48.0693 23.5261L48.1552 23.5286L48.2405 23.5318L48.326 23.5359L48.4115 23.5392L48.497 23.5432L48.5823 23.5473L48.6676 23.5522L48.7527 23.5571L48.8379 23.562L48.9229 23.5677L49.008 23.5726L49.093 23.5791L49.1778 23.5848L49.2626 23.5913L49.3473 23.5979L49.4321 23.6052L49.5167 23.6125L49.6012 23.6199L49.6856 23.628L49.7703 23.6354L49.8546 23.6444L49.9387 23.6525L50.0229 23.6615L50.1071 23.6704L50.1912 23.6802L50.2751 23.69L50.3589 23.6998L50.4429 23.7096L50.5266 23.7202L50.6102 23.7308L50.6938 23.7422L50.7776 23.7528L50.861 23.765L50.9442 23.7765L51.0275 23.7887L51.1107 23.8009L51.194 23.8132L51.2769 23.8262L51.36 23.8393L51.443 23.8523L51.5257 23.8662L51.6084 23.88L51.691 23.8939L51.7736 23.9086L51.8561 23.9232L51.9386 23.9379L52.0209 23.9534L52.1031 23.9689L52.1852 23.9844L52.2674 23.9999L52.3492 24.0162L52.4311 24.0325L52.5131 24.0496L52.5947 24.066L52.6763 24.0831L52.7578 24.101L52.8392 24.1181L52.9207 24.1361L53.002 24.1548L53.083 24.1728L53.1642 24.1915L53.2453 24.2103L53.3261 24.2299L53.4068 24.2494L53.4875 24.269L53.5682 24.2886L53.6487 24.309L53.7292 24.3294L53.8096 24.3497L53.8897 24.3709L53.9697 24.3921L54.0499 24.4133L54.1297 24.4354L54.2094 24.4574L54.2894 24.4794L54.3692 24.5014L54.4485 24.5242L54.5279 24.5471L54.6074 24.5699L54.6866 24.5936L54.7657 24.6172L54.8448 24.6409L54.9237 24.6653L55.0024 24.689L55.0812 24.7143L55.1599 24.7387L55.2384 24.764L55.3168 24.7893L55.3951 24.8146L55.4733 24.8407L55.5514 24.8659L55.6293 24.8928L55.7072 24.9189L55.7849 24.9458L55.8626 24.9728L55.9402 24.9997L56.0177 25.0274L56.0951 25.0551L56.1722 25.0829L56.2492 25.1106L56.3263 25.1391L56.4032 25.1677L56.48 25.1962L56.5567 25.2256L56.633 25.2549L56.7096 25.2843L56.7859 25.3144L56.8621 25.3438L56.9382 25.374L57.0142 25.4042L57.09 25.4351L57.1658 25.4661L57.2415 25.4971L57.3169 25.5281L57.3922 25.5599L57.4676 25.5917L57.5428 25.6235L57.6177 25.6561L57.6928 25.6887L57.7675 25.7214L57.8422 25.754L57.9168 25.7874L57.9911 25.82L58.0652 25.8535L58.1395 25.8877L58.2138 25.922L58.2876 25.9562L58.3615 25.9905L58.4351 26.0247L58.5086 26.0598L58.5823 26.0949L58.6555 26.1299L58.7287 26.1658L58.8018 26.2017L58.8748 26.2376L58.9475 26.2734L59.0201 26.3101L59.0928 26.3468L59.1652 26.3835L59.2374 26.4202L59.3097 26.4577L59.3818 26.4953L59.4538 26.5328L59.5255 26.5711L59.597 26.6086L59.6687 26.6477L59.7401 26.6861L59.8113 26.7244L59.8823 26.7635L59.9535 26.8027L60.0243 26.8418L60.0951 26.8818L60.1656 26.9217L60.236 26.9617L60.3065 27.0017L60.3767 27.0424L60.4467 27.0832L60.5166 27.124L60.5864 27.1648L60.656 27.2063L60.7257 27.2479L60.7949 27.2887L60.8642 27.3311L60.9334 27.3735L61.0022 27.4151L61.071 27.4575L61.1398 27.5007L61.2084 27.5431L61.2768 27.5864L61.345 27.6296L61.4131 27.6728L61.4811 27.7168L61.549 27.7609L61.6168 27.8049L61.6842 27.8489L61.7516 27.8938L61.819 27.9386L61.8861 27.9835L61.9531 28.0284L62.0199 28.0732L62.0866 28.1189L62.153 28.1645L62.2196 28.211L62.2859 28.2567L62.3519 28.3032L62.4179 28.3496L62.4838 28.3961L62.5494 28.4426L62.6149 28.4899L62.6802 28.5372L62.7454 28.5845L62.8107 28.6326L62.8756 28.6799L62.9403 28.728L63.005 28.7761L63.0694 28.8243L63.1338 28.8732L63.1978 28.9221L63.2619 28.971L63.3259 29.02L63.3896 29.0689L63.4532 29.1186L63.5165 29.1684L63.5798 29.2181L63.643 29.2687L63.7058 29.3184L63.7686 29.369L63.8313 29.4196L63.8938 29.4709L63.9561 29.5215L64.0183 29.5729L64.0803 29.6242L64.1422 29.6756L64.2039 29.727L64.2654 29.7792L64.3268 29.8314L64.388 29.8836L64.4492 29.9357L64.5102 29.9888L64.5708 30.0418L64.6313 30.0948L64.6919 30.1478L64.7521 30.2008L64.8121 30.2546L64.8721 30.3084L64.932 30.3622L64.9916 30.4161L65.0511 30.4707L65.1104 30.5253L65.1696 30.58L65.2286 30.6346L65.2872 30.6892L65.346 30.7447L65.4046 30.8001L65.4627 30.8548L65.5209 30.9111L65.579 30.9665L65.6368 31.0228L65.6944 31.079L65.7518 31.1353L65.8092 31.1916L65.8663 31.2487L65.9233 31.3049L65.9802 31.362L66.0369 31.4199L66.0934 31.477L66.1496 31.5341L66.2058 31.592L66.2616 31.6499L66.3175 31.7078L66.3732 31.7665L66.4287 31.8244L66.4839 31.8831L66.5389 31.9418L66.594 32.0005L66.6487 32.0601L66.7032 32.1188L66.7577 32.1783L66.812 32.2378L66.866 32.2974L66.9199 32.3577L66.9736 32.4172L67.0271 32.4776L67.0806 32.5379L67.1338 32.5983L67.1867 32.6594L67.2396 32.7198L67.2923 32.7809L67.3447 32.8421L67.397 32.9033L67.4491 32.9652L67.5011 33.0264L67.5529 33.0884L67.6045 33.1504L67.6559 33.2123L67.7071 33.2751L67.7581 33.3371L67.809 33.3999L67.8598 33.4627L67.9102 33.5255L67.9605 33.5883L68.0107 33.6519L68.0607 33.7155L68.1105 33.7783L68.16 33.8427L68.2094 33.9063L68.2586 33.9699L68.3076 34.0343L68.3565 34.0988L68.4052 34.1632L68.4536 34.2276L68.502 34.292L68.55 34.3573L68.5979 34.4225L68.6456 34.4877L68.6932 34.553L68.7405 34.6182L68.7877 34.6843L68.8347 34.7503L68.8815 34.8156L68.928 34.8816L68.9745 34.9485L69.0207 35.0145L69.0666 35.0806L69.1126 35.1475L69.1581 35.2143L69.2035 35.2812L69.2488 35.3481L69.2939 35.4157L69.3389 35.4834L69.3833 35.5503L69.4279 35.6188L69.4722 35.6865L69.5162 35.7542L69.5601 35.8227L69.6037 35.8904L69.6474 35.9589L69.6906 36.0274L69.7337 36.0967L69.7766 36.1652L69.8192 36.2337L69.8618 36.303L69.9042 36.3723L69.9462 36.4416L69.9881 36.5117L70.0298 36.5811L70.0713 36.6512L70.1126 36.7205L70.1537 36.7906L70.1947 36.8608L70.2354 36.9317L70.276 37.0018L70.3162 37.0728L70.3562 37.1429L70.3962 37.2139L70.4358 37.2848L70.4753 37.3566L70.5146 37.4275L70.5537 37.4993L70.5925 37.5702L70.6311 37.642L70.6696 37.7138L70.7079 37.7863L70.7459 37.8581L70.7839 37.9307L70.8214 38.0024L70.8588 38.075L70.896 38.1476L70.9328 38.2202L70.9698 38.2936L71.0065 38.3661L71.0427 38.4395L71.0789 38.5121L71.1148 38.5863L71.1506 38.6597L71.1861 38.7331L71.2213 38.8065L71.2565 38.8807L71.2914 38.9549L71.326 39.0283L71.3604 39.1025L71.3948 39.1775L71.4286 39.2517L71.4625 39.3268L71.4962 39.401L71.5294 39.476L71.5626 39.551L71.5956 39.626L71.6282 39.7011L71.6609 39.7769L71.6931 39.8519L71.725 39.927L71.7569 40.0028L71.7886 40.0795L71.8201 40.1545L71.8512 40.2311L71.8821 40.307L71.913 40.3836L71.9435 40.4595L71.9737 40.5361L72.0038 40.6128L72.0338 40.6894L72.0633 40.7661L72.0928 40.8436L72.122 40.9202L72.1508 40.9977L72.1795 41.0743L72.2081 41.1518L72.2364 41.2301L72.2645 41.3076L72.2923 41.385L72.3198 41.4625L72.3472 41.5408L72.3744 41.6191L72.4013 41.6974L72.428 41.7756L72.4545 41.8539L72.4807 41.9322L72.5067 42.0113L72.5324 42.0896L72.5579 42.1687L72.5833 42.2478L72.6084 42.3261L72.6332 42.4052L72.6578 42.4851L72.6822 42.5642L72.7063 42.6433L72.7303 42.7232L72.7539 42.8031L72.7774 42.8822L72.8006 42.9622L72.8236 43.0421L72.8463 43.1228L72.8688 43.2027L72.8911 43.2826L72.913 43.3626L72.9349 43.4433L72.9564 43.524L72.9777 43.6048L72.9989 43.6855L73.0196 43.7662L73.0402 43.847L73.0606 43.9285L73.0807 44.0092L73.1006 44.0908L73.1202 44.1715L73.1396 44.2531L73.1587 44.3346L73.1776 44.4162L73.1963 44.4985L73.2146 44.5801L73.2328 44.6616L73.2509 44.744L73.2685 44.8255L73.2859 44.9079L73.3031 44.9902L73.3201 45.0726L73.3367 45.155L73.3532 45.2373L73.3695 45.3197L73.3854 45.4029L73.4011 45.4852L73.4166 45.5676L73.4317 45.6508L73.4468 45.734L73.4615 45.8171L73.476 45.9003L73.4901 45.9835L73.5041 46.0667L73.5179 46.1499L73.5313 46.2338L73.5445 46.317L73.5575 46.401L73.5703 46.485L73.5827 46.569L73.5948 46.6522L73.6068 46.7362L73.6185 46.821L73.6299 46.9042L73.6411 46.989L73.6521 47.0738L73.6627 47.1578L73.6731 47.2418L73.6833 47.3266L73.6932 47.4114L73.7029 47.4954L73.7122 47.5802L73.7213 47.665L73.7302 47.7498L73.7388 47.8354L73.7473 47.9203L73.7553 48.0051L73.7632 48.0907L73.7707 48.1755L73.778 48.2611L73.7851 48.3467L73.7918 48.4316L73.7984 48.5172L73.8047 48.6028L73.8107 48.6884L73.8164 48.7741L73.8219 48.8605L73.8271 48.9461L73.8321 49.0317L73.8367 49.1182L73.8411 49.2038L73.8453 49.2894L73.8492 49.3759L73.8528 49.4623L73.8562 49.5479L73.8593 49.6352L73.8621 49.7216L73.8647 49.8081L73.867 49.8945L73.869 49.981L73.8707 50.0674L73.8722 50.1538L73.8734 50.2411L73.8744 50.3275L73.875 50.4148L73.8754 50.5012L73.8756 50.5901L73.8754 50.6855L73.8746 50.7834L73.8736 50.8804L73.872 50.9775L73.87 51.0745L73.8676 51.1716L73.8647 51.2694L73.8614 51.3665L73.8577 51.4635L73.8536 51.5605L73.8491 51.6576L73.8441 51.7554L73.8387 51.8525L73.8329 51.9495L73.8268 52.0466L73.8201 52.1436L73.8131 52.2406L73.8057 52.3385L73.798 52.4355L73.7898 52.5326L73.7812 52.6296L73.7723 52.7267L73.763 52.8245L73.7532 52.9216L73.7432 53.0186L73.7327 53.1156L73.7219 53.2127L73.7107 53.3097L73.6992 53.4068L73.6872 53.5038L73.675 53.6009L73.6623 53.6987L73.6492 53.7958L73.6359 53.892L73.6222 53.989L73.6081 54.0869L73.5937 54.1839L73.5789 54.281L73.5639 54.378L73.5484 54.475L73.5326 54.5721L73.5165 54.6691L73.5001 54.7662L73.4833 54.8632L73.4662 54.9603L73.4488 55.0573L73.431 55.1543L73.413 55.2514L73.3945 55.3484L73.3759 55.4455L73.3569 55.5425L73.3375 55.6395L73.3178 55.7374L73.2978 55.8344L73.2776 55.9307L73.257 56.0277L73.2361 56.1248L73.2149 56.2226L73.1934 56.3197L73.1717 56.4159L73.1495 56.5137L73.1272 56.6108L73.1045 56.7078L73.0816 56.8049L73.0583 56.9019L73.0346 56.9989L73.0109 57.096L72.9868 57.193L72.9624 57.2901L72.9377 57.3871L72.9127 57.4842L72.8875 57.5812L72.862 57.6782L72.8363 57.7753L72.8102 57.8723L72.7838 57.9694L72.7573 58.0664L72.7304 58.1634L72.7032 58.2605L72.6759 58.3575L72.6481 58.4546L72.6202 58.5516L72.5921 58.6487L72.5637 58.7457L72.535 58.8427L72.506 58.9398L72.4768 59.0368L72.4473 59.1347L72.4176 59.2317L72.3877 59.3279L72.3574 59.425L72.327 59.522L72.2963 59.6191L72.2654 59.7161L72.2342 59.8132L72.2028 59.911L72.171 60.0081L72.1391 60.1051L72.1071 60.2021L72.0747 60.2984L72.0421 60.3954L72.0091 60.4933L71.9761 60.5903L71.9429 60.6865L71.9093 60.7844L71.8755 60.8814L71.8416 60.9777L71.8074 61.0747L71.7729 61.1717L71.7383 61.2688L71.7035 61.3658L71.6685 61.4629L71.6332 61.5599L71.5975 61.6569L71.5618 61.754L71.5258 61.851L71.4897 61.9481L71.4533 62.0451L71.4167 62.1422L71.38 62.2384L71.343 62.3354L71.3057 62.4325L71.2683 62.5295L71.2308 62.6265L71.1929 62.7236L71.1549 62.8198L71.1168 62.9169L71.0783 63.0139L71.0397 63.1109L71.0009 63.208L70.9619 63.3042L70.9227 63.4012L70.8833 63.4983L70.8438 63.5945L70.8039 63.6916L70.764 63.7886L70.7239 63.8848L70.6836 63.9819L70.6431 64.0789L70.6024 64.1751L70.5615 64.2722L70.5204 64.3684L70.4791 64.4654L70.4378 64.5617L70.3962 64.6587L70.3544 64.7549L70.3125 64.852L70.2704 64.9482L70.2281 65.0452L70.1856 65.1415L70.1429 65.2377L70.1001 65.3339L70.0572 65.431L70.0141 65.5272L69.9707 65.6234L69.9273 65.7196L69.8836 65.8167L69.8398 65.9129L69.796 66.0091L69.7518 66.1054L69.7076 66.2016L69.6631 66.2978L69.6185 66.394L69.5737 66.4903L69.5288 66.5865L69.4838 66.6827L69.4387 66.7781L69.3933 66.8744L69.3477 66.9706L69.3021 67.066L69.2563 67.1622L69.2104 67.2585L69.1643 67.3539L69.1181 67.4501L69.0717 67.5455L69.0251 67.6417L68.9786 67.7371L68.9317 67.8334L68.8848 67.9288L68.8377 68.0242L68.7905 68.1196L68.7432 68.2158L68.6957 68.3112L68.6481 68.4066L68.6004 68.5021L68.5525 68.5975L68.5045 68.6929L68.4564 68.7883L68.4081 68.8829L68.3598 68.9783L68.3113 69.0737L68.2627 69.1683L68.2139 69.2637L68.1644 69.3599L68.067 69.5491L67.9685 69.7383L67.8694 69.9283L67.77 70.1175L67.67 70.3067L67.5697 70.4951L67.4689 70.6843L67.3677 70.8726L67.2661 71.061L67.1642 71.2486L67.0618 71.4361L66.959 71.6237L66.8558 71.8113L66.7524 71.998L66.6485 72.1847L66.5443 72.3707L66.4397 72.5574L66.3349 72.7425L66.2297 72.9285L66.1242 73.1136L66.0184 73.2987L65.9124 73.483L65.806 73.6673L65.6993 73.8516L65.5924 74.0351L65.4853 74.2185L65.3779 74.4012L65.2703 74.5839L65.1623 74.7665L65.0543 74.9484L64.9481 75.1262L64.4327 75.8324L63.7963 76.4317L63.0606 76.9047L62.2506 77.2342L61.3938 77.4087L60.5196 77.4234L59.6575 77.2766L58.837 76.974L58.0861 76.5263L57.4303 75.9482L56.8919 75.2591L56.4893 74.4828L56.2362 73.6461L56.1412 72.7768L56.2075 71.905L56.4329 71.0594L56.8097 70.2708L56.9117 70.0996L57.0113 69.9324L57.1105 69.7644L57.2095 69.5964L57.3082 69.4284L57.4067 69.2596L57.5048 69.0916L57.6026 68.9228L57.6999 68.754L57.797 68.5852L57.8938 68.4156L57.9902 68.2468L58.0862 68.0772L58.1817 67.9076L58.277 67.738L58.3718 67.5691L58.4662 67.3995L58.5602 67.2291L58.6538 67.0595L58.7469 66.8899L58.8396 66.7194L58.9318 66.5498L59.0235 66.3802L59.1148 66.2097L59.2056 66.0401L59.2959 65.8697L59.3857 65.7001L59.475 65.5296L59.5637 65.36L59.652 65.1904L59.7404 65.0192L59.7834 64.9352L59.8268 64.8503L59.8703 64.7655L59.9134 64.6807L59.9566 64.5959L59.9995 64.5111L60.0423 64.4263L60.085 64.3415L60.1275 64.2567L60.1699 64.1727L60.212 64.0879L60.2541 64.0031L60.296 63.9183L60.3377 63.8343L60.3793 63.7495L60.4209 63.6646L60.4621 63.5807L60.5033 63.4958L60.5443 63.4119L60.5851 63.327L60.6258 63.243L60.6663 63.1591L60.7066 63.0742L60.7467 62.9902L60.7867 62.9063L60.8267 62.8223L60.8662 62.7383L60.9058 62.6543L60.9452 62.5703L60.9843 62.4863L61.0233 62.4023L61.0621 62.3183L61.1007 62.2351L61.1393 62.1511L61.1776 62.0679L61.2157 61.984L61.2537 61.9008L61.2914 61.8176L61.329 61.7336L61.3664 61.6504L61.4037 61.5672L61.4408 61.4841L61.4776 61.4009L61.5143 61.3177L61.5508 61.2353L61.5871 61.1522L61.6231 61.0698L61.6591 60.9866L61.6948 60.9043L61.7304 60.8219L61.7658 60.7387L61.8009 60.6572L61.8358 60.5748L61.8706 60.4924L61.9052 60.4101L61.9395 60.3277L61.9737 60.2462L62.0077 60.1638L62.0414 60.0823L62.075 60.0007L62.1084 59.9192L62.1415 59.8376L62.1745 59.7561L62.2073 59.6745L62.2397 59.5938L62.2721 59.5131L62.3041 59.4315L62.3361 59.3508L62.3678 59.27L62.3993 59.1893L62.4305 59.1086L62.4616 59.0279L62.4924 58.9479L62.523 58.868L62.5534 58.7881L62.5836 58.7082L62.6135 58.6283L62.6432 58.5484L62.6728 58.4684L62.7021 58.3893L62.7311 58.3102L62.7599 58.2311L62.7886 58.1512L62.817 58.0721L62.8452 57.9938L62.8731 57.9147L62.9008 57.8364L62.9283 57.7573L62.9556 57.6799L62.9824 57.6016L63.0093 57.5233L63.0359 57.445L63.0621 57.3675L63.0881 57.2901L63.114 57.2126L63.1397 57.1351L63.1651 57.0585L63.1901 56.981L63.215 56.9044L63.2396 56.8277L63.264 56.751L63.2881 56.6752L63.312 56.5985L63.3357 56.5227L63.3591 56.4469L63.3823 56.371L63.4052 56.296L63.4279 56.2202L63.4503 56.1451L63.4725 56.0701L63.4943 55.9951L63.5161 55.9209L63.5376 55.8459L63.5587 55.7725L63.5796 55.6983L63.6002 55.6241L63.6207 55.5507L63.6408 55.4765L63.6608 55.4031L63.6804 55.3305L63.6997 55.2571L63.7189 55.1845L63.7377 55.1119L63.7563 55.0394L63.7746 54.9676L63.7927 54.8958L63.8106 54.8233L63.8282 54.7515L63.8454 54.6806L63.8625 54.6096L63.8792 54.5387L63.8958 54.4677L63.9121 54.3976L63.928 54.3274L63.9438 54.2573L63.9593 54.1872L63.9744 54.1179L63.9894 54.0486L64.0039 53.9792L64.0184 53.9099L64.0325 53.8414L64.0463 53.7729L64.06 53.7052L64.0732 53.6376L64.0863 53.5699L64.0992 53.5022L64.1116 53.4345L64.1239 53.3676L64.1359 53.3008L64.1476 53.2347L64.1591 53.1687L64.1702 53.1018L64.1811 53.0365L64.1917 52.9713L64.2021 52.9061L64.2122 52.8408L64.2221 52.7764L64.2316 52.712L64.2408 52.6484L64.2499 52.584L64.2587 52.5204L64.2671 52.4567L64.2754 52.394L64.2833 52.3312L64.291 52.2692L64.2984 52.2064L64.3056 52.1444L64.3124 52.0833L64.319 52.0221L64.3253 51.9609L64.3314 51.8998L64.3372 51.8394L64.3427 51.7791L64.348 51.7196L64.353 51.66L64.3578 51.6005L64.3622 51.5418L64.3664 51.4831L64.3704 51.4244L64.3741 51.3673L64.3776 51.3094L64.3807 51.2515L64.3836 51.1952L64.3863 51.1381L64.3886 51.0819L64.3908 51.0256L64.3927 50.9693L64.3943 50.9147L64.3957 50.8592L64.3969 50.8046L64.3977 50.75L64.3983 50.6953L64.3987 50.6423L64.3989 50.5869L64.3988 50.5306L64.3985 50.4735L64.398 50.4164L64.3974 50.3585L64.3966 50.3014L64.3956 50.2444L64.3944 50.1873L64.3931 50.1302L64.3916 50.0731L64.39 50.016L64.3881 49.9589L64.386 49.9027L64.3838 49.8456L64.3815 49.7885L64.3789 49.7322L64.3762 49.6752L64.3732 49.6189L64.3702 49.5626L64.3669 49.5055L64.3635 49.4493L64.3599 49.393L64.3561 49.3367L64.3521 49.2805L64.348 49.2242L64.3438 49.1679L64.3392 49.1117L64.3347 49.0562L64.3299 48.9999L64.3249 48.9437L64.3198 48.8882L64.3145 48.832L64.309 48.7765L64.3033 48.7211L64.2975 48.6648L64.2915 48.6093L64.2854 48.5539L64.279 48.4984L64.2725 48.443L64.2659 48.3883L64.2591 48.3329L64.2521 48.2766L64.2449 48.222L64.2376 48.1673L64.2301 48.1119L64.2225 48.0564L64.2147 48.0018L64.2067 47.9472L64.1985 47.8917L64.1902 47.8371L64.1818 47.7824L64.1731 47.7278L64.1644 47.6732L64.1554 47.6193L64.1462 47.5647L64.1368 47.5101L64.1274 47.4554L64.1178 47.4016L64.1081 47.3478L64.0981 47.2932L64.088 47.2385L64.0778 47.1847L64.0673 47.1309L64.0568 47.0771L64.0461 47.0232L64.0351 46.9694L64.024 46.9156L64.0128 46.8618L64.0014 46.8079L63.9898 46.7541L63.9782 46.7011L63.9664 46.6481L63.9543 46.5943L63.9421 46.5413L63.9297 46.4875L63.9174 46.4353L63.9047 46.3815L63.8918 46.3284L63.8789 46.2754L63.8658 46.2224L63.8525 46.1702L63.8391 46.1172L63.8255 46.0642L63.8118 46.012L63.7978 45.959L63.7838 45.9068L63.7697 45.8547L63.7553 45.8016L63.7408 45.7495L63.7261 45.6973L63.7112 45.6451L63.6964 45.5929L63.6812 45.5415L63.6659 45.4893L63.6505 45.4371L63.635 45.3858L63.6191 45.3336L63.6033 45.2822L63.5874 45.2308L63.5711 45.1786L63.5547 45.1272L63.5382 45.0759L63.5217 45.0245L63.5048 44.9731L63.4879 44.9217L63.4708 44.8704L63.4536 44.8198L63.4362 44.7693L63.4186 44.7179L63.401 44.6673L63.3832 44.6168L63.3651 44.5654L63.347 44.5148L63.3288 44.4643L63.3104 44.4137L63.2919 44.364L63.2732 44.3134L63.2542 44.2628L63.2352 44.2131L63.2161 44.1625L63.1968 44.1128L63.1773 44.0622L63.1578 44.0133L63.138 43.9628L63.1181 43.913L63.0981 43.8633L63.0779 43.8143L63.0577 43.7646L63.0371 43.7148L63.0166 43.6659L62.996 43.617L62.975 43.5672L62.9538 43.5175L62.9328 43.4694L62.9114 43.4196L62.89 43.3707L62.8685 43.3226L62.8466 43.2737L62.8249 43.2247L62.8029 43.1766L62.7807 43.1277L62.7584 43.0796L62.736 43.0315L62.7133 42.9825L62.6907 42.9344L62.6679 42.8863L62.6448 42.8382L62.6217 42.7909L62.5984 42.7428L62.575 42.6947L62.5514 42.6474L62.5277 42.5993L62.5039 42.552L62.4802 42.5047L62.4559 42.4574L62.4316 42.4101L62.4073 42.3628L62.3827 42.3155L62.3582 42.269L62.3334 42.2217L62.3086 42.1752L62.2835 42.1279L62.2583 42.0814L62.2329 42.035L62.2074 41.9885L62.182 41.942L62.1562 41.8955L62.1303 41.849L62.1045 41.8034L62.0783 41.7569L62.0519 41.7112L62.0256 41.6647L61.9991 41.6191L61.9726 41.5742L61.9458 41.5286L61.9188 41.4829L61.8918 41.4372L61.8647 41.3916L61.8373 41.3467L61.8099 41.301L61.7823 41.2562L61.7548 41.2113L61.7269 41.1665L61.699 41.1216L61.6708 41.0768L61.6426 41.0319L61.6144 40.9879L61.5859 40.943L61.5573 40.8982L61.5286 40.8542L61.4997 40.8101L61.4709 40.7661L61.4416 40.722L61.4124 40.678L61.3832 40.6348L61.3537 40.5908L61.3241 40.5467L61.2944 40.5035L61.2646 40.4603L61.2346 40.4171L61.2044 40.3738L61.1743 40.3306L61.144 40.2874L61.1134 40.2442L61.083 40.2018L61.0523 40.1594L61.0213 40.1161L60.9904 40.0737L60.9594 40.0313L60.9281 39.9889L60.8968 39.9465L60.8654 39.9049L60.8338 39.8625L60.8022 39.8201L60.7704 39.7785L60.7385 39.737L60.7065 39.6954L60.6742 39.6538L60.6419 39.6122L60.6096 39.5714L60.5771 39.5298L60.5446 39.489L60.5117 39.4475L60.4788 39.4067L60.4459 39.3659L60.4128 39.3251L60.3795 39.2844L60.3462 39.2436L60.3127 39.2036L60.2792 39.1629L60.2455 39.1229L60.2117 39.0829L60.1778 39.043L60.1438 39.003L60.1096 38.9631L60.0754 38.9231L60.0411 38.884L60.0065 38.8448L59.9719 38.8049L59.9373 38.7657L59.9025 38.7266L59.8675 38.6874L59.8325 38.6491L59.7973 38.61L59.762 38.5716L59.7268 38.5325L59.6912 38.4942L59.6555 38.4558L59.62 38.4175L59.5841 38.3792L59.5481 38.3417L59.5121 38.3033L59.476 38.2658L59.4398 38.2283L59.4033 38.19L59.3669 38.1533L59.3303 38.1158L59.2936 38.0783L59.2568 38.0408L59.2199 38.0041L59.183 37.9674L59.1459 37.9307L59.1087 37.894L59.0712 37.8573L59.0338 37.8206L58.9963 37.7839L58.9587 37.748L58.9211 37.7121L58.883 37.6754L58.8452 37.6404L58.8072 37.6045L58.7689 37.5686L58.7306 37.5327L58.6923 37.4977L58.6539 37.4626L58.6153 37.4275L58.5767 37.3925L58.5379 37.3574L58.4991 37.3223L58.46 37.2873L58.4209 37.253L58.3819 37.2188L58.3425 37.1845L58.3031 37.1503L58.2636 37.116L58.2241 37.0818L58.1844 37.0483L58.1447 37.0141L58.1048 36.9806L58.0649 36.9472L58.0247 36.9138L57.9845 36.8803L57.9444 36.8477L57.904 36.8143L57.8635 36.7817L57.8231 36.749L57.7824 36.7156L57.7415 36.6838L57.7008 36.6512L57.6599 36.6186L57.6188 36.5868L57.5777 36.555L57.5365 36.5223L57.4953 36.4914L57.4539 36.4596L57.4123 36.4277L57.3708 36.3968L57.3292 36.365L57.2873 36.334L57.2454 36.303L57.2035 36.272L57.1616 36.2418L57.1193 36.2108L57.0771 36.1807L57.0348 36.1497L56.9923 36.1195L56.9499 36.0893L56.9075 36.06L56.8646 36.0298L56.8219 36.0004L56.7791 35.9703L56.7362 35.9409L56.6931 35.9116L56.65 35.8822L56.6067 35.8537L56.5634 35.8243L56.5203 35.7958L56.4767 35.7672L56.433 35.7387L56.3895 35.7101L56.3458 35.6816L56.302 35.6539L56.2581 35.6253L56.214 35.5976L56.1699 35.5699L56.1258 35.5421L56.0817 35.5144L56.0374 35.4875L55.9929 35.4598L55.9486 35.4329L55.904 35.406L55.8592 35.3791L55.8147 35.353L55.7698 35.326L55.7249 35.2999L55.6799 35.2739L55.6349 35.2478L55.5897 35.2217L55.5446 35.1956L55.4992 35.1695L55.4538 35.1442L55.4084 35.1189L55.3629 35.0936L55.3174 35.0684L55.2715 35.0431L55.2257 35.0186L55.1798 34.9933L55.1341 34.9689L55.088 34.9444L55.0419 34.9199L54.9958 34.8963L54.9496 34.8718L54.9033 34.8482L54.8568 34.8245L54.8104 34.8009L54.7639 34.7772L54.7173 34.7536L54.6705 34.7307L54.6237 34.7079L54.577 34.6851L54.53 34.6623L54.4829 34.6394L54.436 34.6166L54.3889 34.5946L54.3415 34.5725L54.2942 34.5505L54.2468 34.5285L54.1996 34.5065L54.1522 34.4853L54.1044 34.4633L54.0567 34.4421L54.009 34.4209L53.9611 34.3997L53.9133 34.3785L53.8655 34.3581L53.8173 34.3377L53.7693 34.3173L53.7213 34.2969L53.673 34.2765L53.6246 34.2561L53.5762 34.2366L53.5279 34.217L53.4793 34.1974L53.4308 34.1779L53.3821 34.1583L53.3334 34.1395L53.2847 34.1208L53.236 34.102L53.1868 34.0824L53.1379 34.0645L53.0888 34.0457L53.0397 34.0278L52.9907 34.0099L52.9412 33.9919L52.8918 33.974L52.8426 33.956L52.7931 33.9389L52.7437 33.921L52.6941 33.9039L52.6444 33.8867L52.5946 33.8704L52.5449 33.8533L52.4949 33.837L52.445 33.8207L52.395 33.8044L52.3451 33.7881L52.295 33.7717L52.2448 33.7563L52.1947 33.7408L52.1443 33.7253L52.0938 33.7098L52.0435 33.6943L51.993 33.6796L51.9424 33.6641L51.8919 33.6494L51.8412 33.6356L51.7902 33.6209L51.7396 33.6062L51.6889 33.5923L51.6378 33.5785L51.5868 33.5646L51.5359 33.5508L51.4846 33.5377L51.4333 33.5238L51.3822 33.5108L51.3309 33.4977L51.2796 33.4847L51.2283 33.4725L51.1768 33.4594L51.1252 33.4472L51.0735 33.435L51.0219 33.4235L50.9704 33.4113L50.9184 33.3991L50.8665 33.3877L50.8149 33.3762L50.7628 33.3648L50.7108 33.3542L50.6586 33.3428L50.6064 33.3322L50.5544 33.3216L50.5022 33.311L50.4498 33.3012L50.3975 33.2906L50.345 33.2808L50.2925 33.271L50.24 33.2613L50.1874 33.2515L50.1349 33.2425L50.0822 33.2335L50.0294 33.2246L49.9765 33.2156L49.9236 33.2066L49.8707 33.1985L49.8178 33.1903L49.7646 33.1813L49.7116 33.174L49.6584 33.1659L49.6052 33.1585L49.5518 33.1504L49.4985 33.143L49.4453 33.1357L49.3919 33.1292L49.3382 33.1226L49.2847 33.1153L49.2312 33.1088L49.1775 33.1031L49.1237 33.0965L49.0699 33.0908L49.0162 33.0851L48.9623 33.0786L48.9082 33.0737L48.8542 33.068L48.8004 33.0631L48.7463 33.0582L48.692 33.0533L48.6378 33.0484L48.5836 33.0443L48.5293 33.0394L48.4749 33.0354L48.4205 33.0313L48.366 33.028L48.3116 33.024L48.2569 33.0207L48.2023 33.0174L48.1476 33.0142L48.0928 33.0117L48.038 33.0085L47.9833 33.006L47.9284 33.0036L47.8734 33.0019L47.8183 32.9995L47.7634 32.9979L47.7082 32.9962L47.653 32.9946L47.598 32.993L47.5426 32.9921L47.4871 32.9913L47.4319 32.9905L47.3766 32.9897L47.3211 32.9889H47.2654H47.2099H47.1545H47.0987L47.0432 32.9897L46.988 32.9905L46.9327 32.9913L46.8772 32.9921L46.8219 32.993L46.7668 32.9946L46.7116 32.9962L46.6564 32.9979L46.6016 32.9995L46.5464 33.0019L46.4914 33.0036L46.4366 33.006L46.3818 33.0085L46.327 33.0117L46.2722 33.0142L46.2175 33.0174L46.1629 33.0207L46.1082 33.024L46.0538 33.028L45.9993 33.0313L45.9449 33.0354L45.8905 33.0394L45.8362 33.0443L45.782 33.0484L45.7278 33.0533L45.6736 33.0582L45.6194 33.0631L45.5656 33.068L45.5116 33.0737L45.4574 33.0786L45.4036 33.0851L45.3498 33.0908L45.2961 33.0965L45.2423 33.1031L45.1886 33.1088L45.1351 33.1153L45.0816 33.1226L45.0279 33.1292L44.9745 33.1357L44.9214 33.143L44.8679 33.1504L44.8147 33.1585L44.7614 33.1659L44.7082 33.174L44.6552 33.1813L44.6021 33.1903L44.5491 33.1985L44.4963 33.2066L44.4433 33.2156L44.3905 33.2246L44.3377 33.2335L44.285 33.2425L44.2324 33.2515L44.1797 33.2613L44.1273 33.271L44.0748 33.2808L44.0223 33.2906L43.9701 33.3012L43.9176 33.311L43.8654 33.3216L43.8134 33.3322L43.7612 33.3428L43.709 33.3542L43.657 33.3648L43.6049 33.3762L43.5532 33.3877L43.5015 33.3991L43.4495 33.4113L43.3978 33.4235L43.3463 33.435L43.2946 33.4472L43.243 33.4594L43.1915 33.4725L43.1401 33.4847L43.0889 33.4977L43.0376 33.5108L42.9865 33.5238L42.9352 33.5377L42.8839 33.5508L42.833 33.5646L42.782 33.5785L42.7309 33.5923L42.6803 33.6062L42.6296 33.6209L42.5786 33.6356L42.5278 33.6494L42.4774 33.6641L42.4269 33.6796L42.3763 33.6943L42.326 33.7098L42.2755 33.7253L42.2252 33.7408L42.175 33.7563L42.1249 33.7717L42.0747 33.7881L42.0247 33.8044L41.9748 33.8207L41.9249 33.837L41.875 33.8533L41.8252 33.8704L41.7754 33.8867L41.7257 33.9039L41.6761 33.921L41.6267 33.9389L41.5773 33.956L41.528 33.974L41.4786 33.9919L41.4291 34.0099L41.3801 34.0278L41.331 34.0457L41.2819 34.0645L41.233 34.0824L41.1839 34.102L41.1352 34.1208L41.0864 34.1395L41.0378 34.1583L40.9891 34.1779L40.9405 34.1974L40.8919 34.217L40.8436 34.2366L40.7953 34.2561L40.7468 34.2765L40.6986 34.2969L40.6505 34.3173L40.6024 34.3377L40.5544 34.3581L40.5065 34.3785L40.4587 34.3997L40.4109 34.4209L40.363 34.4421L40.3154 34.4633L40.2677 34.4853L40.2202 34.5065L40.173 34.5285L40.1256 34.5505L40.0782 34.5725L40.031 34.5946L39.9839 34.6166L39.937 34.6394L39.8898 34.6623L39.8428 34.6851L39.7961 34.7079L39.7494 34.7307L39.7026 34.7536L39.656 34.7772L39.6094 34.8009L39.563 34.8245L39.5165 34.8482L39.4703 34.8718L39.424 34.8963L39.3779 34.9199L39.3318 34.9444L39.2858 34.9689L39.2399 34.9933L39.194 35.0186L39.1483 35.0431L39.1025 35.0684L39.0569 35.0936L39.0114 35.1189L38.966 35.1442L38.9206 35.1695L38.8752 35.1956L38.8301 35.2217L38.785 35.2478L38.74 35.2739L38.6949 35.2999L38.65 35.326L38.6053 35.353L38.5605 35.3791L38.5158 35.406L38.4713 35.4329L38.4269 35.4598L38.3823 35.4875L38.3381 35.5144L38.2939 35.5421L38.2499 35.5699L38.2057 35.5976L38.1616 35.6253L38.1179 35.6539L38.074 35.6816L38.0303 35.7101L37.9868 35.7387L37.9431 35.7672L37.8995 35.7958L37.8564 35.8243L37.813 35.8537L37.7698 35.8822L37.7267 35.9116L37.6836 35.9409L37.6408 35.9703L37.598 35.9996L37.5553 36.0298L37.5123 36.06L37.4698 36.0893L37.4274 36.1195L37.3851 36.1497L37.3427 36.1807L37.3004 36.2108L37.2582 36.2418L37.2163 36.272L37.1744 36.303L37.1326 36.334L37.0906 36.365L37.049 36.3968L37.0075 36.4277L36.966 36.4596L36.9245 36.4914L36.8833 36.5223L36.8421 36.555L36.8009 36.5868L36.7599 36.6186L36.7191 36.6512L36.6782 36.6838L36.6374 36.7164L36.5968 36.749L36.5563 36.7817L36.5159 36.8143L36.4755 36.8469L36.4352 36.8803L36.395 36.9138L36.355 36.9472L36.315 36.9806L36.2752 37.0141L36.2354 37.0483L36.1956 37.0818L36.1561 37.116L36.1167 37.1503L36.0773 37.1845L36.0381 37.2188L35.9989 37.253L35.9598 37.2873L35.9208 37.3223L35.8819 37.3574L35.8431 37.3925L35.8045 37.4275L35.766 37.4626L35.7275 37.4977L35.6891 37.5327L35.6509 37.5686L35.6127 37.6045L35.5746 37.6404L35.5367 37.6762L35.4988 37.7121L35.4612 37.748L35.4235 37.7839L35.3859 37.8206L35.3485 37.8573L35.3112 37.894L35.274 37.9307L35.237 37.9674L35.1998 38.0041L35.163 38.0408L35.1262 38.0783L35.0895 38.1158L35.053 38.1525L35.0165 38.19L34.98 38.2283L34.9438 38.2658L34.9077 38.3033L34.8717 38.3417L34.8357 38.3792L34.7998 38.4175L34.7642 38.4558L34.7287 38.4942L34.6931 38.5325L34.6578 38.5716L34.6224 38.61L34.5873 38.6491L34.5524 38.6874L34.5173 38.7266L34.4825 38.7657L34.4479 38.8049L34.4132 38.8448L34.3787 38.884L34.3444 38.9231L34.3102 38.9631L34.2759 39.003L34.2419 39.043L34.2081 39.0829L34.1743 39.1229L34.1406 39.1629L34.1071 39.2036L34.0737 39.2436L34.0403 39.2844L34.007 39.3251L33.9739 39.3659L33.9409 39.4067L33.9082 39.4475L33.8753 39.4882L33.8427 39.5298L33.8102 39.5714L33.7778 39.6122L33.7455 39.6538L33.7134 39.6954L33.6814 39.737L33.6494 39.7785L33.6176 39.8201L33.586 39.8625L33.5544 39.9049L33.523 39.9465L33.4917 39.9889L33.4604 40.0313L33.4294 40.0737L33.3984 40.1161L33.3675 40.1594L33.3368 40.2018L33.3065 40.2442L33.2759 40.2874L33.2454 40.3306L33.2154 40.3738L33.1853 40.4171L33.1552 40.4603L33.1254 40.5035L33.0957 40.5467L33.0661 40.5908L33.0366 40.6348L33.0074 40.678L32.9782 40.722L32.9489 40.7661L32.9201 40.8101L32.8913 40.8542L32.8625 40.8982L32.8339 40.943L32.8054 40.9879L32.7771 41.0319L32.7489 41.0768L32.7208 41.1216L32.6929 41.1665L32.6651 41.2113L32.6375 41.2562L32.61 41.301L32.5825 41.3467L32.5551 41.3916L32.528 41.4372L32.501 41.4829L32.474 41.5286L32.4471 41.5742L32.4206 41.6191L32.3942 41.6647L32.3678 41.7112L32.3416 41.7569L32.3154 41.8034L32.2894 41.8499L32.2636 41.8955L32.2378 41.942L32.2124 41.9885L32.1869 42.035L32.1615 42.0814L32.1364 42.1279L32.1113 42.1752L32.0865 42.2217L32.0617 42.269L32.037 42.3155L32.0125 42.3628L31.9882 42.4101L31.964 42.4574L31.9397 42.5047L31.9159 42.552L31.8921 42.5993L31.8683 42.6474L31.8448 42.6947L31.8215 42.7428L31.7981 42.7909L31.775 42.8382L31.752 42.8863L31.7292 42.9344L31.7065 42.9825L31.6839 43.0315L31.6615 43.0796L31.6392 43.1277L31.617 43.1766L31.5949 43.2247L31.5731 43.2737L31.5514 43.3226L31.5298 43.3707L31.5083 43.4196L31.487 43.4694L31.4659 43.5183L31.4448 43.5672L31.4239 43.6162L31.4032 43.6659L31.3826 43.7148L31.3622 43.7646L31.3419 43.8143L31.3217 43.8633L31.3017 43.913L31.2818 43.9628L31.262 44.0125L31.2425 44.0622L31.2231 44.1128L31.2037 44.1625L31.1846 44.2131L31.1656 44.2628L31.1467 44.3134L31.128 44.364L31.1094 44.4137L31.091 44.4643L31.0727 44.5148L31.0547 44.5654L31.0367 44.6159L31.0189 44.6673L31.0011 44.7179L30.9836 44.7693L30.9663 44.8198L30.949 44.8712L30.9319 44.9217L30.915 44.9731L30.8982 45.0245L30.8816 45.0759L30.8651 45.1272L30.8487 45.1786L30.8325 45.2308L30.8165 45.2822L30.8006 45.3336L30.7848 45.3858L30.7693 45.4371L30.7539 45.4893L30.7387 45.5415L30.7235 45.5929L30.7086 45.6451L30.6937 45.6973L30.679 45.7495L30.6646 45.8016L30.6502 45.8547L30.636 45.9068L30.622 45.959L30.608 46.012L30.5942 46.065L30.5807 46.1172L30.5674 46.1702L30.554 46.2224L30.541 46.2754L30.5279 46.3284L30.5151 46.3815L30.5025 46.4345L30.49 46.4875L30.4776 46.5413L30.4655 46.5943L30.4535 46.6481L30.4416 46.7011L30.4299 46.7549L30.4184 46.8079L30.407 46.8618L30.3958 46.9156L30.3847 46.9694L30.3738 47.0232L30.363 47.0771L30.3524 47.1309L30.3421 47.1847L30.3318 47.2385L30.3217 47.2932L30.3117 47.347L30.302 47.4016L30.2923 47.4554L30.283 47.5101L30.2736 47.5647L30.2645 47.6193L30.2555 47.6732L30.2467 47.7278L30.2381 47.7824L30.2296 47.8371L30.2213 47.8917L30.2131 47.9472L30.2052 48.0018L30.1973 48.0564L30.1897 48.1119L30.1822 48.1665L30.1749 48.222L30.1677 48.2774L30.1607 48.3329L30.1539 48.3875L30.1473 48.443L30.1408 48.4984L30.1345 48.5539L30.1283 48.6093L30.1223 48.6648L30.1165 48.7211L30.1108 48.7765L30.1053 48.832L30.1 48.8882L30.0949 48.9437L30.09 48.9999L30.0852 49.0562L30.0805 49.1117L30.0761 49.1679L30.0717 49.2242L30.0677 49.2805L30.0637 49.3367L30.0599 49.393L30.0563 49.4493L30.0529 49.5055L30.0497 49.5626L30.0466 49.6189L30.0436 49.6752L30.041 49.7322L30.0383 49.7885L30.036 49.8456L30.0338 49.9027L30.0317 49.9589L30.0299 50.016L30.0282 50.0731L30.0267 50.1302L30.0254 50.1873L30.0242 50.2444L30.0232 50.3014L30.0224 50.3585L30.0218 50.4164L30.0213 50.4735L30.0211 50.5314L30.021 50.5885V50.6203L30.0212 50.6529L30.0214 50.6847L30.0217 50.7173L30.0221 50.75L30.0226 50.7826L30.0232 50.8152L30.0239 50.8478L30.0246 50.8804L30.0254 50.9106L30.0275 50.9807L30.0298 51.0476L30.0326 51.1153L30.0356 51.183L30.0391 51.2515L30.0429 51.32L30.0471 51.3893L30.0517 51.4594L30.0567 51.5296L30.062 51.5997L30.0678 51.6714L30.0738 51.7424L30.0803 51.8142L30.0872 51.8867L30.0944 51.9593L30.102 52.0327L30.11 52.1061L30.1184 52.1803L30.1272 52.2545L30.1364 52.3295L30.1459 52.4054L30.1559 52.4804L30.1662 52.557L30.1769 52.6329L30.188 52.7104L30.1994 52.787L30.2113 52.8653L30.2235 52.9428L30.2362 53.0219L30.2492 53.1002L30.2626 53.1793L30.2764 53.2592L30.2906 53.3383L30.3052 53.419L30.3203 53.4997L30.3356 53.5805L30.3513 53.6612L30.3675 53.7436L30.384 53.8251L30.4008 53.9075L30.4181 53.9898L30.4358 54.073L30.4538 54.1562L30.4723 54.2402L30.4911 54.3242L30.5102 54.4082L30.5298 54.493L30.5498 54.5778L30.5701 54.6626L30.5908 54.7482L30.6118 54.8339L30.6333 54.9203L30.6552 55.0067L30.6773 55.0932L30.6999 55.1804L30.7229 55.2677L30.7462 55.3549L30.7699 55.443L30.7939 55.5311L30.8183 55.6192L30.8431 55.708L30.8683 55.7969L30.8938 55.8858L30.9197 55.9755L30.9459 56.0652L30.9725 56.1549L30.9995 56.2454L31.0268 56.336L31.0545 56.4265L31.0825 56.5178L31.1109 56.6083L31.1396 56.7005L31.1687 56.7918L31.1981 56.884L31.2279 56.9761L31.258 57.0683L31.2885 57.1604L31.3193 57.2534L31.3505 57.3463L31.3819 57.4393L31.4138 57.5331L31.446 57.626L31.4784 57.7198L31.5113 57.8144L31.5444 57.9082L31.578 58.0028L31.6118 58.0974L31.6459 58.192L31.6804 58.2874L31.7152 58.382L31.7503 58.4774L31.7857 58.5728L31.8215 58.669L31.8577 58.7645L31.8941 58.8607L31.9307 58.9569L31.9678 59.0531L32.0051 59.1494L32.0427 59.2464L32.0807 59.3434L32.1189 59.4405L32.1575 59.5375L32.1964 59.6346L32.2355 59.7324L32.275 59.8295L32.3147 59.9273L32.3548 60.0252L32.3951 60.123L32.4358 60.2209L32.4767 60.3196L32.5179 60.4174L32.5593 60.5161L32.6011 60.6148L32.6432 60.7134L32.6855 60.8129L32.7281 60.9116L32.7711 61.0103L32.8142 61.1098L32.8577 61.2092L32.9013 61.3087L32.9453 61.4082L32.9896 61.5077L33.0341 61.6072L33.0789 61.7075L33.1239 61.807L33.1691 61.9073L33.2148 62.0076L33.2606 62.1079L33.3066 62.2082L33.3529 62.3085L33.3994 62.4088L33.4462 62.5091L33.4933 62.6094L33.5406 62.7105L33.5881 62.8117L33.6359 62.912L33.6839 63.0131L33.7321 63.1142L33.7807 63.2153L33.8293 63.3164L33.8783 63.4176L33.9275 63.5187L33.9769 63.6198L34.0265 63.7209L34.0762 63.822L34.1264 63.924L34.1767 64.0251L34.2272 64.127L34.2778 64.2281L34.3288 64.3301L34.38 64.4312L34.4313 64.5331L34.4828 64.6342L34.5346 64.7362L34.5866 64.8381L34.6388 64.9401L34.6911 65.042L34.7436 65.1439L34.7963 65.245L34.8493 65.347L34.9025 65.4489L34.9558 65.5508L35.0093 65.6528L35.0629 65.7547L35.1169 65.8566L35.171 65.9586L35.2252 66.0605L35.2796 66.1624L35.3342 66.2644L35.389 66.3663L35.4438 66.4683L35.499 66.5702L35.5542 66.6721L35.6097 66.7741L35.6653 66.876L35.721 66.9771L35.777 67.079L35.833 67.181L35.8892 67.2829L35.9456 67.3848L36.0021 67.4868L36.0589 67.5879L36.1157 67.6898L36.1726 67.7918L36.2297 67.8929L36.287 67.9948L36.3444 68.0968L36.402 68.1979L36.4596 68.299L36.5173 68.4009L36.5753 68.5021L36.6333 68.6032L36.6915 68.7051L36.7499 68.8062L36.8083 68.9073L36.8668 69.0085L36.9256 69.1096L36.9844 69.2107L37.0432 69.3118L37.1023 69.4129L37.1614 69.5132L37.2206 69.6144L37.28 69.7147L37.3394 69.8158L37.399 69.9161L37.4587 70.0164L37.5184 70.1167L37.5782 70.217L37.6381 70.3173L37.6982 70.4176L37.7583 70.5179L37.8186 70.6182L37.8789 70.7177L37.9392 70.818L37.9991 70.9167L38.1209 71.1165L38.2424 71.3154L38.3642 71.5144L38.4863 71.7118L38.6085 71.9099L38.7311 72.1073L38.8538 72.3038L38.9769 72.4995L39.1001 72.696L39.2235 72.8909L39.347 73.0858L39.4706 73.2799L39.5945 73.474L39.7183 73.6673L39.8424 73.8597L39.9665 74.0514L40.0906 74.243L40.2149 74.4338L40.3391 74.6238L40.4634 74.813L40.5877 75.0022L40.7119 75.1898L40.8362 75.3773L40.9604 75.5641L41.0844 75.7508L41.2085 75.9359L41.3325 76.1202L41.4564 76.3045L41.5801 76.4872L41.7036 76.6699L41.8271 76.8509L41.9503 77.0319L42.0733 77.2113L42.1961 77.3907L42.3188 77.5685L42.4412 77.7463L42.5632 77.9224L42.6851 78.0978L42.8067 78.2723L42.928 78.446L43.0489 78.6188L43.1696 78.7909L43.2899 78.9613L43.4098 79.131L43.5293 79.2998L43.6484 79.4678L43.7671 79.6349L43.8854 79.8005L44.0032 79.9652L44.1207 80.1291L44.2376 80.2914L44.354 80.4529L44.4699 80.6135L44.5853 80.7725L44.7002 80.9307L44.8144 81.0873L44.928 81.243L45.0412 81.398L45.1538 81.5513L45.2656 81.7038L45.3769 81.8547L45.4875 82.0047L45.5974 82.1531L45.7066 82.3007L45.8153 82.4467L45.9231 82.5918L46.0302 82.7354L46.1366 82.8773L46.2422 83.0183L46.347 83.1578L46.451 83.2956L46.5542 83.4326L46.6566 83.568L46.7581 83.7025L46.8588 83.8346L46.9587 83.9667L47.0575 84.0964L47.1555 84.2244L47.2526 84.3516L47.3488 84.4772L47.444 84.6012L47.5382 84.7235L47.6315 84.8442L47.7236 84.9641L47.8149 85.0815L47.9051 85.1981L47.9942 85.3131L48.0823 85.4264L48.1693 85.5382L48.2546 85.6474L48.4237 85.8635L48.5875 86.0715L48.7467 86.2737L48.901 86.4694L49.0504 86.657L49.1947 86.8388L49.3337 87.0125L49.4675 87.1797L49.5958 87.3395L49.7184 87.492L49.8354 87.6364L49.9466 87.7734L50.0517 87.903L50.1507 88.0245L50.2436 88.1379L50.3301 88.2439L50.4101 88.3409L50.4836 88.4298L50.5504 88.5106L50.6092 88.5815L50.709 88.7014L50.7787 88.7854L50.8189 88.8327L50.8315 88.8482L51.3313 89.5658L51.6907 90.3625L51.8976 91.2122L51.9448 92.0856L51.8307 92.9525L51.5594 93.7834L51.1399 94.5508L50.5865 95.2276L49.9182 95.792L49.1577 96.2233L48.3308 96.5071L47.4657 96.6352L46.592 96.6017L45.7393 96.4076L44.9367 96.0611L44.2114 95.5726L43.5883 94.9594L43.5691 94.9365L43.5153 94.8721L43.4308 94.771L43.3181 94.6356L43.2496 94.5532L43.1751 94.4627L43.0937 94.3641L43.0056 94.2572L42.9109 94.1414L42.81 94.0183L42.7025 93.8862L42.5888 93.7467L42.4693 93.5983L42.3436 93.4434L42.212 93.2803L42.0749 93.109L41.9322 92.9313L41.784 92.7453L41.6304 92.5529L41.4717 92.3523L41.3079 92.1451L41.1391 91.9307L40.9655 91.7097L40.7878 91.483L40.6963 91.3655L40.6042 91.2473L40.5111 91.1282L40.417 91.0067L40.3217 90.8836L40.2252 90.7588L40.1278 90.6324L40.0293 90.5052L39.9299 90.3756L39.8293 90.2451L39.7278 90.1122L39.6254 89.9784L39.522 89.8431L39.4176 89.7061L39.3123 89.5674L39.2061 89.4272L39.0989 89.2861L38.991 89.1434L38.8822 88.999L38.7723 88.8531L38.6619 88.7055L38.5505 88.557L38.4383 88.407L38.3254 88.2561L38.2116 88.1028L38.0972 87.9487L37.9819 87.7938L37.8659 87.6372L37.7492 87.479L37.6319 87.3192L37.5139 87.1585L37.3952 86.997L37.2757 86.8339L37.1557 86.6692L37.0351 86.5037L36.9139 86.3365L36.7921 86.1685L36.6697 85.9989L36.5468 85.8285L36.4232 85.6564L36.2993 85.4835L36.1747 85.3098L36.0497 85.1345L35.9242 84.9584L35.7983 84.7806L35.6718 84.602L35.5449 84.4226L35.4177 84.2416L35.2901 84.0597L35.162 83.877L35.0335 83.6936L34.9048 83.5084L34.7756 83.3225L34.6461 83.1349L34.5164 82.9474L34.3864 82.7582L34.256 82.5682L34.1254 82.3774L33.9945 82.1857L33.8634 81.9933L33.7321 81.7992L33.6006 81.6051L33.4689 81.4094L33.337 81.2129L33.205 81.0155L33.0728 80.8174L32.9405 80.6184L32.8081 80.4186L32.6756 80.218L32.543 80.0166L32.4103 79.8143L32.2777 79.6113L32.1449 79.4074L32.0122 79.2027L31.8794 78.9972L31.7466 78.7909L31.614 78.5846L31.4813 78.3766L31.3486 78.1687L31.2161 77.9599L31.0836 77.7495L30.9513 77.54L30.819 77.3288L30.6869 77.1167L30.555 76.9047L30.4232 76.6919L30.2916 76.4782L30.1601 76.2638L30.029 76.0493L29.8987 75.8348L29.8326 75.7264L29.7672 75.6179L29.702 75.5094L29.6368 75.4018L29.5717 75.2933L29.5067 75.1841L29.4416 75.0756L29.3767 74.9671L29.3118 74.8579L29.2471 74.7486L29.1823 74.6393L29.1178 74.53L29.0533 74.4208L28.9888 74.3107L28.9245 74.2014L28.8602 74.0913L28.796 73.9812L28.732 73.8711L28.668 73.7611L28.6041 73.651L28.5402 73.5401L28.4766 73.43L28.413 73.3191L28.3495 73.2082L28.2862 73.0973L28.2229 72.9864L28.1598 72.8746L28.0967 72.7637L28.0338 72.6528L27.971 72.5411L27.9082 72.4294L27.8457 72.3177L27.7831 72.2059L27.7209 72.0942L27.6587 71.9817L27.5966 71.87L27.5347 71.7582L27.4728 71.6457L27.4111 71.5332L27.3496 71.4206L27.2882 71.3081L27.2269 71.1956L27.1658 71.083L27.1048 70.9705L27.044 70.8571L26.9832 70.7446L26.9228 70.6313L26.8623 70.5179L26.802 70.4054L26.742 70.292L26.6821 70.1787L26.6223 70.0653L26.5627 69.9512L26.5032 69.8378L26.4439 69.7244L26.3849 69.6103L26.3258 69.4969L26.267 69.3828L26.2085 69.2686L26.15 69.1544L26.0918 69.0411L26.0337 68.9269L25.9757 68.8119L25.918 68.6978L25.8605 68.5836L25.8031 68.4694L25.746 68.3544L25.689 68.2403L25.6322 68.1261L25.5756 68.0111L25.5192 67.8962L25.463 67.782L25.407 67.667L25.3512 67.552L25.2956 67.437L25.2402 67.3221L25.185 67.2071L25.1301 67.0921L25.0753 66.9771L25.0208 66.8621L24.9663 66.7471L24.9123 66.6322L24.8584 66.5164L24.8047 66.4014L24.7512 66.2856L24.6979 66.1706L24.6449 66.0548L24.5922 65.9398L24.5397 65.824L24.4874 65.7082L24.4352 65.5924L24.3835 65.4775L24.3318 65.3617L24.2805 65.2459L24.2294 65.1301L24.1785 65.0143L24.1278 64.8993L24.0775 64.7827L24.0273 64.6669L23.9775 64.5511L23.9279 64.4353L23.8786 64.3195L23.8295 64.2037L23.7805 64.0879L23.732 63.9721L23.6837 63.8555L23.6356 63.7397L23.5879 63.6239L23.5404 63.5081L23.4932 63.3915L23.4462 63.2757L23.3995 63.1591L23.3531 63.0433L23.3071 62.9266L23.2612 62.8108L23.2157 62.695L23.1705 62.5784L23.1254 62.4626L23.0809 62.346L23.0365 62.2302L22.9924 62.1136L22.9487 61.9978L22.9052 61.8812L22.862 61.7646L22.8192 61.6488L22.7766 61.5322L22.7344 61.4164L22.6925 61.2998L22.6508 61.1832L22.6096 61.0674L22.5686 60.9507L22.528 60.8341L22.4877 60.7183L22.4476 60.6017L22.408 60.4851L22.3687 60.3693L22.3297 60.2527L22.291 60.1361L22.2527 60.0195L22.2147 59.9037L22.1771 59.7871L22.1399 59.6713L22.1029 59.5547L22.0664 59.438L22.0301 59.3214L21.9942 59.2056L21.9587 59.089L21.9235 58.9724L21.8888 58.8558L21.8544 58.74L21.8203 58.6234L21.7866 58.5068L21.7533 58.3901L21.7204 58.2744L21.6878 58.1577L21.6556 58.0411L21.6239 57.9253L21.5925 57.8087L21.5615 57.6921L21.5309 57.5755L21.5007 57.4597L21.4709 57.3431L21.4415 57.2265L21.4125 57.1107L21.3838 56.9941L21.3557 56.8774L21.328 56.7608L21.3006 56.645L21.2737 56.5284L21.2472 56.4118L21.2211 56.2952L21.1955 56.1794L21.1702 56.0628L21.1454 55.9462L21.1211 55.8304L21.0973 55.7138L21.0738 55.5971L21.0508 55.4805L21.0283 55.3647L21.0062 55.2481L20.9846 55.1315L20.9634 55.0149L20.9427 54.8991L20.9225 54.7825L20.9028 54.6659L20.8835 54.5493L20.8647 54.4335L20.8464 54.3168L20.8286 54.2002L20.8113 54.0836L20.7945 53.9678L20.7781 53.8512L20.7624 53.7346L20.7471 53.618L20.7323 53.5014L20.7181 53.3856L20.7043 53.269L20.6912 53.1523L20.6785 53.0357L20.6664 52.9191L20.6547 52.8025L20.6438 52.6867L20.6333 52.5701L20.6233 52.4535L20.614 52.3369L20.6052 52.2203L20.5969 52.1036L20.5892 51.987L20.5822 51.8704L20.5757 51.7546L20.5698 51.638L20.5645 51.5214L20.5598 51.4048L20.5557 51.2882L20.5523 51.1748L20.5507 51.1128L20.5493 51.0549L20.5482 50.9962L20.5471 50.9383L20.5463 50.8796L20.5455 50.8217L20.545 50.763L20.5446 50.7051L20.5443 50.6472L20.5442 50.5877L20.5444 50.5012L20.5448 50.4148L20.5454 50.3275L20.5464 50.2411L20.5476 50.1547L20.5491 50.0674L20.5508 49.981L20.5529 49.8945L20.5552 49.8081L20.5577 49.7208L20.5606 49.6352L20.5636 49.5488L20.567 49.4623L20.5706 49.3759L20.5745 49.2903L20.5787 49.2038L20.5831 49.1182L20.5877 49.0317L20.5928 48.9461L20.598 48.8605L20.6034 48.7741L20.6091 48.6884L20.6152 48.6028L20.6214 48.5172L20.628 48.4316L20.6348 48.3467L20.6418 48.2611L20.6491 48.1755L20.6567 48.0907L20.6645 48.0051L20.6726 47.9203L20.681 47.8354L20.6896 47.7506L20.6985 47.665L20.7075 47.5802L20.7169 47.4962L20.7266 47.4114L20.7365 47.3266L20.7467 47.2418L20.7571 47.1578L20.7677 47.073L20.7787 46.989L20.7899 46.905L20.8013 46.821L20.813 46.7362L20.825 46.653L20.8372 46.5682L20.8496 46.485L20.8623 46.401L20.8753 46.317L20.8885 46.2338L20.9019 46.1507L20.9157 46.0667L20.9297 45.9835L20.9439 45.9003L20.9583 45.8171L20.9731 45.734L20.9881 45.6508L21.0033 45.5676L21.0187 45.4852L21.0344 45.4029L21.0504 45.3197L21.0666 45.2373L21.0831 45.155L21.0997 45.0726L21.1167 44.9902L21.1339 44.9079L21.1513 44.8255L21.169 44.744L21.187 44.6616L21.2052 44.5801L21.2235 44.4977L21.2423 44.4162L21.2611 44.3346L21.2802 44.2531L21.2997 44.1715L21.3193 44.0908L21.3392 44.0092L21.3592 43.9285L21.3796 43.8478L21.4002 43.7662L21.421 43.6855L21.4421 43.6048L21.4634 43.524L21.4849 43.4433L21.5068 43.3634L21.5287 43.2826L21.5511 43.2027L21.5736 43.122L21.5963 43.0421L21.6193 42.9622L21.6425 42.8822L21.6658 42.8031L21.6896 42.7232L21.7134 42.6433L21.7376 42.5642L21.762 42.4851L21.7866 42.4052L21.8114 42.3261L21.8365 42.247L21.8618 42.1687L21.8873 42.0896L21.9131 42.0113L21.9392 41.9322L21.9654 41.8539L21.9918 41.7756L22.0186 41.6974L22.0454 41.6191L22.0726 41.5408L22.1 41.4633L22.1275 41.385L22.1554 41.3076L22.1834 41.2301L22.2117 41.1518L22.2402 41.0751L22.2689 40.9977L22.2979 40.9202L22.3271 40.8436L22.3565 40.7661L22.3861 40.6894L22.4159 40.6128L22.4461 40.5361L22.4764 40.4595L22.5069 40.3836L22.5376 40.307L22.5686 40.2311L22.5997 40.1553L22.6312 40.0786L22.6629 40.0028L22.6947 39.927L22.7267 39.8519L22.759 39.7761L22.7916 39.7011L22.8242 39.626L22.8571 39.551L22.8904 39.476L22.9237 39.401L22.9574 39.326L22.9911 39.2517L23.0251 39.1775L23.0594 39.1025L23.0938 39.0283L23.1285 38.9549L23.1633 38.8807L23.1984 38.8065L23.2338 38.7331L23.2693 38.6589L23.305 38.5863L23.3409 38.5121L23.3771 38.4395L23.4133 38.3661L23.45 38.2927L23.4869 38.2202L23.5238 38.1476L23.561 38.075L23.5985 38.0024L23.636 37.9307L23.6739 37.8581L23.7118 37.7863L23.7502 37.7138L23.7887 37.642L23.8273 37.5702L23.8661 37.4993L23.9053 37.4275L23.9445 37.3566L23.984 37.2848L24.0237 37.2139L24.0635 37.1429L24.1036 37.0728L24.1438 37.0018L24.1843 36.9317L24.2251 36.8608L24.2661 36.7906L24.3072 36.7205L24.3484 36.6512L24.39 36.5811L24.4317 36.5117L24.4736 36.4416L24.5156 36.3723L24.558 36.303L24.6006 36.2337L24.6432 36.1652L24.6862 36.0959L24.7292 36.0274L24.7725 35.9589L24.816 35.8904L24.8597 35.8227L24.9036 35.7542L24.9476 35.6865L24.9919 35.6188L25.0366 35.5503L25.081 35.4834L25.1259 35.4157L25.171 35.3481L25.2163 35.2812L25.2617 35.2143L25.3073 35.1475L25.3532 35.0806L25.3991 35.0145L25.4453 34.9485L25.4919 34.8816L25.5384 34.8156L25.5851 34.7503L25.6322 34.6843L25.6793 34.6182L25.7266 34.553L25.7742 34.4877L25.822 34.4225L25.8697 34.3573L25.9179 34.292L25.9662 34.2276L26.0146 34.1632L26.0633 34.0988L26.1122 34.0343L26.1611 33.9699L26.2104 33.9063L26.2598 33.8427L26.3093 33.7783L26.3592 33.7155L26.4092 33.6519L26.4593 33.5883L26.5096 33.5255L26.5601 33.4627L26.6108 33.3999L26.6617 33.3371L26.7127 33.2751L26.7639 33.2123L26.8153 33.1504L26.8669 33.0884L26.9187 33.0264L26.9707 32.9652L27.0228 32.9033L27.0751 32.8421L27.1275 32.7809L27.1802 32.7198L27.2331 32.6594L27.2861 32.5983L27.3392 32.5379L27.3926 32.4776L27.4462 32.4172L27.4998 32.3577L27.5538 32.2974L27.6079 32.2378L27.6621 32.1783L27.7165 32.1188L27.771 32.0601L27.8259 32.0005L27.8809 31.9418L27.936 31.8831L27.9912 31.8244L28.0466 31.7665L28.1023 31.7078L28.1582 31.6499L28.2141 31.592L28.2701 31.5341L28.3264 31.477L28.3829 31.4199L28.4396 31.362L28.4966 31.3049L28.5534 31.2487L28.6106 31.1916L28.668 31.1353L28.7254 31.079L28.7831 31.0228L28.8408 30.9665L28.8988 30.9111L28.9571 30.8548L29.0153 30.8001L29.0739 30.7447L29.1326 30.6892L29.1912 30.6346L29.2504 30.5792L29.3094 30.5253L29.3687 30.4707L29.4282 30.4161L29.4878 30.3622L29.5476 30.3084L29.6076 30.2546L29.6676 30.2008L29.7279 30.1478L29.7884 30.0948L29.849 30.0418L29.9097 29.9888L29.9707 29.9357L30.0319 29.8836L30.0929 29.8314L30.1543 29.7792L30.216 29.727L30.2777 29.6756L30.3396 29.6242L30.4016 29.5729L30.4636 29.5215L30.526 29.4709L30.5885 29.4196L30.6511 29.369L30.714 29.3184L30.7769 29.2687L30.8399 29.2181L30.9033 29.1684L30.9667 29.1186L31.0302 29.0689L31.0939 29.02L31.1579 28.971L31.2219 28.9221L31.2859 28.8732L31.3505 28.8243L31.415 28.7761L31.4795 28.728L31.5442 28.6799L31.6092 28.6326L31.6743 28.5845L31.7395 28.5372L31.8049 28.4899L31.8704 28.4426L31.936 28.3961L32.002 28.3496L32.068 28.3032L32.1339 28.2567L32.2001 28.211L32.2667 28.1645L32.3333 28.1189L32.3999 28.0732L32.4667 28.0284L32.5337 27.9835L32.6007 27.9386L32.6683 27.8938L32.7356 27.8489L32.8031 27.8049L32.8708 27.7609L32.9387 27.7168L33.0066 27.6736L33.0749 27.6296L33.1431 27.5864L33.2113 27.5431L33.28 27.5007L33.3488 27.4575L33.4176 27.4151L33.4864 27.3735L33.5556 27.3311L33.6249 27.2887L33.6942 27.2479L33.7637 27.2063L33.8334 27.1648L33.9032 27.124L33.9731 27.0832L34.0431 27.0424L34.1134 27.0017L34.1837 26.9617L34.2541 26.9217L34.3248 26.8818L34.3955 26.8418L34.4663 26.8027L34.5374 26.7635L34.6085 26.7244L34.6797 26.6861L34.7512 26.6477L34.8227 26.6094L34.8944 26.5711L34.9661 26.5328L35.038 26.4953L35.1101 26.4577L35.1824 26.4202L35.2546 26.3835L35.327 26.3468L35.3996 26.3101L35.4722 26.2734L35.545 26.2376L35.618 26.2017L35.6912 26.1658L35.7644 26.1299L35.8375 26.0949L35.9112 26.0598L35.9847 26.0247L36.0583 25.9905L36.1321 25.9562L36.2061 25.922L36.2803 25.8877L36.3544 25.8535L36.4287 25.82L36.5031 25.7866L36.5776 25.754L36.6523 25.7214L36.7271 25.6879L36.8021 25.6561L36.877 25.6235L36.9522 25.5917L37.0276 25.5599L37.103 25.5281L37.1784 25.4971L37.254 25.4661L37.3298 25.4351L37.4056 25.4042L37.4816 25.374L37.5577 25.3438L37.6339 25.3144L37.7103 25.2843L37.7868 25.2549L37.8631 25.2256L37.9398 25.1962L38.0167 25.1677L38.0935 25.1391L38.1707 25.1106L38.2476 25.0829L38.3247 25.0551L38.4022 25.0274L38.4796 24.9997L38.5572 24.9728L38.6349 24.9458L38.7126 24.9189L38.7905 24.8928L38.8684 24.8659L38.9464 24.8407L39.0247 24.8146L39.1031 24.7893L39.1815 24.764L39.26 24.7387L39.3386 24.7143L39.4174 24.689L39.4962 24.6653L39.575 24.6409L39.6541 24.6172L39.7332 24.5936L39.8125 24.5699L39.8919 24.5471L39.9713 24.5242L40.0506 24.5014L40.1304 24.4794L40.2103 24.4574L40.29 24.4354L40.37 24.4133L40.4502 24.3921L40.53 24.3709L40.6102 24.3497L40.6906 24.3294L40.7711 24.309L40.8516 24.2886L40.9323 24.269L41.013 24.2494L41.0937 24.2299L41.1746 24.2103L41.2556 24.1915L41.3368 24.1728L41.4178 24.1548L41.4991 24.1361L41.5806 24.1181L41.662 24.101L41.7435 24.0831L41.8251 24.066L41.9066 24.0496L41.9887 24.0325L42.0707 24.0162L42.1524 23.9999L42.2346 23.9844L42.3167 23.9689L42.3989 23.9534L42.4813 23.9379L42.5637 23.9232L42.6462 23.9086L42.7288 23.8939L42.8114 23.88L42.8941 23.8662L42.9769 23.8523L43.0598 23.8393L43.1429 23.8262L43.2258 23.8132L43.3092 23.8009L43.3923 23.7887L43.4755 23.7765L43.5589 23.765L43.6422 23.7528L43.726 23.7422L43.8096 23.7308L43.8932 23.7202L43.9769 23.7096L44.0609 23.6998L44.1447 23.69L44.2286 23.6802L44.3127 23.6704L44.3969 23.6615L44.4812 23.6525L44.5652 23.6444L44.6495 23.6354L44.7342 23.628L44.8186 23.6199L44.9031 23.6125L44.9878 23.6052L45.0725 23.5979L45.1572 23.5913L45.242 23.5848L45.3268 23.5791L45.4118 23.5726L45.4969 23.5677L45.5819 23.562L45.6671 23.5571L45.7522 23.5522L45.8375 23.5473L45.9228 23.5432L46.0083 23.5392L46.0939 23.5359L46.1792 23.5318L46.2647 23.5286L46.3504 23.5261L46.4362 23.5237L46.5218 23.5212L46.6078 23.5188L46.6936 23.5171L46.7793 23.5155L46.8654 23.5139L46.9516 23.5131L47.0377 23.5122H47.1236H47.2099H47.2963Z" fill="#FF8300"/>
</svg>
