<svg width="512" height="512" viewBox="0 0 512 512" fill="none" xmlns="http://www.w3.org/2000/svg">
<path d="M255.863 168.699C207.816 168.699 168.723 207.793 168.723 255.844C168.723 303.891 207.816 342.984 255.863 342.984C303.914 342.984 343.008 303.891 343.008 255.844C343.008 207.793 303.914 168.699 255.863 168.699Z" fill="white"/>
<path d="M497.003 240.843H441.948C434.679 149.84 361.866 77.0233 270.859 69.7577V14.9961C270.859 6.71483 264.144 0 255.863 0C247.582 0 240.867 6.71483 240.867 14.9961V69.7577C149.859 77.0233 77.0467 149.84 69.7772 240.843H14.9961C6.71483 240.843 0 247.558 0 255.843C0 264.124 6.71483 270.839 14.9961 270.839H69.7772C77.0467 361.843 149.859 434.659 240.867 441.929V496.687C240.867 504.968 247.582 511.683 255.863 511.683C264.148 511.683 270.859 504.968 270.859 496.687V441.929C361.866 434.659 434.683 361.843 441.948 270.839H497.003C505.284 270.839 511.999 264.124 511.999 255.843C511.999 247.558 505.284 240.843 497.003 240.843ZM255.863 412.538C169.461 412.538 99.1678 342.242 99.1678 255.843C99.1678 169.441 169.461 99.1443 255.863 99.1443C342.265 99.1443 412.558 169.441 412.558 255.843C412.558 342.242 342.265 412.538 255.863 412.538Z" fill="white"/>
</svg>
