<svg width="512" height="512" viewBox="0 0 512 512" fill="none" xmlns="http://www.w3.org/2000/svg">
<path d="M481.578 9.23828C477.59 3.45703 471.02 0 464 0H234.668C199.383 0 170.668 28.7148 170.668 64V80.6172C171.5 81.3672 172.457 81.9414 173.246 82.7539L258.582 168.086C270.676 180.16 277.332 196.246 277.332 213.332C277.332 230.422 270.676 246.508 258.582 258.582L173.246 343.914C172.457 344.703 171.5 345.281 170.668 346.047V384C170.668 419.285 199.383 448 234.668 448H309.332C318.188 448 326.121 442.539 329.258 434.262L483.926 28.9297C486.441 22.3789 485.547 15.0195 481.578 9.23828V9.23828Z" fill="#FF8300"/>
<path d="M119.828 318.379C111.871 315.07 106.668 307.285 106.668 298.668V234.668H21.332C9.55859 234.668 0 225.109 0 213.332C0 201.559 9.55859 192 21.332 192H106.668V128C106.668 119.383 111.871 111.594 119.828 108.289C127.809 104.98 136.98 106.816 143.082 112.918L228.414 198.25C236.758 206.594 236.758 220.074 228.414 228.414L143.082 313.75C136.98 319.851 127.809 321.684 119.828 318.379Z" fill="#828282"/>
<path d="M455.742 2.11334L327.574 44.8438C310.273 50.8165 298.668 67.0938 298.668 85.3321V469.332C298.668 492.863 317.801 512 341.332 512C345.898 512 350.23 511.34 354.922 509.887L483.094 467.156C500.395 461.184 512 444.906 512 426.668V42.668C512 14.5704 484.672 -6.7851 455.742 2.11334V2.11334Z" fill="#FFBB73"/>
</svg>
