<svg width="249" height="50" viewBox="0 0 249 50" fill="none" xmlns="http://www.w3.org/2000/svg">
<g clip-path="url(#clip0_447:103)">
<path d="M59.6215 45.696C59.6215 46.5465 59.4518 47.2897 59.1124 47.9255C58.7731 48.5535 58.272 49.0423 57.609 49.392C56.954 49.7338 56.1648 49.9047 55.2415 49.9047H52.5898V41.4993H55.2415C56.1648 41.4993 56.954 41.6702 57.609 42.012C58.272 42.3458 58.7731 42.8306 59.1124 43.4665C59.4518 44.0944 59.6215 44.8376 59.6215 45.696ZM55.1586 48.927C56.2477 48.927 57.0803 48.6449 57.6564 48.0805C58.2325 47.5162 58.5205 46.7214 58.5205 45.696C58.5205 44.6707 58.2325 43.8759 57.6564 43.3115C57.0882 42.7392 56.2556 42.4531 55.1586 42.4531H53.6671V48.927H55.1586Z" fill="white"/>
<path d="M66.5323 42.3816V45.2549H69.7048V46.0895H66.5323V49.0224H70.0599V49.9047H65.4551V41.4993H70.0599V42.3816H66.5323Z" fill="white"/>
<path d="M76.9005 49.0582H79.8599V49.9047H75.8232V41.4993H76.9005V49.0582Z" fill="white"/>
<path d="M86.4131 41.4993V49.9047H85.3359V41.4993H86.4131Z" fill="white"/>
<path d="M93.0695 41.4993L95.6146 48.7005L98.1952 41.4993H99.3672L96.3012 49.9047H94.9399L91.8857 41.4993H93.0695Z" fill="white"/>
<path d="M105.913 42.3816V45.2549H109.085V46.0895H105.913V49.0224H109.44V49.9047H104.835V41.4993H109.44V42.3816H105.913Z" fill="white"/>
<path d="M119.631 49.9047L117.453 46.471H116.281V49.9047H115.204V41.4993H117.95C118.897 41.4993 119.607 41.7298 120.081 42.1908C120.554 42.6439 120.791 43.2479 120.791 44.003C120.791 44.6866 120.602 45.239 120.223 45.6603C119.844 46.0736 119.295 46.3319 118.577 46.4352L120.85 49.9047H119.631ZM116.281 45.6841H117.855C119.078 45.6841 119.69 45.1436 119.69 44.0626C119.69 42.9817 119.078 42.4412 117.855 42.4412H116.281V45.6841Z" fill="white"/>
<path d="M132.416 41.4993L129.681 46.7214V49.9047H128.592V46.7214L125.846 41.4993H127.101L129.149 45.5649L131.185 41.4993H132.416Z" fill="white"/>
<path d="M149.01 41.392C149.784 41.392 150.478 41.5748 151.094 41.9404C151.717 42.3061 152.207 42.8187 152.562 43.4784C152.917 44.1302 153.094 44.8694 153.094 45.696C153.094 46.5227 152.917 47.2658 152.562 47.9255C152.207 48.5773 151.717 49.086 151.094 49.4516C150.478 49.8172 149.784 50.0001 149.01 50.0001C148.237 50.0001 147.535 49.8172 146.903 49.4516C146.28 49.086 145.791 48.5773 145.435 47.9255C145.08 47.2658 144.903 46.5227 144.903 45.696C144.903 44.8694 145.08 44.1302 145.435 43.4784C145.791 42.8187 146.28 42.3061 146.903 41.9404C147.535 41.5748 148.237 41.392 149.01 41.392ZM149.01 42.4054C148.434 42.4054 147.917 42.5405 147.46 42.8108C147.01 43.0731 146.655 43.4546 146.394 43.9553C146.142 44.4481 146.015 45.0284 146.015 45.696C146.015 46.3557 146.142 46.936 146.394 47.4367C146.655 47.9375 147.01 48.323 147.46 48.5932C147.917 48.8555 148.434 48.9866 149.01 48.9866C149.579 48.9866 150.088 48.8515 150.537 48.5813C150.995 48.311 151.35 47.9295 151.603 47.4367C151.863 46.936 151.993 46.3557 151.993 45.696C151.993 45.0284 151.863 44.4481 151.603 43.9553C151.35 43.4546 150.995 43.0731 150.537 42.8108C150.088 42.5405 149.579 42.4054 149.01 42.4054Z" fill="white"/>
<path d="M165.418 49.9047H164.34L160.008 43.2638V49.9047H158.931V41.4993H160.008L164.34 48.1521V41.4993H165.418V49.9047Z" fill="white"/>
<path d="M185.866 45.696C185.866 46.5465 185.697 47.2897 185.357 47.9255C185.018 48.5535 184.517 49.0423 183.854 49.392C183.199 49.7338 182.41 49.9047 181.486 49.9047H178.835V41.4993H181.486C182.41 41.4993 183.199 41.6702 183.854 42.012C184.517 42.3458 185.018 42.8306 185.357 43.4665C185.697 44.0944 185.866 44.8376 185.866 45.696ZM181.403 48.927C182.492 48.927 183.325 48.6449 183.901 48.0805C184.477 47.5162 184.765 46.7214 184.765 45.696C184.765 44.6707 184.477 43.8759 183.901 43.3115C183.333 42.7392 182.5 42.4531 181.403 42.4531H179.912V48.927H181.403Z" fill="white"/>
<path d="M192.777 42.3816V45.2549H195.95V46.0895H192.777V49.0224H196.305V49.9047H191.7V41.4993H196.305V42.3816H192.777Z" fill="white"/>
<path d="M210.425 41.6424V49.9047H209.348V43.3115L206.732 49.9047H205.773L203.145 43.3354V49.9047H202.068V41.6424H203.358L206.27 48.5813L209.135 41.6424H210.425Z" fill="white"/>
<path d="M221.418 47.9613H217.748L217.049 49.9047H215.889L218.979 41.6543H220.198L223.276 49.9047H222.116L221.418 47.9613ZM221.11 47.1148L219.583 42.8704L218.056 47.1148H221.11Z" fill="white"/>
<path d="M235.233 49.9047H234.156L229.824 43.2638V49.9047H228.746V41.4993H229.824L234.156 48.1521V41.4993H235.233V49.9047Z" fill="white"/>
<path d="M248.377 45.696C248.377 46.5465 248.208 47.2897 247.868 47.9255C247.529 48.5535 247.028 49.0423 246.365 49.392C245.71 49.7338 244.921 49.9047 243.997 49.9047H241.346V41.4993H243.997C244.921 41.4993 245.71 41.6702 246.365 42.012C247.028 42.3458 247.529 42.8306 247.868 43.4665C248.208 44.0944 248.377 44.8376 248.377 45.696ZM243.914 48.927C245.004 48.927 245.836 48.6449 246.412 48.0805C246.988 47.5162 247.276 46.7214 247.276 45.696C247.276 44.6707 246.988 43.8759 246.412 43.3115C245.844 42.7392 245.011 42.4531 243.914 42.4531H242.423V48.927H243.914Z" fill="white"/>
<path d="M52.5862 29.304V0H64.4593C66.6054 0 68.6261 0.39072 70.5213 1.17216C72.4165 1.92569 74.047 2.95831 75.4127 4.27001C76.8063 5.58172 77.9072 7.1446 78.7154 8.95866C79.5237 10.7448 79.9278 12.6705 79.9278 14.7357C79.9278 16.7452 79.5237 18.6429 78.7154 20.4291C77.9072 22.2152 76.8063 23.7642 75.4127 25.0759C74.047 26.3876 72.4165 27.4202 70.5213 28.1737C68.6261 28.9272 66.6054 29.304 64.4593 29.304H52.5862ZM64.2921 6.36316H59.777V22.9409H64.2921C65.4348 22.9409 66.5079 22.7315 67.5112 22.3129C68.5146 21.8943 69.3786 21.3222 70.1032 20.5965C70.8558 19.843 71.4411 18.9639 71.8591 17.9592C72.2772 16.9545 72.4862 15.88 72.4862 14.7357C72.4862 13.5636 72.2772 12.4751 71.8591 11.4704C71.4411 10.4378 70.8558 9.54474 70.1032 8.7912C69.3786 8.03767 68.5146 7.45159 67.5112 7.03296C66.5079 6.58643 65.4348 6.36316 64.2921 6.36316Z" fill="#F47342"/>
<path d="M83.7372 29.304V0H106.815V6.23757H90.9279V11.5123H106.916V17.5405H90.9279V23.0664H106.982V29.304H83.7372Z" fill="#F47342"/>
<path d="M151.77 14.2857C151.77 16.239 151.392 18.088 150.637 19.833C149.881 21.5518 148.853 23.0493 147.551 24.3255C146.248 25.5755 144.699 26.5652 142.902 27.2944C141.105 28.0236 139.191 28.3882 137.159 28.3882C135.128 28.3882 133.214 28.0236 131.417 27.2944C129.62 26.5652 128.07 25.5755 126.768 24.3255C125.466 23.0493 124.437 21.5518 123.682 19.833C122.926 18.088 122.549 16.239 122.549 14.2857C122.549 12.3324 122.926 10.4964 123.682 8.77749C124.437 7.03258 125.466 5.53508 126.768 4.28499C128.07 3.00886 129.62 2.00618 131.417 1.27696C133.214 0.547744 135.128 0.183136 137.159 0.183136C139.191 0.183136 141.105 0.547744 142.902 1.27696C144.699 2.00618 146.248 3.00886 147.551 4.28499C148.853 5.53508 149.881 7.03258 150.637 8.77749C151.392 10.4964 151.77 12.3324 151.77 14.2857ZM144.855 14.2857C144.855 13.1658 144.66 12.1241 144.269 11.1605C143.878 10.1708 143.332 9.3244 142.628 8.62123C141.951 7.91806 141.144 7.37114 140.206 6.98049C139.269 6.56379 138.253 6.35545 137.159 6.35545C136.065 6.35545 135.05 6.56379 134.112 6.98049C133.175 7.37114 132.354 7.91806 131.651 8.62123C130.974 9.3244 130.44 10.1708 130.049 11.1605C129.659 12.1241 129.463 13.1658 129.463 14.2857C129.463 15.4056 129.659 16.4603 130.049 17.45C130.44 18.4136 130.974 19.247 131.651 19.9502C132.354 20.6533 133.175 21.2133 134.112 21.63C135.05 22.0206 136.065 22.2159 137.159 22.2159C138.253 22.2159 139.269 22.0206 140.206 21.63C141.144 21.2133 141.951 20.6533 142.628 19.9502C143.332 19.247 143.878 18.4136 144.269 17.45C144.66 16.4603 144.855 15.4056 144.855 14.2857Z" fill="#F47342"/>
<path d="M155.342 0.612854H161.671L174.094 16.4733V0.612854H180.422V27.9585H174.484L161.671 11.473V27.9585H155.342V0.612854Z" fill="#F47342"/>
<path d="M195.948 28.3882V0.183136H207.391C209.46 0.183136 211.407 0.559203 213.234 1.31134C215.061 2.03661 216.632 3.03051 217.948 4.29302C219.291 5.55554 220.352 7.05981 221.131 8.80584C221.91 10.525 222.3 12.3785 222.3 14.3663C222.3 16.3003 221.91 18.127 221.131 19.8461C220.352 21.5653 219.291 23.0561 217.948 24.3186C216.632 25.5812 215.061 26.5751 213.234 27.3003C211.407 28.0256 209.46 28.3882 207.391 28.3882H195.948ZM207.23 6.30767H202.879V22.2637H207.23C208.332 22.2637 209.366 22.0622 210.333 21.6593C211.3 21.2564 212.133 20.7057 212.831 20.0073C213.556 19.282 214.12 18.4359 214.523 17.4688C214.926 16.5018 215.128 15.4676 215.128 14.3663C215.128 13.2381 214.926 12.1905 214.523 11.2234C214.12 10.2295 213.556 9.36994 212.831 8.64467C212.133 7.91939 211.3 7.35529 210.333 6.95236C209.366 6.52257 208.332 6.30767 207.23 6.30767Z" fill="#F47342"/>
<path d="M225.971 28.3882V0.183136H248.213V6.1868H232.902V11.2637H248.143V17.0659H232.902V22.3846H248.374V28.3882H225.971Z" fill="#F47342"/>
<path d="M116.871 14.1026C116.871 15.3164 115.887 16.3004 114.674 16.3004C113.46 16.3004 112.476 15.3164 112.476 14.1026C112.476 12.8888 113.46 11.9048 114.674 11.9048C115.887 11.9048 116.871 12.8888 116.871 14.1026Z" fill="#F47342"/>
<path d="M190.314 14.1026C190.314 15.3164 189.33 16.3004 188.116 16.3004C186.902 16.3004 185.918 15.3164 185.918 14.1026C185.918 12.8888 186.902 11.9048 188.116 11.9048C189.33 11.9048 190.314 12.8888 190.314 14.1026Z" fill="#F47342"/>
<path fill-rule="evenodd" clip-rule="evenodd" d="M1.40338 0C0.628315 0 0 0.628315 0 1.40338V25.6014L4.72643 22.2729L1.50062 20.352C1.0629 20.0914 0.832087 19.5851 0.921484 19.0817C1.01088 18.5783 1.40172 18.1836 1.90213 18.0912L19.5146 14.8406C19.9071 14.7681 20.31 14.8932 20.5935 15.1755C20.877 15.4577 21.0053 15.8615 20.9369 16.2566L17.8217 34.2555C17.7343 34.7608 17.3431 35.1581 16.8412 35.2511C16.3393 35.3442 15.8328 35.1135 15.5717 34.6728L13.3845 30.9822L0.804608 49.8662C0.986217 49.952 1.18919 50 1.40338 50H16.4699C30.277 50 41.4699 38.8071 41.4699 25C41.4699 11.1929 30.2771 0 16.4699 0H1.40338ZM0 46.6662L12.431 28.0057C12.6639 27.6562 13.0587 27.4511 13.477 27.4622C13.8953 27.4733 14.2788 27.6991 14.4929 28.0604L15.9824 30.5737L18.2329 17.5704L5.5477 19.9116L7.59675 21.1317C7.95326 21.344 8.17817 21.7237 8.19398 22.1398C8.20979 22.556 8.01433 22.9518 7.67497 23.1907L2.26842 26.9982L0 28.5957V46.6662Z" fill="#F47342"/>
</g>
<defs>
<clipPath id="clip0_447:103">
<rect width="249" height="50" fill="white"/>
</clipPath>
</defs>
</svg>
