<svg width="138" height="109" viewBox="0 0 138 109" fill="none" xmlns="http://www.w3.org/2000/svg">
<path fill-rule="evenodd" clip-rule="evenodd" d="M129.41 44C129.098 44 128.844 44.2532 128.844 44.5656V46.8279H126.582C126.27 46.8279 126.017 47.0811 126.017 47.3934C126.017 47.7058 126.27 47.959 126.582 47.959H128.844V50.2213C128.844 50.5337 129.098 50.7869 129.41 50.7869C129.722 50.7869 129.976 50.5337 129.976 50.2213V47.959H132.238C132.55 47.959 132.803 47.7058 132.803 47.3934C132.803 47.0811 132.55 46.8279 132.238 46.8279H129.976V44.5656C129.976 44.2532 129.722 44 129.41 44Z" fill="#FF8300"/>
<path fill-rule="evenodd" clip-rule="evenodd" d="M36.3934 77C36.0811 77 35.8279 77.2532 35.8279 77.5656V79.8279H33.5656C33.2532 79.8279 33 80.0811 33 80.3934C33 80.7058 33.2532 80.959 33.5656 80.959H35.8279V83.2213C35.8279 83.5337 36.0811 83.7869 36.3934 83.7869C36.7058 83.7869 36.959 83.5337 36.959 83.2213V80.959H39.2213C39.5337 80.959 39.7869 80.7058 39.7869 80.3934C39.7869 80.0811 39.5337 79.8279 39.2213 79.8279H36.959V77.5656C36.959 77.2532 36.7058 77 36.3934 77Z" fill="#FF8300"/>
<path fill-rule="evenodd" clip-rule="evenodd" d="M39.3934 7C39.0811 7 38.8279 7.25322 38.8279 7.56557V9.82787H36.5656C36.2532 9.82787 36 10.0811 36 10.3934C36 10.7058 36.2532 10.959 36.5656 10.959H38.8279V13.2213C38.8279 13.5337 39.0811 13.7869 39.3934 13.7869C39.7058 13.7869 39.959 13.5337 39.959 13.2213V10.959H42.2213C42.5337 10.959 42.7869 10.7058 42.7869 10.3934C42.7869 10.0811 42.5337 9.82787 42.2213 9.82787H39.959V7.56557C39.959 7.25322 39.7058 7 39.3934 7Z" fill="#FF8300"/>
<circle cx="2.82787" cy="77.8279" r="2.32787" stroke="#FF8300"/>
<circle cx="86.8279" cy="2.82787" r="2.32787" stroke="#FF8300"/>
<circle cx="131" cy="6" r="0.5" stroke="#FF8300"/>
<circle cx="134.828" cy="72.5329" r="2.32787" stroke="#FF8300"/>
<circle cx="5.82787" cy="35.8279" r="2.32787" stroke="#FF8300"/>
<circle cx="36.8279" cy="105.828" r="2.32787" stroke="#FF8300"/>
<g clip-path="url(#clip0)">
<path d="M55.817 27.1103H64.4631V24.5362C64.4631 23.4553 64.9026 22.4734 65.6156 21.7602C66.3242 21.0516 67.3062 20.6077 68.3916 20.6077C69.4723 20.6077 70.4546 21.0517 71.163 21.7602C71.876 22.4734 72.32 23.4553 72.32 24.5362V27.1103H80.9616V24.5362C80.9616 23.4553 81.4057 22.4734 82.1141 21.7602C82.8272 21.0516 83.8093 20.6077 84.89 20.6077C85.9708 20.6077 86.9529 21.0517 87.6661 21.7602C88.3791 22.4734 88.8186 23.4553 88.8186 24.5362V27.1103H97.4646V24.5675C97.4646 23.4868 97.9041 22.5045 98.6171 21.7915C99.3255 21.0831 100.308 20.6391 101.393 20.6391C102.474 20.6391 103.456 21.0831 104.165 21.7915C104.878 22.5045 105.322 23.4868 105.322 24.5675V27.1103H106.622C108.457 27.1103 110.12 27.8591 111.327 29.0611C112.533 30.2674 113.282 31.9312 113.282 33.7651V46.1292C113.282 46.784 112.748 47.3176 112.093 47.3176C111.439 47.3176 110.905 46.784 110.905 46.1292V42.7074H79.3291C78.6699 42.7074 78.1407 42.1782 78.1407 41.5235C78.1407 40.8643 78.6699 40.3351 79.3291 40.3351H110.905V33.7653C110.905 32.5859 110.425 31.5186 109.649 30.7426C108.869 29.9624 107.801 29.4825 106.622 29.4825H105.321V32.0209C105.321 33.1016 104.878 34.0837 104.164 34.7967C103.456 35.5098 102.474 35.9493 101.393 35.9493C100.308 35.9493 99.3254 35.5098 98.6168 34.7967C97.9038 34.0837 97.4643 33.1016 97.4643 32.0209V29.4825H88.8183V31.9894C88.8183 33.0703 88.3788 34.0522 87.6658 34.7654C86.9526 35.474 85.9705 35.9179 84.8897 35.9179C83.809 35.9179 82.8269 35.4739 82.1138 34.7654C81.4052 34.0522 80.9613 33.0703 80.9613 31.9894V29.4825H72.3196V31.9894C72.3196 33.0703 71.8757 34.0522 71.1627 34.7654C70.4541 35.474 69.472 35.9179 68.3913 35.9179C67.306 35.9179 66.3239 35.4739 65.6153 34.7654C64.9023 34.0522 64.4628 33.0703 64.4628 31.9894V29.4825H55.817V31.9894C55.817 33.0703 55.3729 34.0522 54.6645 34.7654C53.9515 35.474 52.9693 35.9179 51.8885 35.9179C50.8078 35.9179 49.8255 35.4739 49.1125 34.7654C48.4039 34.0522 47.96 33.0703 47.96 31.9894V29.4825H46.655C45.48 29.4825 44.4082 29.9624 43.6325 30.7426C42.8567 31.5185 42.3723 32.5857 42.3723 33.7653V40.3353H73.9526C74.6074 40.3353 75.141 40.8645 75.141 41.5237C75.141 42.1785 74.6074 42.7075 73.9526 42.7075H42.3724V77.7453C42.3724 78.4001 41.8432 78.9293 41.1886 78.9293C40.5338 78.9293 40.0002 78.3999 40.0002 77.7453V33.7653C40 31.9312 40.7489 30.2674 41.9552 29.0611C43.1615 27.8591 44.8254 27.1103 46.655 27.1103H47.96V24.5362C47.96 23.4553 48.3995 22.4734 49.1125 21.7602C49.8255 21.0516 50.8078 20.6077 51.8885 20.6077C52.9693 20.6077 53.9513 21.0517 54.6645 21.7602C55.3731 22.4734 55.817 23.4553 55.817 24.5362V27.1103ZM103.102 73.2294C103.102 72.5746 103.631 72.0455 104.286 72.0455C104.945 72.0455 105.474 72.5747 105.474 73.2294V83.6784C105.474 84.0012 105.349 84.2882 105.138 84.5037L97.8865 93.0331C97.4649 93.5355 96.7206 93.5982 96.2183 93.1721C95.7206 92.7507 95.6576 92.0063 96.0792 91.5039L103.102 83.2479V73.2294ZM95.8686 72.0678C95.3349 72.4535 94.5949 72.3325 94.2138 71.8033C93.8281 71.274 93.9447 70.5342 94.4784 70.1485C95.8777 69.1305 97.4426 68.3277 99.1289 67.7807C100.757 67.2513 102.492 66.9643 104.286 66.9643C106.641 66.9643 108.878 67.4488 110.906 68.3277V51.5017C110.906 50.8469 111.439 50.3177 112.094 50.3177C112.749 50.3177 113.282 50.8471 113.282 51.5017V69.5878C114.305 70.2426 115.251 71.005 116.108 71.8615C119.13 74.8842 121 79.0637 121 83.6784C121 88.293 119.13 92.4725 116.107 95.4952C113.08 98.5224 108.905 100.392 104.286 100.392C99.6714 100.392 95.4962 98.5224 92.4692 95.4952C91.3213 94.3471 90.3391 93.0329 89.5633 91.5891H46.1707C44.4711 91.5891 42.9283 90.8986 41.8117 89.7818C40.6951 88.6608 40 87.1224 40 85.4229V83.1178C40 82.463 40.5338 81.9342 41.1884 81.9342C41.8431 81.9342 42.3723 82.4632 42.3723 83.1178V85.4229C42.3723 86.4632 42.8027 87.414 43.489 88.1001C44.1796 88.7907 45.1259 89.2169 46.1707 89.2169H88.5139C87.9041 87.4858 87.5722 85.6205 87.5722 83.6784C87.5722 81.9743 87.8324 80.3238 88.3122 78.7635C88.8099 77.1534 89.541 75.6467 90.4647 74.2877C90.8324 73.7451 91.5723 73.606 92.1104 73.974C92.6486 74.3417 92.7875 75.0816 92.4198 75.6198C91.6261 76.7902 90.9984 78.0818 90.5722 79.4586C90.1686 80.7861 89.949 82.2033 89.949 83.6785C89.949 87.6385 91.5543 91.2261 94.1463 93.8181C96.7429 96.4147 100.326 98.0201 104.286 98.0201C108.246 98.0201 111.833 96.4147 114.43 93.8181C117.022 91.2261 118.628 87.6385 118.628 83.6785C118.628 79.7187 117.022 76.131 114.43 73.539C111.833 70.9424 108.246 69.3369 104.286 69.3369C102.739 69.3369 101.25 69.5837 99.8596 70.0321C98.4157 70.5029 97.0704 71.1934 95.8686 72.0678ZM90.6755 47.7436H104.685C105.34 47.7436 105.874 48.2728 105.874 48.9275V62.9373C105.874 63.5965 105.34 64.1257 104.685 64.1257H90.6755C90.0207 64.1257 89.487 63.5965 89.487 62.9373V48.9275C89.4872 48.2728 90.0208 47.7436 90.6755 47.7436ZM103.501 50.1159H91.8639V61.7535H103.501V50.1159ZM69.6338 67.7987H83.6437C84.3029 67.7987 84.8321 68.3323 84.8321 68.9871V82.9968C84.8321 83.6516 84.3029 84.1852 83.6437 84.1852H69.6338C68.979 84.1852 68.45 83.6516 68.45 82.9968V68.9871C68.45 68.3323 68.9792 67.7987 69.6338 67.7987ZM82.4598 70.1754H70.8224V81.813H82.4598V70.1754ZM69.6338 47.7436H83.6437C84.3029 47.7436 84.8321 48.2728 84.8321 48.9275V62.9373C84.8321 63.5965 84.3029 64.1257 83.6437 64.1257H69.6338C68.979 64.1257 68.45 63.5965 68.45 62.9373V48.9275C68.45 48.2728 68.9792 47.7436 69.6338 47.7436ZM82.4598 50.1159H70.8224V61.7535H82.4598V50.1159ZM48.5923 67.7987H62.6064C63.2612 67.7987 63.7904 68.3323 63.7904 68.9871V82.9968C63.7904 83.6516 63.2612 84.1852 62.6064 84.1852H48.5923C47.9375 84.1852 47.4085 83.6516 47.4085 82.9968V68.9871C47.4085 68.3323 47.9377 67.7987 48.5923 67.7987ZM61.4182 70.1754H49.7808V81.813H61.4182V70.1754ZM48.5923 47.7436H62.6064C63.2612 47.7436 63.7904 48.2728 63.7904 48.9275V62.9373C63.7904 63.5965 63.2612 64.1257 62.6064 64.1257H48.5923C47.9375 64.1257 47.4085 63.5965 47.4085 62.9373V48.9275C47.4085 48.2728 47.9377 47.7436 48.5923 47.7436ZM61.4182 50.1159H49.7808V61.7535H61.4182V50.1159ZM101.394 23.0158C100.968 23.0158 100.577 23.1906 100.295 23.4732C100.012 23.7558 99.8373 24.1416 99.8373 24.5675V28.2943V32.0211C99.8373 32.447 100.012 32.8371 100.295 33.1196C100.577 33.4022 100.968 33.5772 101.394 33.5772C101.819 33.5772 102.205 33.4023 102.488 33.1196C102.77 32.8371 102.945 32.447 102.945 32.0211V28.2943V24.5675C102.945 24.1416 102.77 23.7558 102.488 23.4732C102.205 23.1908 101.82 23.0158 101.394 23.0158ZM52.9874 23.4374C52.7048 23.1551 52.3147 22.9801 51.8886 22.9801C51.4628 22.9801 51.0725 23.1549 50.7899 23.4374C50.5074 23.72 50.3326 24.1101 50.3326 24.5362V28.2943V31.9896C50.3326 32.4156 50.5074 32.8058 50.7899 33.0883C51.0725 33.3707 51.4628 33.5457 51.8886 33.5457C52.3147 33.5457 52.7048 33.3709 52.9874 33.0883C53.2699 32.8058 53.4447 32.4156 53.4447 31.9896V28.2943V24.5362C53.4447 24.11 53.2698 23.72 52.9874 23.4374ZM68.3918 22.9801C67.9611 22.9801 67.5756 23.1549 67.293 23.4374C67.0105 23.72 66.8357 24.1101 66.8357 24.5362V28.2943V31.9896C66.8357 32.4156 67.0105 32.8058 67.293 33.0883C67.5756 33.3707 67.9613 33.5457 68.3918 33.5457C68.8176 33.5457 69.2033 33.3709 69.4859 33.0883C69.7684 32.8058 69.9434 32.4156 69.9434 31.9896V28.2943V24.5362C69.9434 24.1101 69.7686 23.72 69.4859 23.4374C69.2033 23.1549 68.8176 22.9801 68.3918 22.9801ZM84.8903 22.9801C84.4644 22.9801 84.0741 23.1549 83.7917 23.4374C83.5092 23.72 83.3342 24.1101 83.3342 24.5362V28.2943V31.9896C83.3342 32.4156 83.509 32.8058 83.7917 33.0883C84.0741 33.3707 84.4644 33.5457 84.8903 33.5457C85.3163 33.5457 85.7065 33.3709 85.989 33.0883C86.2716 32.8058 86.4465 32.4156 86.4465 31.9896V28.2943V24.5362C86.4465 24.1101 86.2717 23.72 85.989 23.4374C85.7065 23.1549 85.3163 22.9801 84.8903 22.9801Z" fill="#FF8300"/>
</g>
<defs>
<clipPath id="clip0">
<rect width="81" height="81" fill="white" transform="translate(40 20)"/>
</clipPath>
</defs>
</svg>
