<svg width="422" height="97" viewBox="0 0 422 97" fill="none" xmlns="http://www.w3.org/2000/svg">
<path fill-rule="evenodd" clip-rule="evenodd" d="M0.568115 4.33537C0.568115 2.12884 2.35686 0.340088 4.5634 0.340088H49.1907C61.1659 0.340088 72.5583 4.51669 80.9713 12.827C89.4125 21.165 94.5583 33.37 94.5583 48.8577C94.5583 62.4135 90.5393 73.4205 83.7679 81.5108C77.0087 89.5864 67.7049 94.5176 57.5467 96.2712L57.5463 96.2712C54.735 96.7563 51.8567 97.0001 48.9448 97.0001C46.7383 97.0001 44.9496 95.2113 44.9496 93.0048C44.9496 90.7983 46.7383 89.0095 48.9448 89.0095C51.411 89.0095 53.8343 88.8031 56.1874 88.3971C64.6666 86.9333 72.2109 82.8691 77.6404 76.3822C83.0575 69.91 86.5678 60.7874 86.5678 48.8577C86.5678 35.2063 82.0765 25.1501 75.356 18.5118C68.6074 11.8457 59.3136 8.33065 49.1907 8.33065H8.55868V89.0095H26.383C28.5896 89.0095 30.3783 90.7983 30.3783 93.0048C30.3783 95.2113 28.5896 97.0001 26.383 97.0001H4.5634C2.35686 97.0001 0.568115 95.2113 0.568115 93.0048V4.33537Z" fill="#FF8300"/>
<path d="M47.2962 23.5123H47.3821L47.4681 23.5132L47.5543 23.514L47.6404 23.5156L47.7262 23.5172L47.8119 23.5189L47.8979 23.5213L47.9836 23.5238L48.0692 23.5262L48.1551 23.5287L48.2404 23.5319L48.3259 23.536L48.4114 23.5393L48.4969 23.5433L48.5822 23.5474L48.6675 23.5523L48.7526 23.5572L48.8378 23.5621L48.9228 23.5678L49.0079 23.5727L49.0929 23.5792L49.1777 23.5849L49.2625 23.5914L49.3472 23.598L49.432 23.6053L49.5166 23.6126L49.6011 23.62L49.6855 23.6281L49.7702 23.6355L49.8545 23.6445L49.9386 23.6526L50.0228 23.6616L50.107 23.6705L50.1911 23.6803L50.275 23.6901L50.3588 23.6999L50.4428 23.7097L50.5265 23.7203L50.6101 23.7309L50.6937 23.7423L50.7775 23.7529L50.8609 23.7651L50.9441 23.7766L51.0274 23.7888L51.1106 23.801L51.1939 23.8133L51.2768 23.8263L51.3599 23.8394L51.4429 23.8524L51.5256 23.8663L51.6083 23.8801L51.6909 23.894L51.7735 23.9087L51.856 23.9233L51.9385 23.938L52.0208 23.9535L52.103 23.969L52.1851 23.9845L52.2673 24L52.3491 24.0163L52.431 24.0326L52.513 24.0497L52.5946 24.0661L52.6762 24.0832L52.7577 24.1011L52.8391 24.1182L52.9206 24.1362L53.0019 24.1549L53.0829 24.1729L53.1641 24.1916L53.2452 24.2104L53.326 24.23L53.4067 24.2495L53.4874 24.2691L53.5681 24.2887L53.6486 24.3091L53.7291 24.3295L53.8095 24.3498L53.8896 24.371L53.9696 24.3922L54.0498 24.4134L54.1296 24.4355L54.2093 24.4575L54.2893 24.4795L54.3691 24.5015L54.4484 24.5243L54.5278 24.5472L54.6073 24.57L54.6865 24.5937L54.7656 24.6173L54.8447 24.641L54.9236 24.6654L55.0023 24.6891L55.0811 24.7144L55.1598 24.7388L55.2383 24.7641L55.3167 24.7894L55.395 24.8147L55.4732 24.8408L55.5513 24.866L55.6292 24.8929L55.7071 24.919L55.7848 24.9459L55.8625 24.9729L55.9401 24.9998L56.0176 25.0275L56.095 25.0552L56.1721 25.083L56.2491 25.1107L56.3262 25.1392L56.4031 25.1678L56.4799 25.1963L56.5566 25.2257L56.6329 25.255L56.7095 25.2844L56.7858 25.3145L56.862 25.3439L56.9381 25.3741L57.0141 25.4043L57.0899 25.4352L57.1657 25.4662L57.2414 25.4972L57.3168 25.5282L57.3921 25.56L57.4675 25.5918L57.5427 25.6236L57.6176 25.6562L57.6927 25.6888L57.7674 25.7215L57.8421 25.7541L57.9167 25.7875L57.991 25.8201L58.0651 25.8536L58.1394 25.8878L58.2137 25.9221L58.2875 25.9563L58.3614 25.9906L58.435 26.0248L58.5085 26.0599L58.5822 26.095L58.6554 26.13L58.7286 26.1659L58.8017 26.2018L58.8747 26.2377L58.9474 26.2735L59.02 26.3102L59.0927 26.3469L59.1651 26.3836L59.2373 26.4203L59.3096 26.4578L59.3817 26.4954L59.4537 26.5329L59.5254 26.5712L59.5969 26.6087L59.6686 26.6478L59.74 26.6862L59.8112 26.7245L59.8822 26.7636L59.9534 26.8028L60.0242 26.8419L60.095 26.8819L60.1655 26.9218L60.2359 26.9618L60.3064 27.0018L60.3766 27.0425L60.4466 27.0833L60.5165 27.1241L60.5863 27.1649L60.6559 27.2064L60.7256 27.248L60.7948 27.2888L60.8641 27.3312L60.9333 27.3736L61.0021 27.4152L61.0709 27.4576L61.1397 27.5008L61.2083 27.5432L61.2767 27.5865L61.3449 27.6297L61.413 27.6729L61.481 27.7169L61.5489 27.761L61.6167 27.805L61.6841 27.849L61.7515 27.8939L61.8189 27.9387L61.886 27.9836L61.953 28.0285L62.0198 28.0733L62.0865 28.119L62.1529 28.1646L62.2195 28.2111L62.2858 28.2568L62.3518 28.3033L62.4178 28.3497L62.4837 28.3962L62.5493 28.4427L62.6148 28.49L62.6801 28.5373L62.7453 28.5846L62.8106 28.6327L62.8755 28.68L62.9402 28.7281L63.0049 28.7762L63.0693 28.8244L63.1337 28.8733L63.1977 28.9222L63.2618 28.9711L63.3258 29.0201L63.3895 29.069L63.4531 29.1187L63.5164 29.1685L63.5797 29.2182L63.6429 29.2688L63.7057 29.3185L63.7685 29.3691L63.8312 29.4197L63.8937 29.471L63.956 29.5216L64.0182 29.573L64.0802 29.6243L64.1421 29.6757L64.2038 29.7271L64.2653 29.7793L64.3267 29.8315L64.3879 29.8837L64.4491 29.9358L64.5101 29.9889L64.5707 30.0419L64.6312 30.0949L64.6918 30.1479L64.752 30.2009L64.812 30.2547L64.872 30.3085L64.9319 30.3623L64.9915 30.4162L65.051 30.4708L65.1103 30.5254L65.1695 30.5801L65.2285 30.6347L65.2871 30.6893L65.3459 30.7448L65.4045 30.8002L65.4626 30.8549L65.5208 30.9112L65.5789 30.9666L65.6367 31.0229L65.6943 31.0791L65.7517 31.1354L65.8091 31.1917L65.8662 31.2488L65.9232 31.305L65.9801 31.3621L66.0368 31.42L66.0933 31.4771L66.1495 31.5342L66.2057 31.5921L66.2615 31.65L66.3174 31.7079L66.3731 31.7666L66.4286 31.8245L66.4838 31.8832L66.5388 31.9419L66.5939 32.0006L66.6486 32.0602L66.7031 32.1189L66.7576 32.1784L66.8119 32.2379L66.8659 32.2975L66.9198 32.3578L66.9735 32.4173L67.027 32.4777L67.0805 32.538L67.1337 32.5984L67.1866 32.6595L67.2395 32.7199L67.2922 32.781L67.3446 32.8422L67.3969 32.9034L67.449 32.9653L67.501 33.0265L67.5528 33.0885L67.6044 33.1505L67.6558 33.2124L67.707 33.2752L67.758 33.3372L67.8089 33.4L67.8597 33.4628L67.9101 33.5256L67.9604 33.5884L68.0106 33.652L68.0606 33.7156L68.1104 33.7784L68.1599 33.8428L68.2093 33.9064L68.2585 33.97L68.3075 34.0344L68.3564 34.0989L68.4051 34.1633L68.4535 34.2277L68.5019 34.2921L68.5499 34.3574L68.5978 34.4226L68.6455 34.4878L68.6931 34.5531L68.7404 34.6183L68.7876 34.6844L68.8346 34.7504L68.8814 34.8157L68.9279 34.8817L68.9744 34.9486L69.0206 35.0146L69.0665 35.0807L69.1125 35.1476L69.158 35.2144L69.2034 35.2813L69.2487 35.3482L69.2938 35.4158L69.3388 35.4835L69.3832 35.5504L69.4278 35.6189L69.4721 35.6866L69.5161 35.7543L69.56 35.8228L69.6036 35.8905L69.6473 35.959L69.6905 36.0275L69.7336 36.0968L69.7765 36.1653L69.8191 36.2338L69.8617 36.3031L69.9041 36.3724L69.9461 36.4417L69.988 36.5118L70.0297 36.5812L70.0712 36.6513L70.1125 36.7206L70.1536 36.7907L70.1946 36.8609L70.2353 36.9318L70.2759 37.0019L70.3161 37.0729L70.3561 37.143L70.3961 37.214L70.4357 37.2849L70.4752 37.3567L70.5145 37.4276L70.5536 37.4994L70.5924 37.5703L70.631 37.6421L70.6695 37.7139L70.7078 37.7864L70.7458 37.8582L70.7838 37.9308L70.8213 38.0025L70.8587 38.0751L70.8959 38.1477L70.9327 38.2203L70.9697 38.2937L71.0064 38.3662L71.0426 38.4396L71.0788 38.5122L71.1147 38.5864L71.1505 38.6598L71.186 38.7332L71.2212 38.8066L71.2564 38.8808L71.2913 38.955L71.3259 39.0284L71.3603 39.1026L71.3947 39.1776L71.4285 39.2518L71.4624 39.3269L71.4961 39.4011L71.5293 39.4761L71.5625 39.5511L71.5955 39.6261L71.6281 39.7012L71.6608 39.777L71.693 39.852L71.7249 39.9271L71.7568 40.0029L71.7885 40.0796L71.82 40.1546L71.8511 40.2312L71.882 40.3071L71.9129 40.3837L71.9434 40.4596L71.9736 40.5362L72.0037 40.6129L72.0337 40.6895L72.0632 40.7662L72.0927 40.8437L72.1219 40.9203L72.1507 40.9978L72.1794 41.0744L72.208 41.1519L72.2363 41.2302L72.2644 41.3077L72.2922 41.3851L72.3197 41.4626L72.3471 41.5409L72.3743 41.6192L72.4012 41.6975L72.4279 41.7757L72.4544 41.854L72.4806 41.9323L72.5066 42.0114L72.5323 42.0897L72.5578 42.1688L72.5832 42.2479L72.6083 42.3262L72.6331 42.4053L72.6577 42.4852L72.6821 42.5643L72.7062 42.6434L72.7302 42.7233L72.7538 42.8032L72.7773 42.8823L72.8005 42.9623L72.8235 43.0422L72.8462 43.1229L72.8687 43.2028L72.891 43.2827L72.9129 43.3627L72.9348 43.4434L72.9563 43.5241L72.9776 43.6049L72.9988 43.6856L73.0195 43.7663L73.0401 43.8471L73.0605 43.9286L73.0806 44.0093L73.1005 44.0909L73.1201 44.1716L73.1395 44.2532L73.1586 44.3347L73.1775 44.4163L73.1962 44.4986L73.2145 44.5802L73.2327 44.6617L73.2508 44.7441L73.2684 44.8256L73.2858 44.908L73.303 44.9903L73.32 45.0727L73.3366 45.1551L73.3531 45.2374L73.3694 45.3198L73.3853 45.403L73.401 45.4853L73.4165 45.5677L73.4316 45.6509L73.4467 45.7341L73.4614 45.8172L73.4759 45.9004L73.49 45.9836L73.504 46.0668L73.5178 46.15L73.5312 46.2339L73.5444 46.3171L73.5574 46.4011L73.5702 46.4851L73.5826 46.5691L73.5947 46.6523L73.6067 46.7363L73.6184 46.8211L73.6298 46.9043L73.641 46.9891L73.652 47.0739L73.6626 47.1579L73.673 47.2419L73.6832 47.3267L73.6931 47.4115L73.7028 47.4955L73.7121 47.5803L73.7212 47.6651L73.7301 47.7499L73.7387 47.8355L73.7472 47.9204L73.7552 48.0052L73.7631 48.0908L73.7706 48.1756L73.7779 48.2612L73.785 48.3468L73.7917 48.4317L73.7983 48.5173L73.8046 48.6029L73.8106 48.6885L73.8163 48.7742L73.8218 48.8606L73.827 48.9462L73.832 49.0318L73.8366 49.1183L73.841 49.2039L73.8452 49.2895L73.8491 49.376L73.8527 49.4624L73.8561 49.548L73.8592 49.6353L73.862 49.7217L73.8646 49.8082L73.8669 49.8946L73.8689 49.9811L73.8706 50.0675L73.8721 50.1539L73.8733 50.2412L73.8743 50.3276L73.8749 50.4149L73.8753 50.5013L73.8755 50.5902L73.8753 50.6856L73.8745 50.7835L73.8735 50.8805L73.8719 50.9776L73.8699 51.0746L73.8675 51.1717L73.8646 51.2695L73.8613 51.3666L73.8576 51.4636L73.8535 51.5606L73.849 51.6577L73.844 51.7555L73.8386 51.8526L73.8328 51.9496L73.8267 52.0467L73.82 52.1437L73.813 52.2407L73.8056 52.3386L73.7979 52.4356L73.7897 52.5327L73.7811 52.6297L73.7722 52.7268L73.7629 52.8246L73.7531 52.9217L73.7431 53.0187L73.7326 53.1157L73.7218 53.2128L73.7106 53.3098L73.6991 53.4069L73.6871 53.5039L73.6749 53.601L73.6622 53.6988L73.6491 53.7959L73.6358 53.8921L73.6221 53.9891L73.608 54.087L73.5936 54.184L73.5788 54.2811L73.5638 54.3781L73.5483 54.4751L73.5325 54.5722L73.5164 54.6692L73.5 54.7663L73.4832 54.8633L73.4661 54.9604L73.4487 55.0574L73.4309 55.1544L73.4129 55.2515L73.3944 55.3485L73.3758 55.4456L73.3568 55.5426L73.3374 55.6396L73.3177 55.7375L73.2977 55.8345L73.2775 55.9308L73.2569 56.0278L73.236 56.1249L73.2148 56.2227L73.1933 56.3198L73.1716 56.416L73.1494 56.5138L73.1271 56.6109L73.1044 56.7079L73.0815 56.805L73.0582 56.902L73.0345 56.999L73.0108 57.0961L72.9867 57.1931L72.9623 57.2902L72.9376 57.3872L72.9126 57.4843L72.8874 57.5813L72.8619 57.6783L72.8362 57.7754L72.8101 57.8724L72.7837 57.9695L72.7572 58.0665L72.7303 58.1635L72.7031 58.2606L72.6758 58.3576L72.648 58.4547L72.6201 58.5517L72.592 58.6488L72.5636 58.7458L72.5349 58.8428L72.5059 58.9399L72.4767 59.0369L72.4472 59.1348L72.4175 59.2318L72.3876 59.328L72.3573 59.4251L72.3269 59.5221L72.2962 59.6192L72.2653 59.7162L72.2341 59.8133L72.2027 59.9111L72.1709 60.0082L72.139 60.1052L72.107 60.2022L72.0746 60.2985L72.042 60.3955L72.009 60.4934L71.976 60.5904L71.9428 60.6866L71.9092 60.7845L71.8754 60.8815L71.8415 60.9778L71.8073 61.0748L71.7728 61.1718L71.7382 61.2689L71.7034 61.3659L71.6684 61.463L71.6331 61.56L71.5974 61.657L71.5617 61.7541L71.5257 61.8511L71.4896 61.9482L71.4532 62.0452L71.4166 62.1423L71.3799 62.2385L71.3429 62.3355L71.3056 62.4326L71.2682 62.5296L71.2307 62.6266L71.1928 62.7237L71.1548 62.8199L71.1167 62.917L71.0782 63.014L71.0396 63.111L71.0008 63.2081L70.9618 63.3043L70.9226 63.4013L70.8832 63.4984L70.8437 63.5946L70.8038 63.6917L70.7639 63.7887L70.7238 63.8849L70.6835 63.982L70.643 64.079L70.6023 64.1752L70.5614 64.2723L70.5203 64.3685L70.479 64.4655L70.4377 64.5618L70.3961 64.6588L70.3543 64.755L70.3124 64.8521L70.2703 64.9483L70.228 65.0453L70.1855 65.1416L70.1428 65.2378L70.1 65.334L70.0571 65.4311L70.014 65.5273L69.9706 65.6235L69.9272 65.7197L69.8835 65.8168L69.8397 65.913L69.7959 66.0092L69.7517 66.1055L69.7075 66.2017L69.663 66.2979L69.6184 66.3941L69.5736 66.4904L69.5287 66.5866L69.4837 66.6828L69.4386 66.7782L69.3932 66.8745L69.3476 66.9707L69.302 67.0661L69.2562 67.1623L69.2103 67.2586L69.1642 67.354L69.118 67.4502L69.0716 67.5456L69.025 67.6418L68.9785 67.7372L68.9316 67.8335L68.8847 67.9289L68.8376 68.0243L68.7904 68.1197L68.7431 68.2159L68.6956 68.3113L68.648 68.4067L68.6003 68.5022L68.5524 68.5976L68.5044 68.693L68.4563 68.7884L68.408 68.883L68.3597 68.9784L68.3112 69.0738L68.2626 69.1684L68.2138 69.2638L68.1643 69.36L68.0669 69.5492L67.9684 69.7384L67.8693 69.9284L67.7699 70.1176L67.6699 70.3068L67.5696 70.4952L67.4688 70.6844L67.3676 70.8727L67.266 71.0611L67.1641 71.2487L67.0617 71.4362L66.9589 71.6238L66.8557 71.8114L66.7523 71.9981L66.6484 72.1848L66.5442 72.3708L66.4396 72.5575L66.3348 72.7426L66.2296 72.9286L66.1241 73.1137L66.0183 73.2988L65.9123 73.4831L65.8059 73.6674L65.6992 73.8517L65.5923 74.0352L65.4852 74.2186L65.3778 74.4013L65.2702 74.584L65.1622 74.7666L65.0542 74.9485L64.948 75.1263L64.4326 75.8325L63.7962 76.4318L63.0605 76.9048L62.2505 77.2343L61.3937 77.4088L60.5195 77.4235L59.6574 77.2767L58.8369 76.9741L58.086 76.5264L57.4302 75.9483L56.8918 75.2592L56.4892 74.4829L56.2361 73.6462L56.1411 72.7769L56.2074 71.9051L56.4328 71.0595L56.8096 70.2709L56.9116 70.0997L57.0112 69.9325L57.1104 69.7645L57.2094 69.5965L57.3081 69.4285L57.4066 69.2597L57.5047 69.0917L57.6025 68.9229L57.6998 68.7541L57.7969 68.5853L57.8937 68.4157L57.9901 68.2469L58.0861 68.0773L58.1816 67.9077L58.2769 67.7381L58.3717 67.5692L58.4661 67.3996L58.5601 67.2292L58.6537 67.0596L58.7468 66.89L58.8395 66.7195L58.9317 66.5499L59.0234 66.3803L59.1147 66.2098L59.2055 66.0402L59.2958 65.8698L59.3856 65.7002L59.4749 65.5297L59.5636 65.3601L59.6519 65.1905L59.7403 65.0193L59.7833 64.9353L59.8267 64.8504L59.8702 64.7656L59.9133 64.6808L59.9565 64.596L59.9994 64.5112L60.0422 64.4264L60.0849 64.3416L60.1274 64.2568L60.1698 64.1728L60.2119 64.088L60.254 64.0032L60.2959 63.9184L60.3376 63.8344L60.3792 63.7496L60.4208 63.6647L60.462 63.5808L60.5032 63.4959L60.5442 63.412L60.585 63.3271L60.6257 63.2431L60.6662 63.1592L60.7065 63.0743L60.7466 62.9903L60.7866 62.9064L60.8266 62.8224L60.8661 62.7384L60.9057 62.6544L60.9451 62.5704L60.9842 62.4864L61.0232 62.4024L61.062 62.3184L61.1006 62.2352L61.1392 62.1512L61.1775 62.068L61.2156 61.9841L61.2536 61.9009L61.2913 61.8177L61.3289 61.7337L61.3663 61.6505L61.4036 61.5673L61.4407 61.4842L61.4775 61.401L61.5142 61.3178L61.5507 61.2354L61.587 61.1523L61.623 61.0699L61.659 60.9867L61.6947 60.9044L61.7303 60.822L61.7657 60.7388L61.8008 60.6573L61.8357 60.5749L61.8705 60.4925L61.9051 60.4102L61.9394 60.3278L61.9736 60.2463L62.0076 60.1639L62.0413 60.0824L62.0749 60.0008L62.1083 59.9193L62.1414 59.8377L62.1744 59.7562L62.2072 59.6746L62.2396 59.5939L62.272 59.5132L62.304 59.4316L62.336 59.3509L62.3677 59.2701L62.3992 59.1894L62.4304 59.1087L62.4615 59.028L62.4923 58.948L62.5229 58.8681L62.5533 58.7882L62.5835 58.7083L62.6134 58.6284L62.6431 58.5485L62.6727 58.4685L62.702 58.3894L62.731 58.3103L62.7598 58.2312L62.7885 58.1513L62.8169 58.0722L62.8451 57.9939L62.873 57.9148L62.9007 57.8365L62.9282 57.7574L62.9555 57.68L62.9823 57.6017L63.0092 57.5234L63.0358 57.4451L63.062 57.3676L63.088 57.2902L63.1139 57.2127L63.1396 57.1352L63.165 57.0586L63.19 56.9811L63.2149 56.9045L63.2395 56.8278L63.2639 56.7511L63.288 56.6753L63.3119 56.5986L63.3356 56.5228L63.359 56.447L63.3822 56.3711L63.4051 56.2961L63.4278 56.2203L63.4502 56.1452L63.4724 56.0702L63.4942 55.9952L63.516 55.921L63.5375 55.846L63.5586 55.7726L63.5795 55.6984L63.6001 55.6242L63.6206 55.5508L63.6407 55.4766L63.6607 55.4032L63.6803 55.3306L63.6996 55.2572L63.7188 55.1846L63.7376 55.112L63.7562 55.0395L63.7745 54.9677L63.7926 54.8959L63.8105 54.8234L63.8281 54.7516L63.8453 54.6807L63.8624 54.6097L63.8791 54.5388L63.8957 54.4678L63.912 54.3977L63.9279 54.3275L63.9437 54.2574L63.9592 54.1873L63.9743 54.118L63.9893 54.0487L64.0038 53.9793L64.0183 53.91L64.0324 53.8415L64.0462 53.773L64.0599 53.7053L64.0731 53.6377L64.0862 53.57L64.0991 53.5023L64.1115 53.4346L64.1238 53.3677L64.1358 53.3009L64.1475 53.2348L64.159 53.1688L64.1701 53.1019L64.181 53.0366L64.1916 52.9714L64.202 52.9062L64.2121 52.8409L64.222 52.7765L64.2315 52.7121L64.2407 52.6485L64.2498 52.5841L64.2586 52.5205L64.267 52.4568L64.2753 52.3941L64.2832 52.3313L64.2909 52.2693L64.2983 52.2065L64.3055 52.1445L64.3123 52.0834L64.3189 52.0222L64.3252 51.961L64.3313 51.8999L64.3371 51.8395L64.3426 51.7792L64.3479 51.7197L64.3529 51.6601L64.3577 51.6006L64.3621 51.5419L64.3663 51.4832L64.3703 51.4245L64.374 51.3674L64.3775 51.3095L64.3806 51.2516L64.3835 51.1953L64.3862 51.1382L64.3885 51.082L64.3907 51.0257L64.3926 50.9694L64.3942 50.9148L64.3956 50.8593L64.3968 50.8047L64.3976 50.7501L64.3982 50.6954L64.3986 50.6424L64.3988 50.587L64.3987 50.5307L64.3984 50.4736L64.3979 50.4165L64.3973 50.3586L64.3965 50.3015L64.3955 50.2445L64.3943 50.1874L64.393 50.1303L64.3915 50.0732L64.3899 50.0161L64.388 49.959L64.3859 49.9028L64.3837 49.8457L64.3814 49.7886L64.3788 49.7323L64.3761 49.6753L64.3731 49.619L64.3701 49.5627L64.3668 49.5056L64.3634 49.4494L64.3598 49.3931L64.356 49.3368L64.352 49.2806L64.3479 49.2243L64.3437 49.168L64.3391 49.1118L64.3346 49.0563L64.3298 49L64.3248 48.9438L64.3197 48.8883L64.3144 48.8321L64.3089 48.7766L64.3032 48.7212L64.2974 48.6649L64.2914 48.6094L64.2853 48.554L64.2789 48.4985L64.2724 48.4431L64.2658 48.3884L64.259 48.333L64.252 48.2767L64.2448 48.2221L64.2375 48.1674L64.23 48.112L64.2224 48.0565L64.2146 48.0019L64.2066 47.9473L64.1984 47.8918L64.1901 47.8372L64.1817 47.7825L64.173 47.7279L64.1643 47.6733L64.1553 47.6194L64.1461 47.5648L64.1367 47.5102L64.1273 47.4555L64.1177 47.4017L64.108 47.3479L64.098 47.2933L64.0879 47.2386L64.0777 47.1848L64.0672 47.131L64.0567 47.0772L64.046 47.0233L64.035 46.9695L64.0239 46.9157L64.0127 46.8619L64.0013 46.808L63.9897 46.7542L63.9781 46.7012L63.9663 46.6482L63.9542 46.5944L63.942 46.5414L63.9296 46.4876L63.9173 46.4354L63.9046 46.3816L63.8917 46.3285L63.8788 46.2755L63.8657 46.2225L63.8524 46.1703L63.839 46.1173L63.8254 46.0643L63.8117 46.0121L63.7977 45.9591L63.7837 45.9069L63.7696 45.8548L63.7552 45.8017L63.7407 45.7496L63.726 45.6974L63.7111 45.6452L63.6963 45.593L63.6811 45.5416L63.6658 45.4894L63.6504 45.4372L63.6349 45.3859L63.619 45.3337L63.6032 45.2823L63.5873 45.2309L63.571 45.1787L63.5546 45.1273L63.5381 45.076L63.5216 45.0246L63.5047 44.9732L63.4878 44.9218L63.4707 44.8705L63.4535 44.8199L63.4361 44.7694L63.4185 44.718L63.4009 44.6674L63.3831 44.6169L63.365 44.5655L63.3469 44.5149L63.3287 44.4644L63.3103 44.4138L63.2918 44.3641L63.2731 44.3135L63.2541 44.2629L63.2351 44.2132L63.216 44.1626L63.1967 44.1129L63.1772 44.0623L63.1577 44.0134L63.1379 43.9629L63.118 43.9131L63.098 43.8634L63.0778 43.8144L63.0576 43.7647L63.037 43.7149L63.0165 43.666L62.9959 43.6171L62.9749 43.5673L62.9537 43.5176L62.9327 43.4695L62.9113 43.4197L62.8899 43.3708L62.8684 43.3227L62.8465 43.2738L62.8248 43.2248L62.8028 43.1767L62.7806 43.1278L62.7583 43.0797L62.7359 43.0316L62.7132 42.9826L62.6906 42.9345L62.6678 42.8864L62.6447 42.8383L62.6216 42.791L62.5983 42.7429L62.5749 42.6948L62.5513 42.6475L62.5276 42.5994L62.5038 42.5521L62.4801 42.5048L62.4558 42.4575L62.4315 42.4102L62.4072 42.3629L62.3826 42.3156L62.3581 42.2691L62.3333 42.2218L62.3085 42.1753L62.2834 42.128L62.2582 42.0815L62.2328 42.0351L62.2073 41.9886L62.1819 41.9421L62.1561 41.8956L62.1302 41.8491L62.1044 41.8035L62.0782 41.757L62.0518 41.7113L62.0255 41.6648L61.999 41.6192L61.9725 41.5743L61.9457 41.5287L61.9187 41.483L61.8917 41.4373L61.8646 41.3917L61.8372 41.3468L61.8098 41.3011L61.7822 41.2563L61.7547 41.2114L61.7268 41.1666L61.6989 41.1217L61.6707 41.0769L61.6425 41.032L61.6143 40.988L61.5858 40.9431L61.5572 40.8983L61.5285 40.8543L61.4996 40.8102L61.4708 40.7662L61.4415 40.7221L61.4123 40.6781L61.3831 40.6349L61.3536 40.5909L61.324 40.5468L61.2943 40.5036L61.2645 40.4604L61.2345 40.4172L61.2043 40.3739L61.1742 40.3307L61.1439 40.2875L61.1133 40.2443L61.0829 40.2019L61.0522 40.1595L61.0212 40.1162L60.9903 40.0738L60.9593 40.0314L60.928 39.989L60.8967 39.9466L60.8653 39.905L60.8337 39.8626L60.8021 39.8202L60.7703 39.7786L60.7384 39.7371L60.7064 39.6955L60.6741 39.6539L60.6418 39.6123L60.6095 39.5715L60.577 39.5299L60.5445 39.4891L60.5116 39.4476L60.4787 39.4068L60.4458 39.366L60.4127 39.3252L60.3794 39.2845L60.3461 39.2437L60.3126 39.2037L60.2791 39.163L60.2454 39.123L60.2116 39.083L60.1777 39.0431L60.1437 39.0031L60.1095 38.9632L60.0753 38.9232L60.041 38.8841L60.0064 38.8449L59.9718 38.805L59.9372 38.7658L59.9024 38.7267L59.8674 38.6875L59.8324 38.6492L59.7972 38.6101L59.7619 38.5717L59.7267 38.5326L59.6911 38.4943L59.6554 38.4559L59.6199 38.4176L59.584 38.3793L59.548 38.3418L59.512 38.3034L59.4759 38.2659L59.4397 38.2284L59.4032 38.1901L59.3668 38.1534L59.3302 38.1159L59.2935 38.0784L59.2567 38.0409L59.2198 38.0042L59.1829 37.9675L59.1458 37.9308L59.1086 37.8941L59.0711 37.8574L59.0337 37.8207L58.9962 37.784L58.9586 37.7481L58.921 37.7122L58.8829 37.6755L58.8451 37.6405L58.8071 37.6046L58.7688 37.5687L58.7305 37.5328L58.6922 37.4978L58.6538 37.4627L58.6152 37.4276L58.5766 37.3926L58.5378 37.3575L58.499 37.3224L58.4599 37.2874L58.4208 37.2531L58.3818 37.2189L58.3424 37.1846L58.303 37.1504L58.2635 37.1161L58.224 37.0819L58.1843 37.0484L58.1446 37.0142L58.1047 36.9807L58.0648 36.9473L58.0246 36.9139L57.9844 36.8804L57.9443 36.8478L57.9039 36.8144L57.8634 36.7818L57.823 36.7491L57.7823 36.7157L57.7414 36.6839L57.7007 36.6513L57.6598 36.6187L57.6187 36.5869L57.5776 36.5551L57.5364 36.5224L57.4952 36.4915L57.4538 36.4597L57.4122 36.4278L57.3707 36.3969L57.3291 36.3651L57.2872 36.3341L57.2453 36.3031L57.2034 36.2721L57.1615 36.2419L57.1192 36.2109L57.077 36.1808L57.0347 36.1498L56.9922 36.1196L56.9498 36.0894L56.9074 36.0601L56.8645 36.0299L56.8218 36.0005L56.779 35.9704L56.7361 35.941L56.693 35.9117L56.6499 35.8823L56.6066 35.8538L56.5633 35.8244L56.5202 35.7959L56.4766 35.7673L56.4329 35.7388L56.3894 35.7102L56.3457 35.6817L56.3019 35.654L56.258 35.6254L56.2139 35.5977L56.1698 35.57L56.1257 35.5422L56.0816 35.5145L56.0373 35.4876L55.9928 35.4599L55.9485 35.433L55.9039 35.4061L55.8591 35.3792L55.8146 35.3531L55.7697 35.3261L55.7248 35.3L55.6798 35.274L55.6348 35.2479L55.5896 35.2218L55.5445 35.1957L55.4991 35.1696L55.4537 35.1443L55.4083 35.119L55.3628 35.0937L55.3173 35.0685L55.2714 35.0432L55.2256 35.0187L55.1797 34.9934L55.134 34.969L55.0879 34.9445L55.0418 34.92L54.9957 34.8964L54.9495 34.8719L54.9032 34.8483L54.8567 34.8246L54.8103 34.801L54.7638 34.7773L54.7172 34.7537L54.6704 34.7308L54.6236 34.708L54.5769 34.6852L54.5299 34.6624L54.4828 34.6395L54.4359 34.6167L54.3888 34.5947L54.3414 34.5726L54.2941 34.5506L54.2467 34.5286L54.1995 34.5066L54.1521 34.4854L54.1043 34.4634L54.0566 34.4422L54.0089 34.421L53.961 34.3998L53.9132 34.3786L53.8654 34.3582L53.8172 34.3378L53.7692 34.3174L53.7212 34.297L53.6729 34.2766L53.6245 34.2562L53.5761 34.2367L53.5278 34.2171L53.4792 34.1975L53.4307 34.178L53.382 34.1584L53.3333 34.1396L53.2846 34.1209L53.2359 34.1021L53.1867 34.0825L53.1378 34.0646L53.0887 34.0458L53.0396 34.0279L52.9906 34.01L52.9411 33.992L52.8917 33.9741L52.8425 33.9561L52.793 33.939L52.7436 33.9211L52.694 33.904L52.6443 33.8868L52.5945 33.8705L52.5448 33.8534L52.4948 33.8371L52.4449 33.8208L52.3949 33.8045L52.345 33.7882L52.2949 33.7718L52.2447 33.7564L52.1946 33.7409L52.1442 33.7254L52.0937 33.7099L52.0434 33.6944L51.9929 33.6797L51.9423 33.6642L51.8918 33.6495L51.8411 33.6357L51.7901 33.621L51.7395 33.6063L51.6888 33.5924L51.6377 33.5786L51.5867 33.5647L51.5358 33.5509L51.4845 33.5378L51.4332 33.5239L51.3821 33.5109L51.3308 33.4978L51.2795 33.4848L51.2282 33.4726L51.1767 33.4595L51.1251 33.4473L51.0734 33.4351L51.0218 33.4236L50.9703 33.4114L50.9183 33.3992L50.8664 33.3878L50.8148 33.3763L50.7627 33.3649L50.7107 33.3543L50.6585 33.3429L50.6063 33.3323L50.5543 33.3217L50.5021 33.3111L50.4497 33.3013L50.3974 33.2907L50.3449 33.2809L50.2924 33.2711L50.2399 33.2614L50.1873 33.2516L50.1348 33.2426L50.0821 33.2336L50.0293 33.2247L49.9764 33.2157L49.9235 33.2067L49.8706 33.1986L49.8177 33.1904L49.7645 33.1814L49.7115 33.1741L49.6583 33.166L49.6051 33.1586L49.5517 33.1505L49.4984 33.1431L49.4452 33.1358L49.3918 33.1293L49.3381 33.1227L49.2846 33.1154L49.2311 33.1089L49.1774 33.1032L49.1236 33.0966L49.0698 33.0909L49.0161 33.0852L48.9622 33.0787L48.9081 33.0738L48.8541 33.0681L48.8003 33.0632L48.7462 33.0583L48.6919 33.0534L48.6377 33.0485L48.5835 33.0444L48.5292 33.0395L48.4748 33.0355L48.4204 33.0314L48.3659 33.0281L48.3115 33.0241L48.2568 33.0208L48.2022 33.0175L48.1475 33.0143L48.0927 33.0118L48.0379 33.0086L47.9832 33.0061L47.9283 33.0037L47.8733 33.002L47.8182 32.9996L47.7633 32.998L47.7081 32.9963L47.6529 32.9947L47.5979 32.9931L47.5425 32.9922L47.487 32.9914L47.4318 32.9906L47.3765 32.9898L47.321 32.989H47.2653H47.2098H47.1544H47.0986L47.0431 32.9898L46.9879 32.9906L46.9326 32.9914L46.8771 32.9922L46.8218 32.9931L46.7667 32.9947L46.7115 32.9963L46.6563 32.998L46.6015 32.9996L46.5463 33.002L46.4913 33.0037L46.4365 33.0061L46.3817 33.0086L46.3269 33.0118L46.2721 33.0143L46.2174 33.0175L46.1628 33.0208L46.1081 33.0241L46.0537 33.0281L45.9992 33.0314L45.9448 33.0355L45.8904 33.0395L45.8361 33.0444L45.7819 33.0485L45.7277 33.0534L45.6735 33.0583L45.6193 33.0632L45.5655 33.0681L45.5115 33.0738L45.4573 33.0787L45.4035 33.0852L45.3497 33.0909L45.296 33.0966L45.2422 33.1032L45.1885 33.1089L45.135 33.1154L45.0815 33.1227L45.0278 33.1293L44.9744 33.1358L44.9213 33.1431L44.8678 33.1505L44.8146 33.1586L44.7613 33.166L44.7081 33.1741L44.6551 33.1814L44.602 33.1904L44.549 33.1986L44.4962 33.2067L44.4432 33.2157L44.3904 33.2247L44.3376 33.2336L44.2849 33.2426L44.2323 33.2516L44.1796 33.2614L44.1272 33.2711L44.0747 33.2809L44.0222 33.2907L43.97 33.3013L43.9175 33.3111L43.8653 33.3217L43.8133 33.3323L43.7611 33.3429L43.7089 33.3543L43.6569 33.3649L43.6048 33.3763L43.5531 33.3878L43.5014 33.3992L43.4494 33.4114L43.3977 33.4236L43.3462 33.4351L43.2945 33.4473L43.2429 33.4595L43.1914 33.4726L43.14 33.4848L43.0888 33.4978L43.0375 33.5109L42.9864 33.5239L42.9351 33.5378L42.8838 33.5509L42.8329 33.5647L42.7819 33.5786L42.7308 33.5924L42.6802 33.6063L42.6295 33.621L42.5785 33.6357L42.5277 33.6495L42.4773 33.6642L42.4268 33.6797L42.3762 33.6944L42.3259 33.7099L42.2754 33.7254L42.2251 33.7409L42.1749 33.7564L42.1248 33.7718L42.0746 33.7882L42.0246 33.8045L41.9747 33.8208L41.9248 33.8371L41.8749 33.8534L41.8251 33.8705L41.7753 33.8868L41.7256 33.904L41.676 33.9211L41.6266 33.939L41.5772 33.9561L41.5279 33.9741L41.4785 33.992L41.429 34.01L41.38 34.0279L41.3309 34.0458L41.2818 34.0646L41.2329 34.0825L41.1838 34.1021L41.1351 34.1209L41.0863 34.1396L41.0377 34.1584L40.989 34.178L40.9404 34.1975L40.8918 34.2171L40.8435 34.2367L40.7952 34.2562L40.7467 34.2766L40.6985 34.297L40.6504 34.3174L40.6023 34.3378L40.5543 34.3582L40.5064 34.3786L40.4586 34.3998L40.4108 34.421L40.3629 34.4422L40.3153 34.4634L40.2676 34.4854L40.2201 34.5066L40.1729 34.5286L40.1255 34.5506L40.0781 34.5726L40.0309 34.5947L39.9838 34.6167L39.9369 34.6395L39.8897 34.6624L39.8427 34.6852L39.796 34.708L39.7493 34.7308L39.7025 34.7537L39.6559 34.7773L39.6093 34.801L39.5629 34.8246L39.5164 34.8483L39.4702 34.8719L39.4239 34.8964L39.3778 34.92L39.3317 34.9445L39.2857 34.969L39.2398 34.9934L39.1939 35.0187L39.1482 35.0432L39.1024 35.0685L39.0568 35.0937L39.0113 35.119L38.9659 35.1443L38.9205 35.1696L38.8751 35.1957L38.83 35.2218L38.7849 35.2479L38.7399 35.274L38.6948 35.3L38.6499 35.3261L38.6052 35.3531L38.5604 35.3792L38.5157 35.4061L38.4712 35.433L38.4268 35.4599L38.3822 35.4876L38.338 35.5145L38.2938 35.5422L38.2498 35.57L38.2056 35.5977L38.1615 35.6254L38.1178 35.654L38.0739 35.6817L38.0302 35.7102L37.9867 35.7388L37.943 35.7673L37.8994 35.7959L37.8563 35.8244L37.8129 35.8538L37.7697 35.8823L37.7266 35.9117L37.6835 35.941L37.6407 35.9704L37.5979 35.9997L37.5552 36.0299L37.5122 36.0601L37.4697 36.0894L37.4273 36.1196L37.385 36.1498L37.3426 36.1808L37.3003 36.2109L37.2581 36.2419L37.2162 36.2721L37.1743 36.3031L37.1325 36.3341L37.0905 36.3651L37.0489 36.3969L37.0074 36.4278L36.9659 36.4597L36.9244 36.4915L36.8832 36.5224L36.842 36.5551L36.8008 36.5869L36.7598 36.6187L36.719 36.6513L36.6781 36.6839L36.6373 36.7165L36.5967 36.7491L36.5562 36.7818L36.5158 36.8144L36.4754 36.847L36.4351 36.8804L36.3949 36.9139L36.3549 36.9473L36.3149 36.9807L36.2751 37.0142L36.2353 37.0484L36.1955 37.0819L36.156 37.1161L36.1166 37.1504L36.0772 37.1846L36.038 37.2189L35.9988 37.2531L35.9597 37.2874L35.9207 37.3224L35.8818 37.3575L35.843 37.3926L35.8044 37.4276L35.7659 37.4627L35.7274 37.4978L35.689 37.5328L35.6508 37.5687L35.6126 37.6046L35.5745 37.6405L35.5366 37.6763L35.4987 37.7122L35.4611 37.7481L35.4234 37.784L35.3858 37.8207L35.3484 37.8574L35.3111 37.8941L35.2739 37.9308L35.2369 37.9675L35.1997 38.0042L35.1629 38.0409L35.1261 38.0784L35.0894 38.1159L35.0529 38.1526L35.0164 38.1901L34.9799 38.2284L34.9437 38.2659L34.9076 38.3034L34.8716 38.3418L34.8356 38.3793L34.7997 38.4176L34.7641 38.4559L34.7286 38.4943L34.693 38.5326L34.6577 38.5717L34.6223 38.6101L34.5872 38.6492L34.5523 38.6875L34.5172 38.7267L34.4824 38.7658L34.4478 38.805L34.4131 38.8449L34.3786 38.8841L34.3443 38.9232L34.3101 38.9632L34.2758 39.0031L34.2418 39.0431L34.208 39.083L34.1742 39.123L34.1405 39.163L34.107 39.2037L34.0736 39.2437L34.0402 39.2845L34.0069 39.3252L33.9738 39.366L33.9408 39.4068L33.9081 39.4476L33.8752 39.4883L33.8426 39.5299L33.8101 39.5715L33.7777 39.6123L33.7454 39.6539L33.7133 39.6955L33.6813 39.7371L33.6493 39.7786L33.6175 39.8202L33.5859 39.8626L33.5543 39.905L33.5229 39.9466L33.4916 39.989L33.4603 40.0314L33.4293 40.0738L33.3983 40.1162L33.3674 40.1595L33.3367 40.2019L33.3064 40.2443L33.2758 40.2875L33.2453 40.3307L33.2153 40.3739L33.1852 40.4172L33.1551 40.4604L33.1253 40.5036L33.0956 40.5468L33.066 40.5909L33.0365 40.6349L33.0073 40.6781L32.9781 40.7221L32.9488 40.7662L32.92 40.8102L32.8912 40.8543L32.8624 40.8983L32.8338 40.9431L32.8053 40.988L32.777 41.032L32.7488 41.0769L32.7207 41.1217L32.6928 41.1666L32.665 41.2114L32.6374 41.2563L32.6099 41.3011L32.5824 41.3468L32.555 41.3917L32.5279 41.4373L32.5009 41.483L32.4739 41.5287L32.447 41.5743L32.4205 41.6192L32.3941 41.6648L32.3677 41.7113L32.3415 41.757L32.3153 41.8035L32.2893 41.85L32.2635 41.8956L32.2377 41.9421L32.2123 41.9886L32.1868 42.0351L32.1614 42.0815L32.1363 42.128L32.1112 42.1753L32.0864 42.2218L32.0616 42.2691L32.0369 42.3156L32.0124 42.3629L31.9881 42.4102L31.9639 42.4575L31.9396 42.5048L31.9158 42.5521L31.892 42.5994L31.8682 42.6475L31.8447 42.6948L31.8214 42.7429L31.798 42.791L31.7749 42.8383L31.7519 42.8864L31.7291 42.9345L31.7064 42.9826L31.6838 43.0316L31.6614 43.0797L31.6391 43.1278L31.6169 43.1767L31.5948 43.2248L31.573 43.2738L31.5513 43.3227L31.5297 43.3708L31.5082 43.4197L31.4869 43.4695L31.4658 43.5184L31.4447 43.5673L31.4238 43.6163L31.4031 43.666L31.3825 43.7149L31.3621 43.7647L31.3418 43.8144L31.3216 43.8634L31.3016 43.9131L31.2817 43.9629L31.2619 44.0126L31.2424 44.0623L31.223 44.1129L31.2036 44.1626L31.1845 44.2132L31.1655 44.2629L31.1466 44.3135L31.1279 44.3641L31.1093 44.4138L31.0909 44.4644L31.0726 44.5149L31.0546 44.5655L31.0366 44.616L31.0188 44.6674L31.001 44.718L30.9835 44.7694L30.9662 44.8199L30.9489 44.8713L30.9318 44.9218L30.9149 44.9732L30.8981 45.0246L30.8815 45.076L30.865 45.1273L30.8486 45.1787L30.8324 45.2309L30.8164 45.2823L30.8005 45.3337L30.7847 45.3859L30.7692 45.4372L30.7538 45.4894L30.7386 45.5416L30.7234 45.593L30.7085 45.6452L30.6936 45.6974L30.6789 45.7496L30.6645 45.8017L30.6501 45.8548L30.6359 45.9069L30.6219 45.9591L30.6079 46.0121L30.5941 46.0651L30.5806 46.1173L30.5673 46.1703L30.5539 46.2225L30.5409 46.2755L30.5278 46.3285L30.515 46.3816L30.5024 46.4346L30.4899 46.4876L30.4775 46.5414L30.4654 46.5944L30.4534 46.6482L30.4415 46.7012L30.4298 46.755L30.4183 46.808L30.4069 46.8619L30.3957 46.9157L30.3846 46.9695L30.3737 47.0233L30.3629 47.0772L30.3523 47.131L30.342 47.1848L30.3317 47.2386L30.3216 47.2933L30.3116 47.3471L30.3019 47.4017L30.2922 47.4555L30.2829 47.5102L30.2735 47.5648L30.2644 47.6194L30.2554 47.6733L30.2466 47.7279L30.238 47.7825L30.2295 47.8372L30.2212 47.8918L30.213 47.9473L30.2051 48.0019L30.1972 48.0565L30.1896 48.112L30.1821 48.1666L30.1748 48.2221L30.1676 48.2775L30.1606 48.333L30.1538 48.3876L30.1472 48.4431L30.1407 48.4985L30.1344 48.554L30.1282 48.6094L30.1222 48.6649L30.1164 48.7212L30.1107 48.7766L30.1052 48.8321L30.0999 48.8883L30.0948 48.9438L30.0899 49L30.0851 49.0563L30.0804 49.1118L30.076 49.168L30.0716 49.2243L30.0676 49.2806L30.0636 49.3368L30.0598 49.3931L30.0562 49.4494L30.0528 49.5056L30.0496 49.5627L30.0465 49.619L30.0435 49.6753L30.0409 49.7323L30.0382 49.7886L30.0359 49.8457L30.0337 49.9028L30.0316 49.959L30.0298 50.0161L30.0281 50.0732L30.0266 50.1303L30.0253 50.1874L30.0241 50.2445L30.0231 50.3015L30.0223 50.3586L30.0217 50.4165L30.0212 50.4736L30.021 50.5315L30.0209 50.5886V50.6204L30.0211 50.653L30.0213 50.6848L30.0216 50.7174L30.022 50.7501L30.0225 50.7827L30.0231 50.8153L30.0238 50.8479L30.0245 50.8805L30.0253 50.9107L30.0274 50.9808L30.0297 51.0477L30.0325 51.1154L30.0355 51.1831L30.039 51.2516L30.0428 51.3201L30.047 51.3894L30.0516 51.4595L30.0566 51.5297L30.0619 51.5998L30.0677 51.6715L30.0737 51.7425L30.0802 51.8143L30.0871 51.8868L30.0943 51.9594L30.1019 52.0328L30.1099 52.1062L30.1183 52.1804L30.1271 52.2546L30.1363 52.3296L30.1458 52.4055L30.1558 52.4805L30.1661 52.5571L30.1768 52.633L30.1879 52.7105L30.1993 52.7871L30.2112 52.8654L30.2234 52.9429L30.2361 53.022L30.2491 53.1003L30.2625 53.1794L30.2763 53.2593L30.2905 53.3384L30.3051 53.4191L30.3202 53.4998L30.3355 53.5806L30.3512 53.6613L30.3674 53.7437L30.3839 53.8252L30.4007 53.9076L30.418 53.9899L30.4357 54.0731L30.4537 54.1563L30.4722 54.2403L30.491 54.3243L30.5101 54.4083L30.5297 54.4931L30.5497 54.5779L30.57 54.6627L30.5907 54.7483L30.6117 54.834L30.6332 54.9204L30.6551 55.0068L30.6772 55.0933L30.6998 55.1805L30.7228 55.2678L30.7461 55.355L30.7698 55.4431L30.7938 55.5312L30.8182 55.6193L30.843 55.7081L30.8682 55.797L30.8937 55.8859L30.9196 55.9756L30.9458 56.0653L30.9724 56.155L30.9994 56.2455L31.0267 56.3361L31.0544 56.4266L31.0824 56.5179L31.1108 56.6084L31.1395 56.7006L31.1686 56.7919L31.198 56.8841L31.2278 56.9762L31.2579 57.0684L31.2884 57.1605L31.3192 57.2535L31.3504 57.3464L31.3818 57.4394L31.4137 57.5332L31.4459 57.6261L31.4783 57.7199L31.5112 57.8145L31.5443 57.9083L31.5779 58.0029L31.6117 58.0975L31.6458 58.1921L31.6803 58.2875L31.7151 58.3821L31.7502 58.4775L31.7856 58.5729L31.8214 58.6691L31.8576 58.7646L31.894 58.8608L31.9306 58.957L31.9677 59.0532L32.005 59.1495L32.0426 59.2465L32.0806 59.3435L32.1188 59.4406L32.1574 59.5376L32.1963 59.6347L32.2354 59.7325L32.2749 59.8296L32.3146 59.9274L32.3547 60.0253L32.395 60.1231L32.4357 60.221L32.4766 60.3197L32.5178 60.4175L32.5592 60.5162L32.601 60.6149L32.6431 60.7135L32.6854 60.813L32.728 60.9117L32.771 61.0104L32.8141 61.1099L32.8576 61.2093L32.9012 61.3088L32.9452 61.4083L32.9895 61.5078L33.034 61.6073L33.0788 61.7076L33.1238 61.8071L33.169 61.9074L33.2147 62.0077L33.2605 62.108L33.3065 62.2083L33.3528 62.3086L33.3993 62.4089L33.4461 62.5092L33.4932 62.6095L33.5405 62.7106L33.588 62.8118L33.6358 62.9121L33.6838 63.0132L33.732 63.1143L33.7806 63.2154L33.8292 63.3165L33.8782 63.4177L33.9274 63.5188L33.9768 63.6199L34.0264 63.721L34.0761 63.8221L34.1263 63.9241L34.1766 64.0252L34.2271 64.1271L34.2777 64.2282L34.3287 64.3302L34.3799 64.4313L34.4312 64.5332L34.4827 64.6343L34.5345 64.7363L34.5865 64.8382L34.6387 64.9402L34.691 65.0421L34.7435 65.144L34.7962 65.2451L34.8492 65.3471L34.9024 65.449L34.9557 65.5509L35.0092 65.6529L35.0628 65.7548L35.1168 65.8567L35.1709 65.9587L35.2251 66.0606L35.2795 66.1625L35.3341 66.2645L35.3889 66.3664L35.4437 66.4684L35.4989 66.5703L35.5541 66.6722L35.6096 66.7742L35.6652 66.8761L35.7209 66.9772L35.7769 67.0791L35.8329 67.1811L35.8891 67.283L35.9455 67.3849L36.002 67.4869L36.0588 67.588L36.1156 67.6899L36.1725 67.7919L36.2296 67.893L36.2869 67.9949L36.3443 68.0969L36.4019 68.198L36.4595 68.2991L36.5172 68.401L36.5752 68.5022L36.6332 68.6033L36.6914 68.7052L36.7498 68.8063L36.8082 68.9074L36.8667 69.0086L36.9255 69.1097L36.9843 69.2108L37.0431 69.3119L37.1022 69.413L37.1613 69.5133L37.2205 69.6145L37.2799 69.7148L37.3393 69.8159L37.3989 69.9162L37.4586 70.0165L37.5183 70.1168L37.5781 70.2171L37.638 70.3174L37.6981 70.4177L37.7582 70.518L37.8185 70.6183L37.8788 70.7178L37.9391 70.8181L37.999 70.9168L38.1208 71.1166L38.2423 71.3155L38.3641 71.5145L38.4862 71.7119L38.6084 71.91L38.731 72.1074L38.8537 72.3039L38.9768 72.4996L39.1 72.6961L39.2234 72.891L39.3469 73.0859L39.4705 73.28L39.5944 73.4741L39.7182 73.6674L39.8423 73.8598L39.9664 74.0515L40.0905 74.2431L40.2148 74.4339L40.339 74.6239L40.4633 74.8131L40.5876 75.0023L40.7118 75.1899L40.8361 75.3774L40.9603 75.5642L41.0843 75.7509L41.2084 75.936L41.3324 76.1203L41.4563 76.3046L41.58 76.4873L41.7035 76.67L41.827 76.851L41.9502 77.032L42.0732 77.2114L42.196 77.3908L42.3187 77.5686L42.4411 77.7464L42.5631 77.9225L42.685 78.0979L42.8066 78.2724L42.9279 78.4461L43.0488 78.6189L43.1695 78.791L43.2898 78.9614L43.4097 79.1311L43.5292 79.2999L43.6483 79.4679L43.767 79.635L43.8853 79.8006L44.0031 79.9653L44.1206 80.1292L44.2375 80.2915L44.3539 80.453L44.4698 80.6136L44.5852 80.7726L44.7001 80.9308L44.8143 81.0874L44.9279 81.2431L45.0411 81.3981L45.1537 81.5514L45.2655 81.7039L45.3768 81.8548L45.4874 82.0048L45.5973 82.1532L45.7065 82.3008L45.8152 82.4468L45.923 82.5919L46.0301 82.7355L46.1365 82.8774L46.2421 83.0184L46.3469 83.1579L46.4509 83.2957L46.5541 83.4327L46.6565 83.5681L46.758 83.7026L46.8587 83.8347L46.9586 83.9668L47.0574 84.0965L47.1554 84.2245L47.2525 84.3517L47.3487 84.4773L47.4439 84.6013L47.5381 84.7236L47.6314 84.8443L47.7235 84.9642L47.8148 85.0816L47.905 85.1982L47.9941 85.3132L48.0822 85.4265L48.1692 85.5383L48.2545 85.6475L48.4236 85.8636L48.5874 86.0716L48.7466 86.2738L48.9009 86.4695L49.0503 86.6571L49.1946 86.8389L49.3336 87.0126L49.4674 87.1798L49.5957 87.3396L49.7183 87.4921L49.8353 87.6365L49.9465 87.7735L50.0516 87.9031L50.1506 88.0246L50.2435 88.138L50.33 88.244L50.41 88.341L50.4835 88.4299L50.5503 88.5107L50.6091 88.5816L50.7089 88.7015L50.7786 88.7855L50.8188 88.8328L50.8314 88.8483L51.3312 89.5659L51.6906 90.3626L51.8975 91.2123L51.9447 92.0857L51.8306 92.9526L51.5593 93.7835L51.1398 94.5509L50.5864 95.2277L49.9181 95.7921L49.1576 96.2234L48.3307 96.5072L47.4656 96.6353L46.5919 96.6018L45.7392 96.4077L44.9366 96.0612L44.2113 95.5727L43.5882 94.9595L43.569 94.9366L43.5152 94.8722L43.4307 94.7711L43.318 94.6357L43.2495 94.5533L43.175 94.4628L43.0936 94.3642L43.0055 94.2573L42.9108 94.1415L42.8099 94.0184L42.7024 93.8863L42.5887 93.7468L42.4692 93.5984L42.3435 93.4435L42.2119 93.2804L42.0748 93.1091L41.9321 92.9314L41.7839 92.7454L41.6303 92.553L41.4716 92.3524L41.3078 92.1452L41.139 91.9308L40.9654 91.7098L40.7877 91.4831L40.6962 91.3656L40.6041 91.2474L40.511 91.1283L40.4169 91.0068L40.3216 90.8837L40.2251 90.7589L40.1277 90.6325L40.0292 90.5053L39.9298 90.3757L39.8292 90.2452L39.7277 90.1123L39.6253 89.9785L39.5219 89.8432L39.4175 89.7062L39.3122 89.5675L39.206 89.4273L39.0988 89.2862L38.9909 89.1435L38.8821 88.9991L38.7722 88.8532L38.6618 88.7056L38.5504 88.5571L38.4382 88.4071L38.3253 88.2562L38.2115 88.1029L38.0971 87.9488L37.9818 87.7939L37.8658 87.6373L37.7491 87.4791L37.6318 87.3193L37.5138 87.1586L37.3951 86.9971L37.2756 86.834L37.1556 86.6693L37.035 86.5038L36.9138 86.3366L36.792 86.1686L36.6696 85.999L36.5467 85.8286L36.4231 85.6565L36.2992 85.4836L36.1746 85.3099L36.0496 85.1346L35.9241 84.9585L35.7982 84.7807L35.6717 84.6021L35.5448 84.4227L35.4176 84.2417L35.29 84.0598L35.1619 83.8771L35.0334 83.6937L34.9047 83.5085L34.7755 83.3226L34.646 83.135L34.5163 82.9475L34.3863 82.7583L34.2559 82.5683L34.1253 82.3775L33.9944 82.1858L33.8633 81.9934L33.732 81.7993L33.6005 81.6052L33.4688 81.4095L33.3369 81.213L33.2049 81.0156L33.0727 80.8175L32.9404 80.6185L32.808 80.4187L32.6755 80.2181L32.5429 80.0167L32.4102 79.8144L32.2776 79.6114L32.1448 79.4075L32.0121 79.2028L31.8793 78.9973L31.7465 78.791L31.6139 78.5847L31.4812 78.3767L31.3485 78.1688L31.216 77.96L31.0835 77.7496L30.9512 77.5401L30.8189 77.3289L30.6868 77.1168L30.5549 76.9048L30.4231 76.692L30.2915 76.4783L30.16 76.2639L30.0289 76.0494L29.8986 75.8349L29.8325 75.7265L29.7671 75.618L29.7019 75.5095L29.6367 75.4019L29.5716 75.2934L29.5066 75.1842L29.4415 75.0757L29.3766 74.9672L29.3117 74.858L29.247 74.7487L29.1822 74.6394L29.1177 74.5301L29.0532 74.4209L28.9887 74.3108L28.9244 74.2015L28.8601 74.0914L28.7959 73.9813L28.7319 73.8712L28.6679 73.7612L28.604 73.6511L28.5401 73.5402L28.4765 73.4301L28.4129 73.3192L28.3494 73.2083L28.2861 73.0974L28.2228 72.9865L28.1597 72.8747L28.0966 72.7638L28.0337 72.6529L27.9709 72.5412L27.9081 72.4295L27.8456 72.3178L27.783 72.206L27.7208 72.0943L27.6586 71.9818L27.5965 71.8701L27.5346 71.7583L27.4727 71.6458L27.411 71.5333L27.3495 71.4207L27.2881 71.3082L27.2268 71.1957L27.1657 71.0831L27.1047 70.9706L27.0439 70.8572L26.9831 70.7447L26.9227 70.6314L26.8622 70.518L26.8019 70.4055L26.7419 70.2921L26.682 70.1788L26.6222 70.0654L26.5626 69.9513L26.5031 69.8379L26.4438 69.7245L26.3848 69.6104L26.3257 69.497L26.2669 69.3829L26.2084 69.2687L26.1499 69.1545L26.0917 69.0412L26.0336 68.927L25.9756 68.812L25.9179 68.6979L25.8604 68.5837L25.803 68.4695L25.7459 68.3545L25.6889 68.2404L25.6321 68.1262L25.5755 68.0112L25.5191 67.8963L25.4629 67.7821L25.4069 67.6671L25.3511 67.5521L25.2955 67.4371L25.2401 67.3222L25.1849 67.2072L25.13 67.0922L25.0752 66.9772L25.0207 66.8622L24.9662 66.7472L24.9122 66.6323L24.8583 66.5165L24.8046 66.4015L24.7511 66.2857L24.6978 66.1707L24.6448 66.0549L24.5921 65.9399L24.5396 65.8241L24.4873 65.7083L24.4351 65.5925L24.3834 65.4776L24.3317 65.3618L24.2804 65.246L24.2293 65.1302L24.1784 65.0144L24.1277 64.8994L24.0774 64.7828L24.0272 64.667L23.9774 64.5512L23.9278 64.4354L23.8785 64.3196L23.8294 64.2038L23.7804 64.088L23.7319 63.9722L23.6836 63.8556L23.6355 63.7398L23.5878 63.624L23.5403 63.5082L23.4931 63.3916L23.4461 63.2758L23.3994 63.1592L23.353 63.0434L23.307 62.9267L23.2611 62.8109L23.2156 62.6951L23.1704 62.5785L23.1253 62.4627L23.0808 62.3461L23.0364 62.2303L22.9923 62.1137L22.9486 61.9979L22.9051 61.8813L22.8619 61.7647L22.8191 61.6489L22.7765 61.5323L22.7343 61.4165L22.6924 61.2999L22.6507 61.1833L22.6095 61.0675L22.5685 60.9508L22.5279 60.8342L22.4876 60.7184L22.4475 60.6018L22.4079 60.4852L22.3686 60.3694L22.3296 60.2528L22.2909 60.1362L22.2526 60.0196L22.2146 59.9038L22.177 59.7872L22.1398 59.6714L22.1028 59.5548L22.0663 59.4381L22.03 59.3215L21.9941 59.2057L21.9586 59.0891L21.9234 58.9725L21.8887 58.8559L21.8543 58.7401L21.8202 58.6235L21.7865 58.5069L21.7532 58.3902L21.7203 58.2745L21.6877 58.1578L21.6555 58.0412L21.6238 57.9254L21.5924 57.8088L21.5614 57.6922L21.5308 57.5756L21.5006 57.4598L21.4708 57.3432L21.4414 57.2266L21.4124 57.1108L21.3837 56.9942L21.3556 56.8775L21.3279 56.7609L21.3005 56.6451L21.2736 56.5285L21.2471 56.4119L21.221 56.2953L21.1954 56.1795L21.1701 56.0629L21.1453 55.9463L21.121 55.8305L21.0972 55.7139L21.0737 55.5972L21.0507 55.4806L21.0282 55.3648L21.0061 55.2482L20.9845 55.1316L20.9633 55.015L20.9426 54.8992L20.9224 54.7826L20.9027 54.666L20.8834 54.5494L20.8646 54.4336L20.8463 54.3169L20.8285 54.2003L20.8112 54.0837L20.7944 53.9679L20.778 53.8513L20.7623 53.7347L20.747 53.6181L20.7322 53.5015L20.718 53.3857L20.7042 53.2691L20.6911 53.1524L20.6784 53.0358L20.6663 52.9192L20.6546 52.8026L20.6437 52.6868L20.6332 52.5702L20.6232 52.4536L20.6139 52.337L20.6051 52.2204L20.5968 52.1037L20.5891 51.9871L20.5821 51.8705L20.5756 51.7547L20.5697 51.6381L20.5644 51.5215L20.5597 51.4049L20.5556 51.2883L20.5522 51.1749L20.5506 51.1129L20.5492 51.055L20.5481 50.9963L20.547 50.9384L20.5462 50.8797L20.5454 50.8218L20.5449 50.7631L20.5445 50.7052L20.5442 50.6473L20.5441 50.5878L20.5443 50.5013L20.5447 50.4149L20.5453 50.3276L20.5463 50.2412L20.5475 50.1548L20.549 50.0675L20.5507 49.9811L20.5528 49.8946L20.5551 49.8082L20.5576 49.7209L20.5605 49.6353L20.5635 49.5489L20.5669 49.4624L20.5705 49.376L20.5744 49.2904L20.5786 49.2039L20.583 49.1183L20.5876 49.0318L20.5927 48.9462L20.5979 48.8606L20.6033 48.7742L20.609 48.6885L20.6151 48.6029L20.6213 48.5173L20.6279 48.4317L20.6347 48.3468L20.6417 48.2612L20.649 48.1756L20.6566 48.0908L20.6644 48.0052L20.6725 47.9204L20.6809 47.8355L20.6895 47.7507L20.6984 47.6651L20.7074 47.5803L20.7168 47.4963L20.7265 47.4115L20.7364 47.3267L20.7466 47.2419L20.757 47.1579L20.7676 47.0731L20.7786 46.9891L20.7898 46.9051L20.8012 46.8211L20.8129 46.7363L20.8249 46.6531L20.8371 46.5683L20.8495 46.4851L20.8622 46.4011L20.8752 46.3171L20.8884 46.2339L20.9018 46.1508L20.9156 46.0668L20.9296 45.9836L20.9438 45.9004L20.9582 45.8172L20.973 45.7341L20.988 45.6509L21.0032 45.5677L21.0186 45.4853L21.0343 45.403L21.0503 45.3198L21.0665 45.2374L21.083 45.1551L21.0996 45.0727L21.1166 44.9903L21.1338 44.908L21.1512 44.8256L21.1689 44.7441L21.1869 44.6617L21.2051 44.5802L21.2234 44.4978L21.2422 44.4163L21.261 44.3347L21.2801 44.2532L21.2996 44.1716L21.3192 44.0909L21.3391 44.0093L21.3591 43.9286L21.3795 43.8479L21.4001 43.7663L21.4209 43.6856L21.442 43.6049L21.4633 43.5241L21.4848 43.4434L21.5067 43.3635L21.5286 43.2827L21.551 43.2028L21.5735 43.1221L21.5962 43.0422L21.6192 42.9623L21.6424 42.8823L21.6657 42.8032L21.6895 42.7233L21.7133 42.6434L21.7375 42.5643L21.7619 42.4852L21.7865 42.4053L21.8113 42.3262L21.8364 42.2471L21.8617 42.1688L21.8872 42.0897L21.913 42.0114L21.9391 41.9323L21.9653 41.854L21.9917 41.7757L22.0185 41.6975L22.0453 41.6192L22.0725 41.5409L22.0999 41.4634L22.1274 41.3851L22.1553 41.3077L22.1833 41.2302L22.2116 41.1519L22.2401 41.0752L22.2688 40.9978L22.2978 40.9203L22.327 40.8437L22.3564 40.7662L22.386 40.6895L22.4158 40.6129L22.446 40.5362L22.4763 40.4596L22.5068 40.3837L22.5375 40.3071L22.5685 40.2312L22.5996 40.1554L22.6311 40.0787L22.6628 40.0029L22.6946 39.9271L22.7266 39.852L22.7589 39.7762L22.7915 39.7012L22.8241 39.6261L22.857 39.5511L22.8903 39.4761L22.9236 39.4011L22.9573 39.3261L22.991 39.2518L23.025 39.1776L23.0593 39.1026L23.0937 39.0284L23.1284 38.955L23.1632 38.8808L23.1983 38.8066L23.2337 38.7332L23.2692 38.659L23.3049 38.5864L23.3408 38.5122L23.377 38.4396L23.4132 38.3662L23.4499 38.2928L23.4868 38.2203L23.5237 38.1477L23.5609 38.0751L23.5984 38.0025L23.6359 37.9308L23.6738 37.8582L23.7117 37.7864L23.7501 37.7139L23.7886 37.6421L23.8272 37.5703L23.866 37.4994L23.9052 37.4276L23.9444 37.3567L23.9839 37.2849L24.0236 37.214L24.0634 37.143L24.1035 37.0729L24.1437 37.0019L24.1842 36.9318L24.225 36.8609L24.266 36.7907L24.3071 36.7206L24.3483 36.6513L24.3899 36.5812L24.4316 36.5118L24.4735 36.4417L24.5155 36.3724L24.5579 36.3031L24.6005 36.2338L24.6431 36.1653L24.6861 36.096L24.7291 36.0275L24.7724 35.959L24.8159 35.8905L24.8596 35.8228L24.9035 35.7543L24.9475 35.6866L24.9918 35.6189L25.0365 35.5504L25.0809 35.4835L25.1258 35.4158L25.1709 35.3482L25.2162 35.2813L25.2616 35.2144L25.3072 35.1476L25.3531 35.0807L25.399 35.0146L25.4452 34.9486L25.4918 34.8817L25.5383 34.8157L25.585 34.7504L25.6321 34.6844L25.6792 34.6183L25.7265 34.5531L25.7741 34.4878L25.8219 34.4226L25.8696 34.3574L25.9178 34.2921L25.9661 34.2277L26.0145 34.1633L26.0632 34.0989L26.1121 34.0344L26.161 33.97L26.2103 33.9064L26.2597 33.8428L26.3092 33.7784L26.3591 33.7156L26.4091 33.652L26.4592 33.5884L26.5095 33.5256L26.56 33.4628L26.6107 33.4L26.6616 33.3372L26.7126 33.2752L26.7638 33.2124L26.8152 33.1505L26.8668 33.0885L26.9186 33.0265L26.9706 32.9653L27.0227 32.9034L27.075 32.8422L27.1274 32.781L27.1801 32.7199L27.233 32.6595L27.286 32.5984L27.3391 32.538L27.3925 32.4777L27.4461 32.4173L27.4997 32.3578L27.5537 32.2975L27.6078 32.2379L27.662 32.1784L27.7164 32.1189L27.7709 32.0602L27.8258 32.0006L27.8808 31.9419L27.9359 31.8832L27.9911 31.8245L28.0465 31.7666L28.1022 31.7079L28.1581 31.65L28.214 31.5921L28.27 31.5342L28.3263 31.4771L28.3828 31.42L28.4395 31.3621L28.4965 31.305L28.5533 31.2488L28.6105 31.1917L28.6679 31.1354L28.7253 31.0791L28.783 31.0229L28.8407 30.9666L28.8987 30.9112L28.957 30.8549L29.0152 30.8002L29.0738 30.7448L29.1325 30.6893L29.1911 30.6347L29.2503 30.5793L29.3093 30.5254L29.3686 30.4708L29.4281 30.4162L29.4877 30.3623L29.5475 30.3085L29.6075 30.2547L29.6675 30.2009L29.7278 30.1479L29.7883 30.0949L29.8489 30.0419L29.9096 29.9889L29.9706 29.9358L30.0318 29.8837L30.0928 29.8315L30.1542 29.7793L30.2159 29.7271L30.2776 29.6757L30.3395 29.6243L30.4015 29.573L30.4635 29.5216L30.5259 29.471L30.5884 29.4197L30.651 29.3691L30.7139 29.3185L30.7768 29.2688L30.8398 29.2182L30.9032 29.1685L30.9666 29.1187L31.0301 29.069L31.0938 29.0201L31.1578 28.9711L31.2218 28.9222L31.2858 28.8733L31.3504 28.8244L31.4149 28.7762L31.4794 28.7281L31.5441 28.68L31.6091 28.6327L31.6742 28.5846L31.7394 28.5373L31.8048 28.49L31.8703 28.4427L31.9359 28.3962L32.0019 28.3497L32.0679 28.3033L32.1338 28.2568L32.2 28.2111L32.2666 28.1646L32.3332 28.119L32.3998 28.0733L32.4666 28.0285L32.5336 27.9836L32.6006 27.9387L32.6682 27.8939L32.7355 27.849L32.803 27.805L32.8707 27.761L32.9386 27.7169L33.0065 27.6737L33.0748 27.6297L33.143 27.5865L33.2112 27.5432L33.2799 27.5008L33.3487 27.4576L33.4175 27.4152L33.4863 27.3736L33.5555 27.3312L33.6248 27.2888L33.6941 27.248L33.7636 27.2064L33.8333 27.1649L33.9031 27.1241L33.973 27.0833L34.043 27.0425L34.1133 27.0018L34.1836 26.9618L34.254 26.9218L34.3247 26.8819L34.3954 26.8419L34.4662 26.8028L34.5373 26.7636L34.6084 26.7245L34.6796 26.6862L34.7511 26.6478L34.8226 26.6095L34.8943 26.5712L34.966 26.5329L35.0379 26.4954L35.11 26.4578L35.1823 26.4203L35.2545 26.3836L35.3269 26.3469L35.3995 26.3102L35.4721 26.2735L35.5449 26.2377L35.6179 26.2018L35.6911 26.1659L35.7643 26.13L35.8374 26.095L35.9111 26.0599L35.9846 26.0248L36.0582 25.9906L36.132 25.9563L36.206 25.9221L36.2802 25.8878L36.3543 25.8536L36.4286 25.8201L36.503 25.7867L36.5775 25.7541L36.6522 25.7215L36.727 25.688L36.802 25.6562L36.8769 25.6236L36.9521 25.5918L37.0275 25.56L37.1029 25.5282L37.1783 25.4972L37.2539 25.4662L37.3297 25.4352L37.4055 25.4043L37.4815 25.3741L37.5576 25.3439L37.6338 25.3145L37.7102 25.2844L37.7867 25.255L37.863 25.2257L37.9397 25.1963L38.0166 25.1678L38.0934 25.1392L38.1706 25.1107L38.2475 25.083L38.3246 25.0552L38.4021 25.0275L38.4795 24.9998L38.5571 24.9729L38.6348 24.9459L38.7125 24.919L38.7904 24.8929L38.8683 24.866L38.9463 24.8408L39.0246 24.8147L39.103 24.7894L39.1814 24.7641L39.2599 24.7388L39.3385 24.7144L39.4173 24.6891L39.4961 24.6654L39.5749 24.641L39.654 24.6173L39.7331 24.5937L39.8124 24.57L39.8918 24.5472L39.9712 24.5243L40.0505 24.5015L40.1303 24.4795L40.2102 24.4575L40.2899 24.4355L40.3699 24.4134L40.4501 24.3922L40.5299 24.371L40.6101 24.3498L40.6905 24.3295L40.771 24.3091L40.8515 24.2887L40.9322 24.2691L41.0129 24.2495L41.0936 24.23L41.1745 24.2104L41.2555 24.1916L41.3367 24.1729L41.4177 24.1549L41.499 24.1362L41.5805 24.1182L41.6619 24.1011L41.7434 24.0832L41.825 24.0661L41.9065 24.0497L41.9886 24.0326L42.0706 24.0163L42.1523 24L42.2345 23.9845L42.3166 23.969L42.3988 23.9535L42.4812 23.938L42.5636 23.9233L42.6461 23.9087L42.7287 23.894L42.8113 23.8801L42.894 23.8663L42.9768 23.8524L43.0597 23.8394L43.1428 23.8263L43.2257 23.8133L43.3091 23.801L43.3922 23.7888L43.4754 23.7766L43.5588 23.7651L43.6421 23.7529L43.7259 23.7423L43.8095 23.7309L43.8931 23.7203L43.9768 23.7097L44.0608 23.6999L44.1446 23.6901L44.2285 23.6803L44.3126 23.6705L44.3968 23.6616L44.4811 23.6526L44.5651 23.6445L44.6494 23.6355L44.7341 23.6281L44.8185 23.62L44.903 23.6126L44.9877 23.6053L45.0724 23.598L45.1571 23.5914L45.2419 23.5849L45.3267 23.5792L45.4117 23.5727L45.4968 23.5678L45.5818 23.5621L45.667 23.5572L45.7521 23.5523L45.8374 23.5474L45.9227 23.5433L46.0082 23.5393L46.0938 23.536L46.1791 23.5319L46.2646 23.5287L46.3503 23.5262L46.4361 23.5238L46.5217 23.5213L46.6077 23.5189L46.6935 23.5172L46.7792 23.5156L46.8653 23.514L46.9515 23.5132L47.0376 23.5123H47.1235H47.2098H47.2962Z" fill="#FF8300"/>
<path d="M114.461 22.4675H126.179C134.09 22.4675 139.849 23.0684 143.454 24.2702C147.06 25.4219 150.164 27.2496 152.768 29.7533C155.422 32.2069 157.45 35.2114 158.852 38.7666C160.254 42.3219 160.955 46.428 160.955 51.0849C160.955 55.7418 159.904 60.1483 157.801 64.3045C155.747 68.4106 152.793 71.6404 148.937 73.9939C145.132 76.2973 139.548 77.449 132.188 77.449H114.461V22.4675ZM120.696 71.2898H126.404C132.763 71.2898 137.395 70.9644 140.3 70.3134C143.204 69.6624 145.733 68.4106 147.886 66.5578C150.039 64.7051 151.666 62.4517 152.768 59.7978C153.92 57.0938 154.496 53.9892 154.496 50.484C154.496 46.9788 153.82 43.749 152.468 40.7946C151.166 37.7902 149.288 35.3616 146.834 33.5088C144.381 31.606 141.501 30.3542 138.196 29.7533C134.892 29.1023 130.16 28.7768 124 28.7768H120.696V71.2898Z" fill="#FF8300"/>
<path d="M202.427 28.8519H176.889V44.6253H202.202V50.9347H176.889V71.0645H202.202V77.449H170.43V22.4675H202.427V28.8519Z" fill="#FF8300"/>
<path d="M236.913 21.1155C242.271 21.1155 247.204 22.3924 251.71 24.9462C256.217 27.4499 259.747 30.93 262.301 35.3866C264.905 39.8432 266.207 44.7004 266.207 49.9582C266.207 55.1659 264.93 59.9981 262.376 64.4547C259.822 68.9113 256.317 72.4165 251.86 74.9703C247.404 77.5241 242.547 78.801 237.289 78.801C232.081 78.801 227.224 77.5491 222.717 75.0454C218.211 72.4916 214.68 69.0115 212.127 64.6049C209.573 60.1483 208.296 55.3162 208.296 50.1085C208.296 44.8507 209.573 39.9935 212.127 35.5369C214.68 31.0302 218.16 27.4999 222.567 24.9462C227.024 22.3924 231.806 21.1155 236.913 21.1155ZM237.139 72.4916C243.398 72.4916 248.681 70.3635 252.987 66.1072C257.344 61.8509 259.522 56.518 259.522 50.1085C259.522 43.699 257.319 38.316 252.912 33.9595C248.556 29.6031 243.298 27.4248 237.139 27.4248C230.829 27.4248 225.546 29.6281 221.29 34.0346C217.084 38.3911 214.981 43.724 214.981 50.0333C214.981 56.2926 217.159 61.6005 221.515 65.9569C225.872 70.3134 231.08 72.4916 237.139 72.4916Z" fill="#FF8300"/>
<path d="M319.396 77.449H317.443L282.592 37.5649V77.449H275.982V22.4675H277.935L313.012 62.8774V22.4675H319.396V77.449Z" fill="#FF8300"/>
<path d="M331.507 22.4675H343.224C351.136 22.4675 356.894 23.0684 360.5 24.2702C364.105 25.4219 367.21 27.2496 369.813 29.7533C372.467 32.2069 374.495 35.2114 375.897 38.7666C377.299 42.3219 378.001 46.428 378.001 51.0849C378.001 55.7418 376.949 60.1483 374.846 64.3045C372.793 68.4106 369.838 71.6404 365.983 73.9939C362.177 76.2973 356.594 77.449 349.233 77.449H331.507V22.4675ZM337.741 71.2898H343.449C349.809 71.2898 354.441 70.9644 357.345 70.3134C360.249 69.6624 362.778 68.4106 364.931 66.5578C367.084 64.7051 368.712 62.4517 369.813 59.7978C370.965 57.0938 371.541 53.9892 371.541 50.484C371.541 46.9788 370.865 43.749 369.513 40.7946C368.211 37.7902 366.333 35.3616 363.88 33.5088C361.426 31.606 358.547 30.3542 355.242 29.7533C351.937 29.1023 347.205 28.7768 341.046 28.7768H337.741V71.2898Z" fill="#FF8300"/>
<path d="M419.473 28.8519H393.935V44.6253H419.247V50.9347H393.935V71.0645H419.247V77.449H387.475V22.4675H419.473V28.8519Z" fill="#FF8300"/>
<path fill-rule="evenodd" clip-rule="evenodd" d="M112.863 20.8693H126.179C134.111 20.8693 140.085 21.4649 143.95 22.7508C147.768 23.9718 151.081 25.9171 153.864 28.5904C156.699 31.2145 158.856 34.4198 160.339 38.1803C161.829 41.9582 162.553 46.2699 162.553 51.0849C162.553 55.9912 161.443 60.6437 159.228 65.0225C157.043 69.3905 153.885 72.8462 149.77 75.3579L149.765 75.361C145.596 77.8845 139.67 79.0471 132.188 79.0471H112.863V20.8693ZM157.801 64.3045C159.904 60.1483 160.955 55.7418 160.955 51.0849C160.955 46.428 160.254 42.3219 158.852 38.7666C157.45 35.2113 155.422 32.2069 152.768 29.7532C150.164 27.2495 147.06 25.4218 143.454 24.2701C139.849 23.0683 134.09 22.4675 126.179 22.4675H114.461V77.4489H132.188C139.548 77.4489 145.132 76.2972 148.937 73.9938C152.793 71.6403 155.747 68.4106 157.801 64.3045ZM151.298 59.1715C152.351 56.6998 152.897 53.8147 152.897 50.484C152.897 47.1899 152.264 44.1892 151.014 41.4596L151.008 41.4449L151.001 41.43C149.802 38.6617 148.09 36.4598 145.871 34.7842L145.855 34.7718C143.62 33.039 140.984 31.8844 137.911 31.3256L137.899 31.3235L137.888 31.3212C134.736 30.7004 130.126 30.3749 124 30.3749H122.294V69.6917H126.404C132.747 69.6917 137.229 69.3638 139.95 68.754C142.611 68.1575 144.899 67.0198 146.843 65.3464C148.805 63.6586 150.285 61.6111 151.292 59.1851L151.298 59.1715ZM120.696 71.2898V28.7768H124C130.16 28.7768 134.892 29.1023 138.196 29.7532C141.501 30.3541 144.381 31.606 146.834 33.5088C149.288 35.3616 151.166 37.7902 152.468 40.7946C153.82 43.749 154.496 46.9788 154.496 50.484C154.496 53.9892 153.92 57.0938 152.768 59.7978C151.666 62.4517 150.039 64.7051 147.886 66.5578C145.733 68.4106 143.204 69.6624 140.3 70.3134C137.395 70.9643 132.763 71.2898 126.404 71.2898H120.696ZM204.025 30.45H178.487V43.0272H203.8V52.5328H178.487V69.4664H203.8V79.0471H168.832V20.8693H204.025V30.45ZM176.889 71.0645V50.9346H202.202V44.6253H176.889V28.8519H202.427V22.4675H170.43V77.4489H202.202V71.0645H176.889ZM221.941 76.4424L221.929 76.4358C217.18 73.7445 213.443 70.0629 210.744 65.4062L210.74 65.3995C208.046 60.6975 206.698 55.5909 206.698 50.1084C206.698 44.5801 208.043 39.4492 210.738 34.7458C213.429 29.9979 217.11 26.2616 221.766 23.5634L221.772 23.5595C226.469 20.868 231.525 19.5173 236.913 19.5173C242.535 19.5173 247.738 20.8599 252.492 23.5524C257.248 26.1958 260.987 29.8809 263.684 34.5867C266.432 39.2909 267.805 44.4251 267.805 49.9582C267.805 55.4406 266.457 60.5473 263.763 65.2493C261.068 69.9523 257.358 73.6619 252.655 76.3569C247.951 79.0526 242.818 80.3991 237.289 80.3991C231.812 80.3991 226.688 79.0794 221.941 76.4424ZM262.301 35.3866C259.747 30.93 256.217 27.4498 251.71 24.9461C247.204 22.3923 242.271 21.1154 236.913 21.1154C231.806 21.1154 227.024 22.3923 222.567 24.9461C218.16 27.4999 214.68 31.0301 212.127 35.5368C209.573 39.9934 208.296 44.8506 208.296 50.1084C208.296 55.3161 209.573 60.1483 212.127 64.6049C214.68 69.0114 218.211 72.4916 222.717 75.0454C227.224 77.5491 232.081 78.801 237.289 78.801C242.547 78.801 247.404 77.5241 251.86 74.9703C256.317 72.4165 259.822 68.9113 262.376 64.4547C264.93 59.9981 266.207 55.1659 266.207 49.9582C266.207 44.7004 264.905 39.8432 262.301 35.3866ZM251.864 64.9705L251.87 64.964C255.901 61.0256 257.924 56.1128 257.924 50.1084C257.924 44.1095 255.88 39.1408 251.788 35.096L251.782 35.0895C247.725 31.0327 242.874 29.0229 237.139 29.0229C231.248 29.0229 226.385 31.0603 222.44 35.1446C218.534 39.1896 216.579 44.1189 216.579 50.0333C216.579 55.8763 218.594 60.7754 222.645 64.8269C226.708 68.8893 231.511 70.8935 237.139 70.8935C242.993 70.8935 247.868 68.9202 251.864 64.9705ZM320.994 79.0471H316.717L284.19 41.8224V79.0471H274.384V20.8693H278.664L311.413 58.5983V20.8693H320.994V79.0471ZM313.012 62.8774L277.935 22.4675H275.982V77.4489H282.592V37.5648L317.443 77.4489H319.396V22.4675H313.012V62.8774ZM329.908 20.8693H343.224C351.157 20.8693 357.131 21.4649 360.995 22.7508C364.813 23.9717 368.126 25.917 370.91 28.5904C373.744 31.2144 375.901 34.4198 377.384 38.1803C378.874 41.9582 379.599 46.2699 379.599 51.0849C379.599 55.9922 378.488 60.6456 376.272 65.0252C374.088 69.3919 370.929 72.8467 366.815 75.3579L366.81 75.361C362.641 77.8845 356.715 79.0471 349.233 79.0471H329.908V20.8693ZM369.813 29.7532C367.209 27.2495 364.105 25.4218 360.5 24.2701C356.894 23.0683 351.136 22.4675 343.224 22.4675H331.507V77.4489H349.233C356.594 77.4489 362.177 76.2972 365.983 73.9938C369.838 71.6403 372.793 68.4106 374.846 64.3045C376.949 60.1483 378 55.7418 378 51.0849C378 46.428 377.299 42.3219 375.897 38.7666C374.495 35.2113 372.467 32.2069 369.813 29.7532ZM368.337 59.1851L368.343 59.1715C369.396 56.6998 369.943 53.8147 369.943 50.484C369.943 47.1899 369.309 44.1892 368.06 41.4596L368.053 41.4449L368.047 41.43C366.847 38.6617 365.136 36.4598 362.917 34.7842L362.9 34.7718C360.666 33.0389 358.029 31.8844 354.956 31.3256L354.944 31.3235L354.933 31.3212C351.781 30.7004 347.171 30.3749 341.046 30.3749H339.339V69.6917H343.449C349.793 69.6917 354.274 69.3638 356.995 68.754C359.656 68.1575 361.944 67.0198 363.889 65.3464C365.85 63.6586 367.33 61.6111 368.337 59.1851ZM337.741 71.2898V28.7768H341.046C347.205 28.7768 351.937 29.1023 355.242 29.7532C358.547 30.3541 361.426 31.606 363.88 33.5088C366.333 35.3616 368.211 37.7902 369.513 40.7946C370.865 43.749 371.541 46.9788 371.541 50.484C371.541 53.9892 370.965 57.0938 369.813 59.7978C368.712 62.4517 367.084 64.7051 364.931 66.5578C362.778 68.4106 360.249 69.6624 357.345 70.3134C354.441 70.9643 349.809 71.2898 343.449 71.2898H337.741ZM421.071 30.45H395.533V43.0272H420.845V52.5328H395.533V69.4664H420.845V79.0471H385.877V20.8693H421.071V30.45ZM393.935 71.0645V50.9346H419.247V44.6253H393.935V28.8519H419.472V22.4675H387.475V77.4489H419.247V71.0645H393.935ZM252.987 66.1071C248.681 70.3634 243.398 72.4916 237.139 72.4916C231.08 72.4916 225.872 70.3134 221.515 65.9569C217.159 61.6005 214.981 56.2926 214.981 50.0333C214.981 43.724 217.084 38.3911 221.29 34.0346C225.546 29.6281 230.829 27.4248 237.139 27.4248C243.298 27.4248 248.556 29.603 252.912 33.9595C257.318 38.3159 259.522 43.6989 259.522 50.1084C259.522 56.5179 257.344 61.8508 252.987 66.1071Z" fill="#FF8300"/>
</svg>